<svg id="Layer_1" enable-background="new 0 0 53 53" height="512" viewBox="0 0 53 53" width="512" xmlns="http://www.w3.org/2000/svg"><g id="_x37_4"><g><path d="m48.294838 26.754324c-1.5528145-3.3519764-4.2057266-5.4663105-7.884346-6.423193-.9740906-.2521172-1.9825211-.383894-2.9909897-.4183064-2.045578-.0744572-7.2082233-.687561-6.0908852-5.0365696 1.3866272-5.391819-2.3378086-7.2597718-2.3378086-7.2597718s-5.1225319-4.2573109-16.0437164 1.7590833c-10.9269221 6.0163936-9.385578 19.1951618-9.385578 19.1951618s.7907288 12.141655 11.4941759 18.4789238c10.7091818 6.337265 22.5643425 2.0054626 22.5643425 2.0054626 6.2169609-2.7389069 10.22789-7.0133896 11.5342903-13.1730309.6474808-3.05978.4526489-6.2857169-.8594848-9.1277598zm-28.7583638-9.2480297c-1.7132339 0-3.0998592-1.3923607-3.0998592-3.0998945 0-1.7132339 1.3866253-3.0998602 3.0998592-3.0998602 1.7075005 0 3.0941601 1.3866262 3.0941601 3.0998602 0 1.7075338-1.3866596 3.0998945-3.0941601 3.0998945z" fill="#fcb73e"/></g><g><path d="m39.3390045 44.1847038s-11.8551617 4.3318024-22.5643444-2.0054665c-10.7034473-6.3372649-11.4941764-18.4789237-11.4941764-18.4789237s-.3552508-3.059782.492763-6.8988209c-2.9164988 5.7585773-2.2117326 11.7692356-2.2117326 11.7692356s.7907288 12.141655 11.4941759 18.4789238c10.7091818 6.337265 22.5643425 2.0054626 22.5643425 2.0054626 6.2169609-2.7389069 10.22789-7.0133896 11.5342903-13.1730309.0172081-.0744896.0286446-.1432457.0401154-.2177391-1.9997284 3.7416078-5.3460076 6.5320626-9.8554337 8.5203591z" fill="#fd982e"/></g><g><path d="m30.9189129 43.7434731c0 2.5154305-2.0398426 4.5610123-4.5552406 4.5610123-2.5211697 0-4.5610123-2.0455818-4.5610123-4.5610123 0-2.5211372 2.0398426-4.5609779 4.5610123-4.5609779 2.515398-.0000001 4.5552406 2.0398406 4.5552406 4.5609779z" fill="#fcb73e"/></g><g><path d="m41.4476013 39.911602c0 2.5154343-2.0398407 4.5610123-4.5552406 4.5610123-2.5211678 0-4.5610123-2.045578-4.5610123-4.5610123 0-2.5211334 2.0398445-4.5609779 4.5610123-4.5609779 2.5153999 0 4.5552406 2.0398445 4.5552406 4.5609779z" fill="#65b9ff"/></g><g><path d="m47.4281845 29.8842793c0 2.5154324-2.0398407 4.5610104-4.5552406 4.5610104-2.5211716 0-4.5610123-2.045578-4.5610123-4.5610104 0-2.5211353 2.0398407-4.5609779 4.5610123-4.5609779 2.5153999-.0000001 4.5552406 2.0398425 4.5552406 4.5609779z" fill="#e83d62"/></g><g><path d="m47.0170822 31.7851925c-.7219734 1.5699863-2.3034286 2.6586819-4.1427383 2.6586819-2.5211372 0-4.5609779-2.045578-4.5609779-4.5610123 0-1.8450108 1.0886574-3.4322033 2.6643829-4.1484413-1.7578697 3.7778129 2.1688919 7.8136139 6.0393333 6.0507717z" fill="#ce2955"/></g><g><path d="m41.0350685 41.8125153c-.7219734 1.5699883-2.3034325 2.6586838-4.1427078 2.6586838-2.5211678 0-4.5610123-2.045578-4.5610123-4.5610123 0-1.8450127 1.0886612-3.4322052 2.6643829-4.1484413-1.7578659 3.7778129 2.168892 7.8136138 6.0393372 6.0507698z" fill="#3e7fff"/></g><g><path d="m30.9189129 43.7434731c0 2.5154305-2.0398426 4.5610123-4.5552406 4.5610123-2.5211697 0-4.5610123-2.0455818-4.5610123-4.5610123 0-2.5211372 2.0398426-4.5609779 4.5610123-4.5609779 2.515398-.0000001 4.5552406 2.0398406 4.5552406 4.5609779z" fill="#46cc6b"/></g><g><path d="m30.5035095 45.6515541c-.7277088 1.5642509-2.3034306 2.6529465-4.1370049 2.6529465-2.5211353 0-4.5609779-2.045578-4.5609779-4.5610123 0-1.8393097 1.0886612-3.4264679 2.6586819-4.142704-1.7308121 3.8001175 2.1532745 7.7821999 6.0393009 6.0507698z" fill="#34ba5d"/></g><g><path d="m20.1037292 39.182476c0 2.5154343-2.0398426 4.5610123-4.5552416 4.5610123-2.5211697 0-4.5610123-2.045578-4.5610123-4.5610123 0-2.5211334 2.0398426-4.5609779 4.5610123-4.5609779 2.515399 0 4.5552416 2.0398445 4.5552416 4.5609779z" fill="#deddff"/></g><g><path d="m19.6854572 41.0848083c-.7162361 1.5699844-2.2976933 2.65868-4.1369696 2.65868-2.5211697 0-4.5610123-2.045578-4.5610123-4.5610123 0-1.8392754 1.0886602-3.4264679 2.6586819-4.142704-1.7473125 3.8363419 2.2132598 7.7876549 6.0393 6.0450363z" fill="#c6c6f7"/></g><g><path d="m15.5456028 29.047718c0 2.5154343-2.0398426 4.5610123-4.5552416 4.5610123-2.5211697 0-4.5610123-2.045578-4.5610123-4.5610123 0-2.5211353 2.0398426-4.5609779 4.5610123-4.5609779 2.515399 0 4.5552416 2.0398426 4.5552416 4.5609779z" fill="#5b5e8b"/></g><g><path d="m15.1273308 30.9500484c-.7162371 1.5699863-2.2976942 2.6586819-4.1369696 2.6586819-2.5211697 0-4.5610123-2.045578-4.5610123-4.5610123 0-1.8392754 1.0886598-3.4264679 2.6586819-4.1427059-1.7453346 3.8320008 2.2094946 7.7893696 6.0393 6.0450363z" fill="#312e4b"/></g><g><path d="m33.4635277 22.9358234-2.3556366-1.2610359c4.5346756-11.3795805 8.343029-18.2850113 11.1576385-19.122324.8322945-.2421396 1.6847534.3934271 1.7603989 1.2559862.1715126 1.967196-1.079422 6.9810734-10.5624008 19.1273737z" fill="#5b5e8b"/></g><g><path d="m32.9288177 22.5575123.5851364.3127346c-.0151443.0201664-.0353127.0454121-.0504265.0655766l-2.3556366-1.2610359c4.5346756-11.3795805 8.343029-18.2850113 11.1576385-19.122324.7213058-.2118759 1.4577637.2421091 1.6898041.9281049-2.7994918 1.0037784-6.5624312 7.873896-11.0265159 19.0769438z" fill="#312e4b"/></g><g><path d="m33.4635277 22.9358234-1.7351876 3.0264855-2.3354396-1.3568764 1.7149906-2.930645z" fill="#e83d62"/></g><g><path d="m29.3929005 34.1035576c-2.7742767 1.841095-5.5687504 1.6443977-8.3884087-.5952034 0 0 2.3404579.9129868 3.0365524-2.1034298.0857716-.3682117.1109867-.7515717.1261024-1.1298809.15135-3.5409679 1.7805977-5.5485554 5.2257538-5.669611l2.3354397 1.3568764c2.2446175 2.8297558 1.2660561 5.5334377-2.3354396 8.1412487z" fill="#deddff"/></g><g><path d="m29.3929005 34.1035576c-2.7742767 1.841095-5.5687504 1.6443977-8.3884087-.5952034 0 0 .332901.1311531.7818356.1311531h.0050488c1.9369335.6809464 3.8638.3783112 5.7805672-.8928223 3.3846283-2.4514465 4.4539852-4.9886646 2.7036819-7.6317883l1.4527149.8474121c2.2446174 2.8297559 1.266056 5.5334378-2.3354397 8.1412488z" fill="#c6c6f7"/></g></g></svg>