<svg id="Icons" viewBox="0 0 60 60" xmlns="http://www.w3.org/2000/svg"><path d="m59 30c0 16.632-13.99 29.987-30.848 28.943-14.444-.895-26.2-12.651-27.094-27.095-1.045-16.858 12.31-30.848 28.942-30.848 4.568 0 8.893 1.054 12.74 2.941 1.031.506 1.409 1.79.84 2.788l-.004.007c-.526.922-1.674 1.265-2.626.796-3.818-1.88-8.183-2.795-12.79-2.466-12.1.863-21.982 10.568-23.059 22.651-1.34 15.039 10.712 27.662 25.563 27.274 12.718-.332 23.334-10.418 24.265-23.106.242-3.296-.155-6.487-1.099-9.429-.299-.933.136-1.94 1.012-2.378 1.094-.547 2.435 0 2.806 1.165.878 2.761 1.351 5.703 1.351 8.757z" fill="#aee090"/><path d="m15.41 22.472 15.814 21.397c1.194 1.616 3.624 1.476 4.631-.266l22.852-39.558c1.19-2.06-1.525-4.131-3.144-2.397l-23.808 25.502-13.814-7.646c-1.867-1.033-3.807 1.241-2.531 2.968z" fill="#6bb577"/></svg>