<svg class="animated" id="freepik_stories-hair-spray" xmlns="http://www.w3.org/2000/svg" viewBox="0 0 500 500" version="1.1" xmlns:xlink="http://www.w3.org/1999/xlink" xmlns:svgjs="http://svgjs.com/svgjs"><style>svg#freepik_stories-hair-spray:not(.animated) .animable {opacity: 0;}svg#freepik_stories-hair-spray.animated #freepik--background-simple--inject-53 {animation: 1s 1 forwards cubic-bezier(.36,-0.01,.5,1.38) zoomOut,1.5s Infinite  linear wind;animation-delay: 0.6s,1.6s;opacity: 0}svg#freepik_stories-hair-spray.animated #freepik--Wall--inject-53 {animation: 1s 1 forwards cubic-bezier(.36,-0.01,.5,1.38) zoomIn;animation-delay: 0s;}svg#freepik_stories-hair-spray.animated #freepik--Picture--inject-53 {animation: 1s 1 forwards cubic-bezier(.36,-0.01,.5,1.38) zoomIn;animation-delay: 0s;}svg#freepik_stories-hair-spray.animated #freepik--Plant--inject-53 {animation: 1s 1 forwards cubic-bezier(.36,-0.01,.5,1.38) slideRight;animation-delay: 1.0s;opacity: 0}svg#freepik_stories-hair-spray.animated #freepik--Character--inject-53 {animation: 1s 1 forwards cubic-bezier(.36,-0.01,.5,1.38) zoomOut,1.5s Infinite  linear floating;animation-delay: 1.2s,2.2s;opacity: 0}svg#freepik_stories-hair-spray.animated #freepik--hair-spray--inject-53 {animation: 1s 1 forwards cubic-bezier(.36,-0.01,.5,1.38) lightSpeedLeft;animation-delay: 1.0s;opacity: 0}            @keyframes zoomOut {                0% {                    opacity: 0;                    transform: scale(1.5);                }                100% {                    opacity: 1;                    transform: scale(1);                }            }                    @keyframes wind {                0% {                    transform: rotate( 0deg );                }                25% {                    transform: rotate( 1deg );                }                75% {                    transform: rotate( -1deg );                }            }                    @keyframes zoomIn {                0% {                    opacity: 0;                    transform: scale(0.5);                }                100% {                    opacity: 1;                    transform: scale(1);                }            }                    @keyframes slideRight {                0% {                    opacity: 0;                    transform: translateX(30px);                }                100% {                    opacity: 1;                    transform: translateX(0);                }            }                    @keyframes floating {                0% {                    opacity: 1;                    transform: translateY(0px);                }                50% {                    transform: translateY(-10px);                }                100% {                    opacity: 1;                    transform: translateY(0px);                }            }                    @keyframes lightSpeedLeft {              from {                transform: translate3d(-50%, 0, 0) skewX(20deg);                opacity: 0;              }              60% {                transform: skewX(-10deg);                opacity: 1;              }              80% {                transform: skewX(2deg);              }              to {                opacity: 1;                transform: translate3d(0, 0, 0);              }            }        </style><g id="freepik--background-simple--inject-53" class="animable" style="transform-origin: 255.072px 250.894px;"><path d="M446.33,145.29s-80.4-115.75-180.78-128C176.94,6.41,94.69,48.79,83.24,140.35,79.16,173,71.9,209.07,59,238.83,44.53,272.21,19.84,300,38.75,364.17s98.77,122.12,156.82,122,112.58-52.89,157.57-100.88S541.4,292.17,446.33,145.29Z" style="fill: #4276EB; transform-origin: 255.072px 250.894px;" id="elr9x1woh3u5d" class="animable"></path><g id="eljybl9q7gs18"><path d="M446.33,145.29s-80.4-115.75-180.78-128C176.94,6.41,94.69,48.79,83.24,140.35,79.16,173,71.9,209.07,59,238.83,44.53,272.21,19.84,300,38.75,364.17s98.77,122.12,156.82,122,112.58-52.89,157.57-100.88S541.4,292.17,446.33,145.29Z" style="fill: rgb(255, 255, 255); opacity: 0.7; transform-origin: 255.072px 250.894px;" class="animable" id="el46qa1f1my23"></path></g></g><g id="freepik--Wall--inject-53" class="animable" style="transform-origin: 87.755px 252.885px;"><g id="elrmyrh581hu"><g style="opacity: 0.3; transform-origin: 87.755px 252.885px;" class="animable" id="elvbecbeoqn7"><rect x="112.06" y="73.49" width="40.78" height="40.78" rx="4.57" style="fill: none; stroke: rgb(0, 0, 0); stroke-miterlimit: 10; transform-origin: 132.45px 93.88px;" id="elv3u60ja6wi9" class="animable"></rect><rect x="112.06" y="118.92" width="40.78" height="40.78" rx="4.57" style="fill: none; stroke: rgb(0, 0, 0); stroke-miterlimit: 10; transform-origin: 132.45px 139.31px;" id="elhg1qwyy2vvn" class="animable"></rect><rect x="112.06" y="164.35" width="40.78" height="40.78" rx="4.57" style="fill: none; stroke: rgb(0, 0, 0); stroke-miterlimit: 10; transform-origin: 132.45px 184.74px;" id="elyys1nvddyxq" class="animable"></rect><rect x="112.06" y="209.78" width="40.78" height="40.78" rx="4.57" style="fill: none; stroke: rgb(0, 0, 0); stroke-miterlimit: 10; transform-origin: 132.45px 230.17px;" id="el0kqqmclg16mm" class="animable"></rect><rect x="112.06" y="255.21" width="40.78" height="40.78" rx="4.57" style="fill: none; stroke: rgb(0, 0, 0); stroke-miterlimit: 10; transform-origin: 132.45px 275.6px;" id="elecb0f2mnakr" class="animable"></rect><rect x="112.06" y="300.64" width="40.78" height="40.78" rx="4.57" style="fill: none; stroke: rgb(0, 0, 0); stroke-miterlimit: 10; transform-origin: 132.45px 321.03px;" id="elxk5qwvi0m5" class="animable"></rect><rect x="112.06" y="346.07" width="40.78" height="40.78" rx="4.57" style="fill: none; stroke: rgb(0, 0, 0); stroke-miterlimit: 10; transform-origin: 132.45px 366.46px;" id="el2qkiefs1gsr" class="animable"></rect><rect x="112.06" y="391.5" width="40.78" height="40.78" rx="4.57" style="fill: none; stroke: rgb(0, 0, 0); stroke-miterlimit: 10; transform-origin: 132.45px 411.89px;" id="elwrj0rlj71h" class="animable"></rect><rect x="67.36" y="73.49" width="40.78" height="40.78" rx="4.57" style="fill: none; stroke: rgb(0, 0, 0); stroke-miterlimit: 10; transform-origin: 87.75px 93.88px;" id="elq4hdzdalwq" class="animable"></rect><rect x="67.36" y="118.92" width="40.78" height="40.78" rx="4.57" style="fill: none; stroke: rgb(0, 0, 0); stroke-miterlimit: 10; transform-origin: 87.75px 139.31px;" id="elj21pkzfo8oj" class="animable"></rect><rect x="67.36" y="164.35" width="40.78" height="40.78" rx="4.57" style="fill: none; stroke: rgb(0, 0, 0); stroke-miterlimit: 10; transform-origin: 87.75px 184.74px;" id="el4ulv90x2vaf" class="animable"></rect><rect x="67.36" y="209.78" width="40.78" height="40.78" rx="4.57" style="fill: none; stroke: rgb(0, 0, 0); stroke-miterlimit: 10; transform-origin: 87.75px 230.17px;" id="elzksavag6s1" class="animable"></rect><rect x="67.36" y="255.21" width="40.78" height="40.78" rx="4.57" style="fill: none; stroke: rgb(0, 0, 0); stroke-miterlimit: 10; transform-origin: 87.75px 275.6px;" id="elyugc8mrrjyr" class="animable"></rect><rect x="67.36" y="300.64" width="40.78" height="40.78" rx="4.57" style="fill: none; stroke: rgb(0, 0, 0); stroke-miterlimit: 10; transform-origin: 87.75px 321.03px;" id="elot8l0npjav" class="animable"></rect><rect x="67.36" y="346.07" width="40.78" height="40.78" rx="4.57" style="fill: none; stroke: rgb(0, 0, 0); stroke-miterlimit: 10; transform-origin: 87.75px 366.46px;" id="el3r8pk5cp4u5" class="animable"></rect><rect x="67.36" y="391.5" width="40.78" height="40.78" rx="4.57" style="fill: none; stroke: rgb(0, 0, 0); stroke-miterlimit: 10; transform-origin: 87.75px 411.89px;" id="elc2n2ixwnvo" class="animable"></rect><rect x="22.67" y="73.49" width="40.78" height="40.78" rx="4.57" style="fill: none; stroke: rgb(0, 0, 0); stroke-miterlimit: 10; transform-origin: 43.06px 93.88px;" id="el9re7ngfwfmd" class="animable"></rect><rect x="22.67" y="118.92" width="40.78" height="40.78" rx="4.57" style="fill: none; stroke: rgb(0, 0, 0); stroke-miterlimit: 10; transform-origin: 43.06px 139.31px;" id="eliuun7p5hon" class="animable"></rect><rect x="22.67" y="164.35" width="40.78" height="40.78" rx="4.57" style="fill: none; stroke: rgb(0, 0, 0); stroke-miterlimit: 10; transform-origin: 43.06px 184.74px;" id="elyr9v9hwslsg" class="animable"></rect><rect x="22.67" y="209.78" width="40.78" height="40.78" rx="4.57" style="fill: none; stroke: rgb(0, 0, 0); stroke-miterlimit: 10; transform-origin: 43.06px 230.17px;" id="elem053c5r2d" class="animable"></rect><rect x="22.67" y="255.21" width="40.78" height="40.78" rx="4.57" style="fill: none; stroke: rgb(0, 0, 0); stroke-miterlimit: 10; transform-origin: 43.06px 275.6px;" id="elzx8c1ghvmf" class="animable"></rect><rect x="22.67" y="300.64" width="40.78" height="40.78" rx="4.57" style="fill: none; stroke: rgb(0, 0, 0); stroke-miterlimit: 10; transform-origin: 43.06px 321.03px;" id="elsanbneswjhl" class="animable"></rect><rect x="22.67" y="346.07" width="40.78" height="40.78" rx="4.57" style="fill: none; stroke: rgb(0, 0, 0); stroke-miterlimit: 10; transform-origin: 43.06px 366.46px;" id="el64cdwmqfwmo" class="animable"></rect><rect x="22.67" y="391.5" width="40.78" height="40.78" rx="4.57" style="fill: none; stroke: rgb(0, 0, 0); stroke-miterlimit: 10; transform-origin: 43.06px 411.89px;" id="ell1u7nbxz61" class="animable"></rect></g></g></g><g id="freepik--Picture--inject-53" class="animable" style="transform-origin: 393.105px 115.285px;"><g id="el9l9wakcxgu"><g style="opacity: 0.3; transform-origin: 393.105px 115.285px;" class="animable" id="eljqc8zibznnm"><polyline points="388.05 29.32 454.99 29.32 454.99 201.25 331.22 201.25 331.22 29.32 377.06 29.32" style="fill: none; stroke: rgb(0, 0, 0); stroke-miterlimit: 10; transform-origin: 393.105px 115.285px;" id="elwp0kq10fbom" class="animable"></polyline><polyline points="415.16 190.31 339.1 190.31 339.1 40.26 447.11 40.26 447.11 190.31 424.68 190.31" style="fill: none; stroke: rgb(0, 0, 0); stroke-miterlimit: 10; transform-origin: 393.105px 115.285px;" id="ele08o0wxm0t" class="animable"></polyline><rect x="375.97" y="91.49" width="34.26" height="47.6" style="fill: none; stroke: rgb(0, 0, 0); stroke-miterlimit: 10; transform-origin: 393.1px 115.29px;" id="els6xtf2eclr9" class="animable"></rect></g></g></g><g id="freepik--Plant--inject-53" class="animable" style="transform-origin: 396.024px 329.639px;"><path d="M390.17,431c.19,3.5.51,7,.86,10.47h1.14l0-2c0-2.84-.09-5.67.06-8.51s.18-5.66.26-8.49l.1-4.24.25-4.23.4-8.47.58-8.46.26-4.24c.12-1.41.28-2.81.42-4.22l.87-8.44a302.33,302.33,0,0,1,6.19-33.37,197.76,197.76,0,0,1,10.53-32.29h0a.15.15,0,0,0-.07-.19.14.14,0,0,0-.2.07,196.49,196.49,0,0,0-11.71,32A301.3,301.3,0,0,0,393,379.8l-1.17,8.48c-.18,1.41-.4,2.82-.56,4.24l-.41,4.26c-.24,2.84-.53,5.68-.73,8.52l-.28,8.56-.08,4.28c0,1.42,0,2.85.08,4.27C390,425.26,390,428.11,390.17,431Z" style="fill: rgb(38, 50, 56); transform-origin: 400.936px 377.886px;" id="elf3b94jak17r" class="animable"></path><path d="M398.11,441.43c.79-5.67,1.43-11.33,2.06-17,.84-7.38,1.22-14.79,2-22.18a222.11,222.11,0,0,1,9.31-43.42.15.15,0,0,0-.08-.19.15.15,0,0,0-.2.08A196.9,196.9,0,0,0,399.8,402c-1.06,7.38-2.2,14.77-2.61,22.22-.33,5.74-.51,11.49-.37,17.25Z" style="fill: rgb(38, 50, 56); transform-origin: 404.131px 400.048px;" id="elthb0twubfnq" class="animable"></path><path d="M404.07,441.43l1.51-11.71c1-7.11,1.8-14.28,3.62-21.19.23-.86.52-1.7.77-2.55a21.88,21.88,0,0,1,.87-2.51l1-2.46L413,398.7A65.26,65.26,0,0,1,419.3,390a74.28,74.28,0,0,1,16.05-14.37h0a.16.16,0,0,0,0-.2.15.15,0,0,0-.2-.06,75,75,0,0,0-17,13.64,65.1,65.1,0,0,0-6.79,8.66L410,400.11l-1.14,2.55a24.61,24.61,0,0,0-1,2.58c-.3.87-.64,1.74-.91,2.62a105.36,105.36,0,0,0-4.3,21.52c-.33,4-.52,8-.52,12.05Z" style="fill: rgb(38, 50, 56); transform-origin: 418.758px 408.392px;" id="el8yus8asarlh" class="animable"></path><path d="M407.17,441.43h1.67c.11-.57.22-1.15.32-1.73.39-1.88.76-3.76,1.07-5.64s.68-3.74.91-5.63.56-3.77,1-5.61a51.73,51.73,0,0,1,3.66-10.76c1.6-3.41,3.64-6.78,6.66-9.1l0,0a.14.14,0,0,0,0-.19.15.15,0,0,0-.2-.06c-3.44,2-5.82,5.33-7.84,8.67a53.59,53.59,0,0,0-4.65,10.82c-.33.93-.6,1.88-.85,2.83l-.79,2.84a47.42,47.42,0,0,0-1,5.8c-.11,2-.25,3.92-.2,5.88C407.09,440.16,407.13,440.8,407.17,441.43Z" style="fill: rgb(38, 50, 56); transform-origin: 414.708px 422.062px;" id="elnm7d84l0m6" class="animable"></path><path d="M381.93,394.4c.78,9.56,1.29,19.14,2.09,28.68l1.48,18.35h1.7c0-1.36,0-2.73.07-4.09.11-4.82-.1-9.63-.26-14.45-.41-9.62-1.59-19.18-2.69-28.73s-2.37-19.08-3.71-28.6-2.89-19-4.53-28.47a.16.16,0,0,0-.17-.12.16.16,0,0,0-.13.17c1.25,9.52,2.34,19.06,3.35,28.61S381.13,384.84,381.93,394.4Z" style="fill: rgb(38, 50, 56); transform-origin: 381.54px 389.2px;" id="ell529a0kif" class="animable"></path><path d="M359.63,357.94a42.26,42.26,0,0,1,5.94,9.65c.76,1.74,1.57,3.45,2.21,5.25l1,2.65.89,2.71a157.58,157.58,0,0,1,5.48,22.08c.72,3.72,1.14,7.51,1.7,11.26l.66,5.65c.25,1.89.57,3.76.76,5.65.44,3.77,1,7.54,1.47,11.32.27,2.42.6,4.85,1,7.27h1.06c.07-2.47.11-4.95.08-7.42-.06-3.84-.35-7.66-.59-11.49s-.9-7.63-1.47-11.42l-1.11-5.66c-.36-1.88-.7-3.77-1.17-5.64a160.6,160.6,0,0,0-6.42-22.11l-1-2.68-1.17-2.64c-.74-1.77-1.66-3.47-2.52-5.18a42.76,42.76,0,0,0-6.54-9.47.14.14,0,0,0-.2,0,.16.16,0,0,0,0,.21Z" style="fill: rgb(38, 50, 56); transform-origin: 370.76px 399.554px;" id="elhl5j5pky7j7" class="animable"></path><path d="M366.46,408.17c1.74,5,3.28,10,4.54,15.16s2.15,10.3,3.28,15.43q.32,1.33.6,2.67h2.77c-.12-1.07-.25-2.15-.42-3.21a99.17,99.17,0,0,0-3.92-15.55c-1.57-5.1-3.42-10.11-5.46-15a130.2,130.2,0,0,0-7.05-14.32.15.15,0,1,0-.26.14A133.26,133.26,0,0,1,366.46,408.17Z" style="fill: rgb(38, 50, 56); transform-origin: 369.079px 417.338px;" id="elt0if7z02a1" class="animable"></path><path d="M354.38,417.49a21.83,21.83,0,0,1,7.11,6,34.56,34.56,0,0,1,4.8,8c1.34,2.81,2,5.89,3.12,8.78l.39,1.17h2.85c-.12-.67-.23-1.34-.37-2a34.1,34.1,0,0,0-3.85-9,36.62,36.62,0,0,0-5.83-7.89,28.15,28.15,0,0,0-3.78-3.11,16.16,16.16,0,0,0-4.35-2.19.15.15,0,0,0-.18.08.16.16,0,0,0,.07.2Z" style="fill: rgb(38, 50, 56); transform-origin: 363.464px 429.342px;" id="elq1jsg8sbq5d" class="animable"></path><path d="M376.57,350.87s-15.56-4.28-18.48-21.36,8.46-9.33-.91-36.36-6.7-33-2.75-40.47,5.86-5,8.66,5.2,13.83,26.41,17,56S376.57,350.87,376.57,350.87Z" style="fill: #4276EB; transform-origin: 365.876px 299.607px;" id="ele5m1j35pcxp" class="animable"></path><path d="M408.78,323.55s-10.32-4.06-9.9-23.82,8.31-15.39,10.54-39.92,4.57-41.78,9-42,15.61,12.76,18.5,40.32-7.14,45.31-15.53,53S408.78,323.55,408.78,323.55Z" style="fill: #4276EB; transform-origin: 418.147px 270.679px;" id="elee53xgk9s5d" class="animable"></path><path d="M369.94,374.4s-1.82-14.6-6.37-21.65-14.77-13.53-21.06-27.12-13.68-20.34-14.07-1.39,7.67,29,17.88,35.86S369.94,374.4,369.94,374.4Z" style="fill: #4276EB; transform-origin: 349.183px 343.473px;" id="elp6amhvaieo" class="animable"></path><path d="M364.46,399.2S355.57,380.26,342,366s-24.53-21.6-20.79-14.58,8.6,6.81,14.94,19.18,4,21.16,13.35,28.41S364.46,399.2,364.46,399.2Z" style="fill: #4276EB; transform-origin: 342.465px 375.504px;" id="el80ceo0qhumc" class="animable"></path><path d="M362.26,422.92c-.35-1.23-.38-10.11-13.78-17.93s-26.41-5.54-24.94-1.85,9.66,10.09,18,14.07S362.26,422.92,362.26,422.92Z" style="fill: #4276EB; transform-origin: 342.843px 411.334px;" id="elblwl17nxrqv" class="animable"></path><path d="M405.76,376.7s-5.72-7.9-1.83-23.89,11-11.65,19.39-19.77,6.85-9.4,15.28-17.93,15.88-13.06,18.95-9.3-2.23,14.84-7.33,21.09S437.32,336,433.36,344s-2.89,20.87-12.41,26.53S405.76,376.7,405.76,376.7Z" style="fill: #4276EB; transform-origin: 430.516px 340.588px;" id="elffxb7ucek4" class="animable"></path><path d="M425.72,382s15.19-15.92,26.17-27.57,15.4-20.75,15.47-12.67,3,14.65-5.88,24.77S425.72,382,425.72,382Z" style="fill: #4276EB; transform-origin: 446.799px 360.342px;" id="elokd4exikdb" class="animable"></path><path d="M417,408.25s-.14-6.47,23.45-20.42,33.37-16.36,30.7-10.42-13,11.57-24.32,22S417,408.25,417,408.25Z" style="fill: #4276EB; transform-origin: 444.289px 391.354px;" id="elvsgd3vrnn9" class="animable"></path><path d="M377.6,349.19s-4.19-29.13-9-49.91-7.89-33.43-7.89-33.43" style="fill: none; stroke: rgb(38, 50, 56); stroke-linecap: round; stroke-linejoin: round; transform-origin: 369.155px 307.52px;" id="elqbp0grp9gxl" class="animable"></path><path d="M407.84,323.82S418.94,292.9,423,274.1s1-33.06-.28-41.58" style="fill: none; stroke: rgb(38, 50, 56); stroke-linecap: round; stroke-linejoin: round; transform-origin: 416.437px 278.17px;" id="eldmwh0dqe20o" class="animable"></path><path d="M368.69,373.74a152.91,152.91,0,0,0-14-21.77c-8.43-10.84-15-16.77-18.65-27" style="fill: none; stroke: rgb(38, 50, 56); stroke-linecap: round; stroke-linejoin: round; transform-origin: 352.365px 349.355px;" id="elsovilo50t1" class="animable"></path><path d="M405.76,376.7s4-19.2,12.11-28.95,24-24.83,30.5-34.65" style="fill: none; stroke: rgb(38, 50, 56); stroke-linecap: round; stroke-linejoin: round; transform-origin: 427.065px 344.9px;" id="elai1pkz9d1fd" class="animable"></path><path d="M361.34,422.44s-13.19-9.39-22.66-14.63" style="fill: none; stroke: rgb(38, 50, 56); stroke-linecap: round; stroke-linejoin: round; transform-origin: 350.01px 415.125px;" id="elifz8k72lybr" class="animable"></path></g><g id="freepik--Character--inject-53" class="animable" style="transform-origin: 268.851px 272.934px;"><path d="M190,280.9s-9.38,5.68-20.46,13.64-36.65,14.49-40.63,35.8-.85,74.44-.85,75.58-2.56,35.51-2.56,35.51H290.84s2.56-23.3,7.11-29.83,15.62-23,15.91-42.91.28-29.26.28-30.11,92.34,48,99.16,48S430.92,375,425,349.09s-33.81-64.78-44.32-83-16.48-32.1-17.05-33-13.64-15.92-16.2-6.26,11.94,41.77,16.2,56.83,12.5,42.9,12.5,42.9-27.56-16.19-39.21-29.83-27.56-24.72-42.62-24.72-24.72,1.42-35.8-2.84-36.37-11.93-46-9.38S190,280.9,190,280.9Z" style="fill: rgb(255, 255, 255); stroke: rgb(38, 50, 56); stroke-miterlimit: 10; transform-origin: 276.106px 332.517px;" id="el3ewr83abyek" class="animable"></path><path d="M187.14,344.83a39.64,39.64,0,0,1-15.92,34.66l-5.31,61.94H290.84s2.56-23.3,7.11-29.83,15.62-23,15.91-42.91c.07-5.14.13-9.58.17-13.36-1.22-5.22-4.3-15.4-11-23.29-9.38-11.08-12.5-12.22-16.76-31.25s-8-28.13-8-28.13h-6.53s6.25,15.34,6.82,27,1.13,24.44-8.24,35.8-21,18.75-46.32,14.49-29.55-15.62-37.22-29.83a166.55,166.55,0,0,0-17.33-25.57,47.06,47.06,0,0,1-4.19,2.62C170.91,304.48,186,325.88,187.14,344.83Z" style="fill: #4276EB; stroke: rgb(38, 50, 56); stroke-miterlimit: 10; transform-origin: 239.645px 357.045px;" id="el3tgxuewxfgn" class="animable"></path><path d="M227,425.29c-2.82.75-5.26,1.36-7.15,1.75" style="fill: none; stroke: rgb(38, 50, 56); stroke-miterlimit: 10; transform-origin: 223.425px 426.165px;" id="eldmtjivei2hh" class="animable"></path><path d="M283.46,407.89s-30.11,9.91-50.22,15.66" style="fill: none; stroke: rgb(38, 50, 56); stroke-miterlimit: 10; transform-origin: 258.35px 415.72px;" id="elzxqqej6e8w" class="animable"></path><path d="M242.68,415.92s-32.13,8.65-46.34,9.89" style="fill: none; stroke: rgb(38, 50, 56); stroke-miterlimit: 10; transform-origin: 219.51px 420.865px;" id="elpdlf27gcww" class="animable"></path><path d="M221.44,305.37a12.3,12.3,0,0,1,5.19,1.95" style="fill: none; stroke: rgb(38, 50, 56); stroke-miterlimit: 10; transform-origin: 224.035px 306.345px;" id="el3s1jirb84u5" class="animable"></path><path d="M191.11,303.35s15.91,2.84,22.17,2a32.66,32.66,0,0,1,3.93-.29" style="fill: none; stroke: rgb(38, 50, 56); stroke-miterlimit: 10; transform-origin: 204.16px 304.428px;" id="elshajkt2rt4e" class="animable"></path><line x1="249.08" y1="298.51" x2="271.52" y2="286.87" style="fill: none; stroke: rgb(38, 50, 56); stroke-miterlimit: 10; transform-origin: 260.3px 292.69px;" id="elb64cbcwbn6s" class="animable"></line><line x1="240.84" y1="278.06" x2="243.68" y2="306.75" style="fill: none; stroke: rgb(38, 50, 56); stroke-miterlimit: 10; transform-origin: 242.26px 292.405px;" id="elhmo0pe6hscm" class="animable"></line><path d="M315.26,324a45.64,45.64,0,0,1,.87-5.64" style="fill: none; stroke: rgb(38, 50, 56); stroke-miterlimit: 10; transform-origin: 315.695px 321.18px;" id="eloer4tnwdvu" class="animable"></path><path d="M314.14,338.58s.25-4.55.65-9.43" style="fill: none; stroke: rgb(38, 50, 56); stroke-miterlimit: 10; transform-origin: 314.465px 333.865px;" id="el2ff4c2udkzl" class="animable"></path><path d="M380.76,344.08c.47,1.56.92,2.91,1.29,3.87" style="fill: none; stroke: rgb(38, 50, 56); stroke-miterlimit: 10; transform-origin: 381.405px 346.015px;" id="elg3n51i5c3w" class="animable"></path><path d="M376.08,326.64s1.71,6.95,3.44,13.18" style="fill: none; stroke: rgb(38, 50, 56); stroke-miterlimit: 10; transform-origin: 377.8px 333.23px;" id="elgjpzefrz1k9" class="animable"></path><line x1="170.94" y1="378.64" x2="172.36" y2="356.76" style="fill: none; stroke: rgb(38, 50, 56); stroke-miterlimit: 10; transform-origin: 171.65px 367.7px;" id="elnrhu1e9g35k" class="animable"></line><path d="M211,287.72l-8.81-11.65-13.92,8.24-2.84-.85c-2.84-.86-21-23.3-21-23.3s-6.82,0-8.53-3.13,3.7-18.18,3.41-20.46-6.25-6.81-7.39-8.23-4.54-21-4.54-21,4.54-14.78,14.49-20.46,38.64-5.11,52,2.84,19.32,21.31,19.89,29.55-2.55,13.93.29,19,11.36,20.46,17,26.14,14.49,9.94,14.49,9.94" style="fill: rgb(255, 255, 255); stroke: rgb(38, 50, 56); stroke-linecap: round; stroke-miterlimit: 10; transform-origin: 206.46px 235.414px;" id="elw4zwv0dzgw8" class="animable"></path><path d="M166.74,237.24a2.85,2.85,0,0,1,1-3.32,9.41,9.41,0,0,1,7.3-1.49l-6.31,4.64a3.18,3.18,0,0,1-2.65,1.83c-1.82,0-3-2-3-2A11.17,11.17,0,0,0,166.74,237.24Z" style="fill: rgb(38, 50, 56); transform-origin: 169.06px 235.566px;" id="elfe85r61ty08" class="animable"></path><path d="M214.13,223.22s2.27-16.76,9.94-19.32S234.3,221.8,232.6,230s-8.81,9.09-8.81,9.09l-1.71,8.24" style="fill: rgb(255, 255, 255); stroke: rgb(38, 50, 56); stroke-linecap: round; stroke-miterlimit: 10; transform-origin: 223.616px 225.505px;" id="elj1oupcwfz6" class="animable"></path><polygon points="202.19 276.07 214.98 266.69 208.45 284.02 202.19 276.07" style="fill: rgb(38, 50, 56); stroke: rgb(38, 50, 56); stroke-miterlimit: 10; transform-origin: 208.585px 275.355px;" id="el5jm1qmll0sl" class="animable"></polygon><path d="M173.5,261.86s8.81-3.41,11.36-9.66" style="fill: none; stroke: rgb(38, 50, 56); stroke-linecap: round; stroke-miterlimit: 10; transform-origin: 179.18px 257.03px;" id="els5uv2cxe78p" class="animable"></path><path d="M162.13,229.19s.47-7.05,8.81-5.4" style="fill: none; stroke: rgb(38, 50, 56); stroke-linecap: round; stroke-miterlimit: 10; stroke-width: 2px; transform-origin: 166.535px 226.365px;" id="ely94vj4vgm0i" class="animable"></path><path d="M167.25,121.22s-17.05-5.68-33.25,3.69-12.78,29-8.24,34.38a61.43,61.43,0,0,1,8.53,12.5c2.27,4.27,4.26,7.11,3.69,10.52s.86,3.8,8,11.47,2.84,18.93,7.1,13.25,8.52-13.36,19.89-14.5,10.8-1.13,9.38,7.68-1.71,9.66,7.95,9.09,10.8,0,14.49,4.54,9.38,4.55,11.65,2.28,7.39,2.55,7.39,2.55-1.42,15.92,10.23,19.61,20.74-.57,24.43-6.82-.57-15.06-.57-15.06,15.92,4,24.16-14.77-1.71-27.28-5.69-29.84-10.79-4.54-10.79-4.54a38.43,38.43,0,0,0-.86-25.57c-5.4-13.36-26.14-17.9-34.94-13.93,0,0,.85-13.64-12.51-19.89S179.46,102.75,167.25,121.22Z" style="fill: rgb(38, 50, 56); stroke: rgb(38, 50, 56); stroke-miterlimit: 10; transform-origin: 203.624px 172.045px;" id="elzczei8frb0q" class="animable"></path><path d="M133.15,182.87c-12.24,0-22.16,10.18-22.16,22.73s9.92,22.74,22.16,22.74,22.16-10.18,22.16-22.74S145.39,182.87,133.15,182.87Zm-.3,31a10.67,10.67,0,1,1,10.79-10.66A10.72,10.72,0,0,1,132.85,213.86Z" style="fill: rgb(38, 50, 56); stroke: rgb(38, 50, 56); stroke-miterlimit: 10; transform-origin: 133.15px 205.605px;" id="elkl53gv159c" class="animable"></path><path d="M135,192.53c-.36,0-.72,0-1.07.06a10.67,10.67,0,1,1-11.81,11.67c0,.35-.05.7-.05,1.06A12.93,12.93,0,1,0,135,192.53Z" style="fill: rgb(110, 110, 110); stroke: rgb(38, 50, 56); stroke-miterlimit: 10; transform-origin: 134.999px 205.46px;" id="elt6s7w2ggkbe" class="animable"></path><ellipse cx="172.5" cy="147.78" rx="17.19" ry="17.76" style="fill: rgb(110, 110, 110); stroke: rgb(38, 50, 56); stroke-miterlimit: 10; transform-origin: 172.5px 147.78px;" id="elw35ogzsa6c" class="animable"></ellipse><ellipse cx="217.25" cy="124.63" rx="8.81" ry="11.08" style="fill: rgb(110, 110, 110); stroke: rgb(38, 50, 56); stroke-miterlimit: 10; transform-origin: 217.25px 124.63px;" id="el6cqhjyvaojs" class="animable"></ellipse><path d="M243.58,174.87c-3.56-9.81-9.14-16.79-12.46-15.58L182,176.34l12.89,35.52L244,194.81C247.34,193.61,247.14,184.68,243.58,174.87Z" style="fill: rgb(38, 50, 56); stroke: rgb(110, 110, 110); stroke-miterlimit: 10; transform-origin: 214.191px 185.507px;" id="elore6gxjqcni" class="animable"></path><g id="eloxr1ozgknr"><ellipse cx="188.41" cy="194.1" rx="6.39" ry="18.89" style="fill: rgb(110, 110, 110); stroke: rgb(38, 50, 56); stroke-miterlimit: 10; transform-origin: 188.41px 194.1px; transform: rotate(-19.95deg);" class="animable" id="el6ae17w0xcci"></ellipse></g><g id="el6xhnhz9bcvi"><ellipse cx="256.32" cy="154.46" rx="7.25" ry="11.65" style="fill: rgb(110, 110, 110); stroke: rgb(38, 50, 56); stroke-miterlimit: 10; transform-origin: 256.32px 154.46px; transform: rotate(-24.33deg);" class="animable" id="elh3g4zkn34la"></ellipse></g><path d="M276.52,188.93c2.65,5.86.84,12.41-4,14.62s-11-.75-13.66-6.61-.83-12.41,4.06-14.62S273.87,183.07,276.52,188.93Z" style="fill: rgb(110, 110, 110); stroke: rgb(38, 50, 56); stroke-miterlimit: 10; transform-origin: 267.69px 192.935px;" id="elddlrcko62js" class="animable"></path><path d="M210.15,111.84s-5.68-1.7-5.11,12.22,8.8,23.87,6.25,32.11-12.5,8.52-12.5,8.52" style="fill: none; stroke: rgb(110, 110, 110); stroke-miterlimit: 10; transform-origin: 205.284px 138.232px;" id="eluyhk7u9d2j" class="animable"></path><path d="M229.76,127.75s-1.71,12.79-16.2,13.93" style="fill: none; stroke: rgb(110, 110, 110); stroke-miterlimit: 10; transform-origin: 221.66px 134.715px;" id="el7py7fgz9tx6" class="animable"></path><path d="M245.38,149.63s-5.4,9.66,3.41,15.34a18.83,18.83,0,0,0,16.77,2.28" style="fill: none; stroke: rgb(110, 110, 110); stroke-miterlimit: 10; transform-origin: 254.651px 158.951px;" id="elecfnzxbri05" class="animable"></path><path d="M133.72,165s7.1,14.21,34.66,11.65,28.42-26.14,24.44-36.37" style="fill: none; stroke: rgb(110, 110, 110); stroke-miterlimit: 10; transform-origin: 164.139px 158.619px;" id="elxf5gffl9wwg" class="animable"></path><path d="M116.67,270.61s0-5,0-5,0,5,0,5Z" style="fill: rgb(38, 50, 56); transform-origin: 116.67px 268.11px;" id="elvn8xr6acu8i" class="animable"></path><line x1="317.51" y1="169.44" x2="271.98" y2="154.13" style="fill: none; stroke: rgb(38, 50, 56); stroke-linecap: round; stroke-miterlimit: 10; transform-origin: 294.745px 161.785px;" id="elcdcg8uwltit" class="animable"></line><line x1="315.22" y1="178.24" x2="287.66" y2="187.42" style="fill: none; stroke: rgb(38, 50, 56); stroke-linecap: round; stroke-miterlimit: 10; transform-origin: 301.44px 182.83px;" id="elqzsb3eroi2" class="animable"></line><line x1="312.54" y1="172.5" x2="300.29" y2="170.97" style="fill: none; stroke: rgb(38, 50, 56); stroke-linecap: round; stroke-miterlimit: 10; transform-origin: 306.415px 171.735px;" id="el0wzh7a1hko3j" class="animable"></line><line x1="310.62" y1="176.71" x2="290.34" y2="180.15" style="fill: none; stroke: rgb(38, 50, 56); stroke-linecap: round; stroke-miterlimit: 10; transform-origin: 300.48px 178.43px;" id="elyvz2cdtlqr" class="animable"></line><path d="M328.85,170.68c-.32-1.31-2.27-1.94-4.35-1.43s-3.52,2-3.2,3.29l1.07,3.4,7.74-1.9Z" style="fill: rgb(255, 255, 255); stroke: rgb(38, 50, 56); stroke-miterlimit: 10; transform-origin: 325.683px 172.507px;" id="el78r6ponc315" class="animable"></path><path d="M317.18,181.73c.79,3.23,5.62,4.81,10.78,3.54s8.71-4.92,7.91-8.14-5.62-4.8-10.78-3.53S316.38,178.51,317.18,181.73Z" style="fill: rgb(255, 255, 255); stroke: rgb(38, 50, 56); stroke-miterlimit: 10; transform-origin: 326.525px 179.435px;" id="el3u8tftv7r39" class="animable"></path><path d="M323.43,210.36a20.53,20.53,0,0,1-8.7.44c-4-.89-5.35.67-3.79,2.9s8.1,5.17,12,5.35l3.95.19Z" style="fill: rgb(255, 255, 255); stroke: rgb(38, 50, 56); stroke-miterlimit: 10; transform-origin: 318.599px 214.8px;" id="el4n43a60g5xs" class="animable"></path><path d="M337.71,179.1c-.73-3-6.35-4.16-12.53-2.64s-10.61,5.18-9.87,8.16L335.88,279l26.44-6.51Z" style="fill: #4276EB; stroke: rgb(38, 50, 56); stroke-miterlimit: 10; transform-origin: 338.775px 227.396px;" id="el10v9xtzwcchg" class="animable"></path><path d="M335.88,279l9.48-2.33c-6-7-12.47-18.51-6-32.83,2.64-5.81,6.36-12.69,10.24-19.45l-2.5-9.5a105.06,105.06,0,0,1-7.74,10.44,52.11,52.11,0,0,0-10.57,21.31Z" style="fill: rgb(38, 50, 56); stroke: rgb(38, 50, 56); stroke-miterlimit: 10; transform-origin: 339.195px 246.945px;" id="elgo0wqj9gx1n" class="animable"></path><path d="M335.15,275.13c2.24,10.59,7.43,5.06,14.63,3.29s14.48,0,11.43-9.71c-1.11-3.53-7.43-5.07-14.63-3.29S334.38,271.51,335.15,275.13Z" style="fill: rgb(255, 255, 255); stroke: rgb(38, 50, 56); stroke-miterlimit: 10; transform-origin: 348.498px 273.061px;" id="eljyjb3o4n02" class="animable"></path><g id="elnjl47oe34di"><ellipse cx="349.1" cy="275.7" rx="13.62" ry="6.56" style="fill: rgb(255, 255, 255); stroke: rgb(38, 50, 56); stroke-miterlimit: 10; transform-origin: 349.1px 275.7px; transform: rotate(-13.83deg);" class="animable" id="elfhlgwf5ui9n"></ellipse></g><path d="M338.32,278.35c.71,2.87,6.1,4,12.05,2.54s10.2-5,9.5-7.84" style="fill: none; stroke: rgb(38, 50, 56); stroke-miterlimit: 10; transform-origin: 349.133px 277.289px;" id="el7omkdideys5" class="animable"></path><path d="M364.55,239.54c-2.25-11.93-8.07-47.29-8.07-47.29s0-4.26-1.14-5.68a12.57,12.57,0,0,0-3.53-2.39c-2.31-1.33-2.89-2-5.21-3.28-1.84-1-4.53-3.76-6.34-4.85,0,0-8-6.34-9.5-6.76s-6.54-.84-9.28,1.27,2.34,3.27,5.48,3.37,8.45,6.13,8.45,6.13l.78,1.13a12.36,12.36,0,0,0,1.54,2.24c1.62,1.72,1.5,1.79,1.5,1.79s-8.26-3.45-9.68-2.6-9.09,5.68-9.09,7.1-1.14,13.36.56,14.21,2.56-.85,3.41-3.13a84.29,84.29,0,0,0,2.1-8.51l5.62-1.45,12.68,9.37s-9.95-2.28-11.08-.29-6.25,13.36-7.39,15.63-1.71,3.69.57,3.69,2.84-1.42,2.84-1.42-1.42,5.4-.29,5.68,3.41-.85,6.26-3.12a59.22,59.22,0,0,1,5.68-4l2.84,1.42s3.12,19.61,6,22.45a32,32,0,0,0,4.47,3.62" style="fill: rgb(255, 255, 255); stroke: rgb(38, 50, 56); stroke-miterlimit: 10; transform-origin: 342.318px 206.409px;" id="elmpf836ij7vo" class="animable"></path><line x1="344.26" y1="217.82" x2="349.09" y2="220.1" style="fill: rgb(255, 255, 255); stroke: rgb(38, 50, 56); stroke-miterlimit: 10; transform-origin: 346.675px 218.96px;" id="eljepo5h2lwhe" class="animable"></line><path d="M329.77,217.82s4.83-5.68,6.53-8.24,9.95-2.55,13.64-2.27" style="fill: rgb(255, 255, 255); stroke: rgb(38, 50, 56); stroke-miterlimit: 10; transform-origin: 339.855px 212.503px;" id="ele38nwrdf8vp" class="animable"></path><line x1="344.83" y1="200.21" x2="353.49" y2="201.73" style="fill: rgb(255, 255, 255); stroke: rgb(38, 50, 56); stroke-miterlimit: 10; transform-origin: 349.16px 200.97px;" id="el6qot3hnu8eq" class="animable"></line><line x1="339.23" y1="185.22" x2="350.3" y2="189.35" style="fill: none; stroke: rgb(38, 50, 56); stroke-miterlimit: 10; transform-origin: 344.765px 187.285px;" id="el1p8ldc62e1s" class="animable"></line></g><g id="freepik--hair-spray--inject-53" class="animable" style="transform-origin: 90.43px 381.83px;"><rect x="59.6" y="327.7" width="26.76" height="113.73" style="fill: #4276EB; stroke: rgb(38, 50, 56); stroke-miterlimit: 10; transform-origin: 72.98px 384.565px;" id="elfx60a1nd7kr" class="animable"></rect><path d="M65.24,358.68v-6.75h1.38v2.77h1.19v-2.77h1.38v6.75H67.81v-3H66.62v3Z" style="fill: rgb(38, 50, 56); transform-origin: 67.215px 355.305px;" id="elj9vm92ztco8" class="animable"></path><path d="M69.9,358.68l1.31-6.75h1.52l1.3,6.75H72.76l-.24-1.48H71.45l-.26,1.48Zm1.67-2.33h.81L72,353.63Z" style="fill: rgb(38, 50, 56); transform-origin: 71.965px 355.305px;" id="elrwpzoge9s08" class="animable"></path><path d="M74.68,358.68v-6.75h1.37v6.75Z" style="fill: rgb(38, 50, 56); transform-origin: 75.365px 355.305px;" id="elpzw77t7jjdk" class="animable"></path><path d="M77.09,358.68v-6.75h1.75a4,4,0,0,1,1.17.15,1.33,1.33,0,0,1,.75.55,1.88,1.88,0,0,1,.26,1.08,3.26,3.26,0,0,1-.07.74,1.36,1.36,0,0,1-.25.56,1.3,1.3,0,0,1-.5.38l.93,3.29H79.72L79,355.62h-.49v3.06Zm1.37-3.88h.4a1.11,1.11,0,0,0,.53-.1.63.63,0,0,0,.27-.33,1.73,1.73,0,0,0,.08-.55,1.26,1.26,0,0,0-.17-.71.72.72,0,0,0-.64-.25h-.47Z" style="fill: rgb(38, 50, 56); transform-origin: 79.11px 355.305px;" id="el8t8ar6aw3u8" class="animable"></path><path d="M64.46,368.78a2.09,2.09,0,0,1-1-.23,1.46,1.46,0,0,1-.63-.69,3.19,3.19,0,0,1-.24-1.18l1.18-.2a3.23,3.23,0,0,0,.09.7.84.84,0,0,0,.22.41.45.45,0,0,0,.36.14.36.36,0,0,0,.36-.17.67.67,0,0,0,.1-.38,1.17,1.17,0,0,0-.21-.71,3.1,3.1,0,0,0-.53-.58l-.71-.61a2.78,2.78,0,0,1-.61-.72,1.87,1.87,0,0,1-.24-1A1.65,1.65,0,0,1,63,362.3a1.91,1.91,0,0,1,1.34-.45,1.8,1.8,0,0,1,.83.17,1.3,1.3,0,0,1,.51.44,1.92,1.92,0,0,1,.25.61,3.74,3.74,0,0,1,.09.66l-1.18.17c0-.2,0-.38,0-.54a.9.9,0,0,0-.15-.37.46.46,0,0,0-.34-.13A.4.4,0,0,0,64,363a.7.7,0,0,0-.12.4A1,1,0,0,0,64,364a2.13,2.13,0,0,0,.44.48l.69.6a4.5,4.5,0,0,1,.73.84,2.14,2.14,0,0,1,.3,1.17A1.63,1.63,0,0,1,66,368a1.53,1.53,0,0,1-.6.61A1.88,1.88,0,0,1,64.46,368.78Z" style="fill: rgb(38, 50, 56); transform-origin: 64.3802px 365.316px;" id="elxbz3pz9eep" class="animable"></path><path d="M66.81,368.69v-6.76H69a1.91,1.91,0,0,1,1,.23,1.39,1.39,0,0,1,.57.67,2.56,2.56,0,0,1,.19,1.05,2.23,2.23,0,0,1-.24,1.13,1.34,1.34,0,0,1-.67.58,2.52,2.52,0,0,1-1,.17h-.63v2.93Zm1.37-3.89h.49a1,1,0,0,0,.46-.1.49.49,0,0,0,.22-.3,2,2,0,0,0,.06-.54,2.54,2.54,0,0,0,0-.52.52.52,0,0,0-.2-.32.84.84,0,0,0-.5-.12h-.48Z" style="fill: rgb(38, 50, 56); transform-origin: 68.7865px 365.309px;" id="elcp6dkr8kxr9" class="animable"></path><path d="M71.36,368.69v-6.76h1.75a3.94,3.94,0,0,1,1.17.16,1.34,1.34,0,0,1,.76.55,2,2,0,0,1,.26,1.08,4,4,0,0,1-.07.74A1.5,1.5,0,0,1,75,365a1.36,1.36,0,0,1-.51.38l.94,3.29H74l-.78-3.06h-.48v3.06Zm1.38-3.88h.4a1,1,0,0,0,.52-.11.56.56,0,0,0,.27-.33,1.43,1.43,0,0,0,.08-.54,1.18,1.18,0,0,0-.17-.71.7.7,0,0,0-.64-.25h-.46Z" style="fill: rgb(38, 50, 56); transform-origin: 73.395px 365.31px;" id="elce2f0kqn186" class="animable"></path><path d="M75.89,368.69l1.31-6.76h1.53l1.3,6.76H78.75l-.24-1.48H77.44l-.26,1.48Zm1.68-2.33h.81L78,363.64Z" style="fill: rgb(38, 50, 56); transform-origin: 77.96px 365.31px;" id="elwdrjeraxdv" class="animable"></path><path d="M81.29,368.69V366L80,361.93h1.29l.73,2.38.67-2.38h1.25L82.62,366v2.68Z" style="fill: rgb(38, 50, 56); transform-origin: 81.97px 365.31px;" id="el51tl3i5821p" class="animable"></path><path d="M86.36,438.23C69,430.37,65.51,420.78,68.09,408.76c1.9-8.9,11.67-22.15,18.27-30.33v-13.6c-5.26,7.19-12.5,16.5-19.74,24.86a56.89,56.89,0,0,0-7,10v41.74H86.36Z" style="fill: rgb(38, 50, 56); stroke: rgb(38, 50, 56); stroke-miterlimit: 10; transform-origin: 72.99px 403.13px;" id="elxs9eooigzg" class="animable"></path><rect x="59.6" y="322.22" width="26.76" height="25.08" style="fill: rgb(255, 255, 255); stroke: rgb(38, 50, 56); stroke-miterlimit: 10; transform-origin: 72.98px 334.76px;" id="elzwlj28erlya" class="animable"></rect><rect x="59.6" y="435.46" width="26.76" height="5.97" style="fill: rgb(255, 255, 255); stroke: rgb(38, 50, 56); stroke-miterlimit: 10; transform-origin: 72.98px 438.445px;" id="elehq5i542tz8" class="animable"></rect><rect x="94.5" y="416.36" width="26.76" height="25.08" style="fill: rgb(255, 255, 255); stroke: rgb(38, 50, 56); stroke-miterlimit: 10; transform-origin: 107.88px 428.9px;" id="el0hvkgazl5j3o" class="animable"></rect></g><g id="freepik--Table--inject-53" class="animable" style="transform-origin: 242.64px 441.43px;"><line x1="459.12" y1="441.43" x2="467.03" y2="441.43" style="fill: none; stroke: rgb(38, 50, 56); stroke-miterlimit: 10; transform-origin: 463.075px 441.43px;" id="elbaltsewzr3n" class="animable"></line><line x1="18.25" y1="441.43" x2="449.6" y2="441.43" style="fill: none; stroke: rgb(38, 50, 56); stroke-miterlimit: 10; transform-origin: 233.925px 441.43px;" id="elnqd9nfm9ahr" class="animable"></line></g><defs>     <filter id="active" height="200%">         <feMorphology in="SourceAlpha" result="DILATED" operator="dilate" radius="2"></feMorphology>                <feFlood flood-color="#32DFEC" flood-opacity="1" result="PINK"></feFlood>        <feComposite in="PINK" in2="DILATED" operator="in" result="OUTLINE"></feComposite>        <feMerge>            <feMergeNode in="OUTLINE"></feMergeNode>            <feMergeNode in="SourceGraphic"></feMergeNode>        </feMerge>    </filter>    <filter id="hover" height="200%">        <feMorphology in="SourceAlpha" result="DILATED" operator="dilate" radius="2"></feMorphology>                <feFlood flood-color="#ff0000" flood-opacity="0.5" result="PINK"></feFlood>        <feComposite in="PINK" in2="DILATED" operator="in" result="OUTLINE"></feComposite>        <feMerge>            <feMergeNode in="OUTLINE"></feMergeNode>            <feMergeNode in="SourceGraphic"></feMergeNode>        </feMerge>            <feColorMatrix type="matrix" values="0   0   0   0   0                0   1   0   0   0                0   0   0   0   0                0   0   0   1   0 "></feColorMatrix>    </filter></defs></svg>