<?xml version="1.0" encoding="iso-8859-1"?>
<!-- Generator: Adobe Illustrator 19.0.0, SVG Export Plug-In . SVG Version: 6.00 Build 0)  -->
<svg version="1.1" id="Capa_1" xmlns="http://www.w3.org/2000/svg" xmlns:xlink="http://www.w3.org/1999/xlink" x="0px" y="0px"
	 viewBox="0 0 512 512" style="enable-background:new 0 0 512 512;" xml:space="preserve">
<path style="fill:#455A64;" d="M360,508H56c-22.4,0-40-17.6-40-40V132c0-22.4,17.6-40,40-40h304c22.4,0,40,17.6,40,40v336
	C400,490.4,382.4,508,360,508z"/>
<path style="fill:#37474F;" d="M360,512H56c-24.672,0-44-19.328-44-44V132c0-24.672,19.328-44,44-44h304c24.672,0,44,19.328,44,44
	v336C404,492.672,384.672,512,360,512z M56,96c-20.184,0-36,15.816-36,36v336c0,20.184,15.816,36,36,36h304
	c20.184,0,36-15.816,36-36V132c0-20.184-15.816-36-36-36H56z"/>
<path style="fill:#78909C;" d="M360,476H56c-22.4,0-40-17.6-40-40V100c0-22.4,17.6-40,40-40h304c22.4,0,40,17.6,40,40v336
	C400,458.4,382.4,476,360,476z"/>
<path style="fill:#37474F;" d="M360,480H56c-24.672,0-44-19.328-44-44V100c0-24.672,19.328-44,44-44h304c24.672,0,44,19.328,44,44
	v336C404,460.672,384.672,480,360,480z M56,64c-20.184,0-36,15.816-36,36v336c0,20.184,15.816,36,36,36h304
	c20.184,0,36-15.816,36-36V100c0-20.184-15.816-36-36-36H56z"/>
<path style="fill:#ECEFF1;" d="M348,444H68c-11.2,0-20-8.8-20-20V112c0-11.2,8.8-20,20-20h280c11.2,0,20,8.8,20,20v312
	C368,435.2,359.2,444,348,444z"/>
<path style="fill:#37474F;" d="M348,448H68c-13.456,0-24-10.536-24-24V112c0-13.456,10.544-24,24-24h280c13.464,0,24,10.544,24,24
	v312C372,437.464,361.464,448,348,448z M68,96c-8.976,0-16,7.024-16,16v312c0,8.968,7.024,16,16,16h280c8.968,0,16-7.032,16-16V112
	c0-8.976-7.032-16-16-16H68z"/>
<path style="fill:#FFFFFF;" d="M64,148c-2.208,0-4-1.792-4-4v-32c0-4.64,3.36-8,8-8h32c2.208,0,4,1.792,4,4s-1.792,4-4,4H68v32
	C68,146.208,66.208,148,64,148z"/>
<path style="fill:#FFCA28;" d="M248,44c0-22.4-17.6-40-40-40s-40,17.6-40,40h-24c-4.8,0-8,3.2-8,8v48c0,4.8,3.2,8,8,8h128
	c4.8,0,8-3.2,8-8V52c0-4.8-3.2-8-8-8H248z M208,60c-8.8,0-16-7.2-16-16s7.2-16,16-16s16,7.2,16,16S216.8,60,208,60z"/>
<g>
	<path style="fill:#37474F;" d="M272,112H144c-7.064,0-12-4.936-12-12V52c0-7.064,4.936-12,12-12h20.168
		C166.136,17.272,184.68,0,208,0s41.864,17.272,43.832,40H272c6.952,0,12,5.048,12,12v48C284,106.952,278.952,112,272,112z M144,48
		c-2.576,0-4,1.424-4,4v48c0,2.576,1.424,4,4,4h128c2.576,0,4-1.424,4-4V52c0-2.576-1.424-4-4-4h-24c-2.208,0-4-1.792-4-4
		c0-20.184-15.816-36-36-36s-36,15.816-36,36c0,2.208-1.792,4-4,4H144z M252,44h0.08H252z M208,64c-11.024,0-20-8.976-20-20
		s8.976-20,20-20s20,8.976,20,20S219.024,64,208,64z M208,32c-6.616,0-12,5.384-12,12s5.384,12,12,12s12-5.384,12-12
		S214.616,32,208,32z"/>
	<path style="fill:#37474F;" d="M168,204H80c-2.208,0-4-1.792-4-4s1.792-4,4-4h88c2.208,0,4,1.792,4,4S170.208,204,168,204z"/>
	<path style="fill:#37474F;" d="M336,156.8H80c-2.208,0-4-1.792-4-4s1.792-4,4-4h256c2.208,0,4,1.792,4,4S338.208,156.8,336,156.8z"
		/>
	<path style="fill:#37474F;" d="M335.2,220h-128c-2.208,0-4-1.792-4-4v-32c0-2.208,1.792-4,4-4h128c2.208,0,4,1.792,4,4v32
		C339.2,218.208,337.416,220,335.2,220z M211.2,212h120v-24h-120L211.2,212L211.2,212z"/>
	<path style="fill:#37474F;" d="M168,268H80c-2.208,0-4-1.792-4-4s1.792-4,4-4h88c2.208,0,4,1.792,4,4S170.208,268,168,268z"/>
	<path style="fill:#37474F;" d="M335.2,284h-128c-2.208,0-4-1.792-4-4v-32c0-2.208,1.792-4,4-4h128c2.208,0,4,1.792,4,4v32
		C339.2,282.208,337.416,284,335.2,284z M211.2,276h120v-24h-120L211.2,276L211.2,276z"/>
</g>
<path style="fill:#B0BEC5;" d="M336,292c-12,0-22.4,7.2-28,16.8c-5.6,1.6-10.4,4-14.4,7.2H176c-4,0-8,1.6-10.4,4H128
	c-3.2,0-5.6,0.8-8,2.4l-48,28c-4.8,3.2-8,8-8,13.6s3.2,11.2,8,13.6l28,16l4,2.4l0,0l16,9.6c2.4,1.6,5.6,2.4,8,2.4h37.6
	c3.2,2.4,6.4,4,10.4,4h117.6c6.4,4.8,13.6,8,22.4,8h48V292H336z"/>
<rect x="372" y="292" style="fill:#455A64;" width="24" height="128"/>
<path style="fill:#EF5350;" d="M496,364L496,364c0,17.6-14.4,32-32,32H176v-64h288C481.6,332,496,346.4,496,364z"/>
<path style="fill:#37474F;" d="M464,400H176c-2.208,0-4-1.792-4-4v-64c0-2.208,1.792-4,4-4h288c19.848,0,36,16.152,36,36
	S483.848,400,464,400z M180,392h284c15.44,0,28-12.56,28-28s-12.56-28-28-28H180V392z"/>
<polygon style="fill:#ECEFF1;" points="176,336 176,392 128,392 80,364 128,336 "/>
<path style="fill:#37474F;" d="M176,396h-48c-0.704,0-1.4-0.184-2.016-0.544l-48-28C76.752,366.736,76,365.424,76,364
	s0.752-2.736,1.984-3.456l48-28C126.6,332.184,127.296,332,128,332h48c2.208,0,4,1.792,4,4v56C180,394.208,178.208,396,176,396z
	 M129.08,388H172v-48h-42.92l-41.144,24L129.08,388z"/>
<path style="fill:#78909C;" d="M320,324L320,324c0-8.8,7.2-16,16-16h80c8.8,0,16,7.2,16,16l0,0H320z"/>
<path style="fill:#37474F;" d="M432,328H320c-2.208,0-4-1.792-4-4c0-11.032,8.968-20,20-20h80c11.032,0,20,8.968,20,20
	C436,326.208,434.208,328,432,328z M324.688,320h102.624c-1.648-4.656-6.096-8-11.312-8h-80
	C330.784,312,326.336,315.344,324.688,320z"/>
<path style="fill:#78909C;" d="M428,404H316c-11.2,0-20-8.8-20-20v-40c0-11.2,8.8-20,20-20h112c11.2,0,20,8.8,20,20v40
	C448,395.2,439.2,404,428,404z"/>
<path style="fill:#37474F;" d="M428,408H316c-13.464,0-24-10.536-24-24v-40c0-13.464,10.536-24,24-24h112c13.464,0,24,10.536,24,24
	v40C452,397.464,441.464,408,428,408z M316,328c-8.968,0-16,7.032-16,16v40c0,8.968,7.032,16,16,16h112c8.968,0,16-7.032,16-16v-40
	c0-8.968-7.032-16-16-16H316z"/>
<polygon style="fill:#78909C;" points="112,345.6 80,364 112,382.4 "/>
<path style="fill:#37474F;" d="M112,386.4c-0.688,0-1.376-0.176-1.992-0.528l-32-18.4C76.768,366.76,76,365.432,76,364
	s0.768-2.76,2.008-3.472l32-18.4c1.232-0.712,2.752-0.72,4,0.008c1.232,0.712,2,2.032,2,3.464v36.8c0,1.432-0.76,2.752-2,3.464
	C113.384,386.216,112.688,386.4,112,386.4z M88.024,364L108,375.488V352.52L88.024,364z"/>
<g>
</g>
<g>
</g>
<g>
</g>
<g>
</g>
<g>
</g>
<g>
</g>
<g>
</g>
<g>
</g>
<g>
</g>
<g>
</g>
<g>
</g>
<g>
</g>
<g>
</g>
<g>
</g>
<g>
</g>
</svg>
