<svg xmlns="http://www.w3.org/2000/svg" enable-background="new 0 0 500 500" viewBox="0 0 500 500"><g><path fill="#D0E0F4" d="M438.82,326.59c3.24,26.12-4.99,56.59-16.35,75.18c-0.8,1.3-372.78-2.91-372.78-2.91S25,371.91,21.66,323.3
		c-3.36-48.61,65.83-41.67,70.29-75.81c4.47-34.14-29.01-39.93-27.34-79.28c2.33-54.76,76.46-58.16,115.28-50
		c30.73,6.46,63.43,18.45,95.72,12.38c22.85-4.29,42.88-17.75,65.46-23.24c44.05-10.71,78.62,17.91,69.71,63.67
		c-3.15,16.2-11.83,29.3-23.04,41.07c-7.56,7.94-18.8,15.97-21.2,27.34c-0.51,2.34-0.58,4.81-0.12,7.48
		c3.76,21.63,37.46,25.8,56.55,44.44c0.2,0.2,0.39,0.39,0.59,0.59C432.77,301.18,437.24,313.86,438.82,326.59z"/><circle cx="249.21" cy="108.67" r="10.68" fill="#D0E0F4"/><circle cx="433.29" cy="143.04" r="4.91" fill="#D0E0F4"/><circle cx="61.58" cy="244.92" r="4.91" fill="#D0E0F4"/><circle cx="40.07" cy="178.01" r="4.91" fill="#D0E0F4"/><g><g><path fill="none" stroke="#FFF" stroke-miterlimit="10" stroke-width=".945" d="M348.17,212.74l-49.66,0
				c-1.86,0-3.37-1.51-3.37-3.37v-28.11c0-1.86,1.51-3.37,3.37-3.37l49.66,0c1.86,0,3.37,1.51,3.37,3.37v28.11
				C351.54,211.23,350.03,212.74,348.17,212.74z"/><polyline fill="none" stroke="#FFF" stroke-miterlimit="10" stroke-width=".945" points="348.02 180.61 323.13 199.6 298.67 180.61"/><line x1="318.03" x2="303.12" y1="195.73" y2="207.25" fill="none" stroke="#FFF" stroke-miterlimit="10" stroke-width=".945"/><line x1="343.57" x2="328.5" y1="207.25" y2="195.53" fill="none" stroke="#FFF" stroke-miterlimit="10" stroke-width=".945"/></g></g><g><g><g><g><g><path fill="#163687" d="M80.53,339l0.32,0.74c0.04-0.02,4.03-1.7,7.89,0.58c4.05,2.39,6.53,8.08,7.38,16.9
							c1.5,15.59,1.88,21.89,1.95,24.38h0.81c-0.08-2.55-0.46-8.92-1.95-24.46c-0.88-9.11-3.49-15.01-7.79-17.53
							C84.92,337.13,80.71,338.91,80.53,339z"/></g></g><g><g><g><path fill="#89B2F9" d="M50.56,353.37c0.13,1.69,0.71,3.68,1.56,5.79c0.29-1.17,0.82-2.39,1.7-3.56
								c3.75-5,9.99-9.46,12.94-6.6c2.94,2.86-5.98,3.93-7.68,9.91c-0.86,3.05-2.31,5.47-3.14,7.83
								c3.64,6.18,10.22,14.32,10.22,14.32s-0.21-5.73,3.02-9.61c1.15-1.38,2.17-2.87,3.09-4.41c0.42-0.7,0.98-1.63,1.71-2.95
								c2.68-4.82,0.45-12.94,4.64-12.4c2.57,0.33,2.66,6.88,2.34,11.91c3-1.62,5.99-4.16,8.67-7.16
								c-0.5-5.83-6.26-10.84-4.32-12.33c1.47-1.13,5.1,4.23,7.55,8.31c6.07-8.42,9.37-18.48,5.21-22.32
								c-6.83-6.29-18.34,8.17-18.34,8.17s-2.81-9.77-13.52-8.57c-7.62,0.86-12.67,8.16-14.7,15.38c0.87-0.67,2.19-1.44,4.17-2.13
								c5.08-1.78,10.8-3.93,11.6-1.07c0.8,2.85-7.68,3.21-11.78,4.91c-2.26,0.93-3.76,1.41-4.86,2.73v0
								C50.5,350.86,50.47,352.16,50.56,353.37z M85.73,339.08c0.14-1.51,2.28-2.98,4.35-3.01c2.07-0.03,4.75,0.54,4.52,2.21
								c-0.24,1.7-3.38,1.67-5.26,1.57C87.47,339.74,85.6,340.58,85.73,339.08z M69.9,337c0.73-1.07,3.05-0.2,3.92,0.1
								c0,0,3.38,2.38,1.04,2.51C72.51,339.74,69.17,338.07,69.9,337z"/></g></g></g><g><path fill="#163687" d="M66.83,364.52c2.58-12.92,12.96-26.03,13.07-26.16l-0.32-0.25c-0.11,0.13-10.55,13.31-13.15,26.33
						L66.83,364.52z"/></g></g><g><g><g><path fill="#163687" d="M99.53,325.97c0.24,2.64,0.47,7.09,0.69,12.48c0.02,0.61,0.05,1.23,0.08,1.86
							c0.69,18.28,1.19,45.77,1.33,53.77h0.81c-0.14-7.71-0.6-33.57-1.26-51.81c-0.02-0.74-0.05-1.46-0.08-2.17
							c-0.23-6.17-0.49-11.28-0.76-14.21c-0.35-3.86,0.3-6.36,1.96-7.42c2.66-1.72,7.13,0.79,7.18,0.81l0.4-0.7
							c-0.2-0.11-4.94-2.77-8.01-0.79C99.93,319.04,99.15,321.79,99.53,325.97z"/></g></g><g><g><g><path fill="#89B2F9" d="M127.4,311.26L127.4,311.26c-1.28-0.35-2.43,0.02-4.27,0.43c-3.33,0.75-8.82,4.27-9.58,2.12
								c-0.76-2.15,3.78-3.33,7.77-4.45c1.56-0.44,2.72-0.54,3.57-0.5c-4.47-3.65-10.87-6.01-16.05-3.18
								c-7.27,3.97-4.72,11.36-4.72,11.36s-13.63-4.01-15.15,2.97c-0.92,4.25,5.6,9.12,13.14,11.74c-0.26-3.65-0.35-8.62,1.08-8.56
								c1.88,0.08,0.47,5.78,2.73,9.67c3.01,0.7,6.01,0.98,8.62,0.67c-2.42-3.03-5.26-7.19-3.79-8.53c2.4-2.19,4.59,3.9,8.4,5.75
								c1.04,0.51,1.8,0.84,2.38,1.1c1.26,0.56,2.56,1.04,3.89,1.41c3.74,1.02,6.15,4.71,6.15,4.71s0.55-8.03,0.1-13.52
								c-1.57-1.12-3.54-2-5.43-3.54c-3.71-3.01-9.8,0.26-9.21-2.84c0.59-3.1,6.49-3.05,11.06-1.56c1.07,0.35,1.94,0.88,2.64,1.49
								c-0.4-1.7-0.91-3.21-1.58-4.33C128.69,312.86,128.09,312.05,127.4,311.26z M98.79,322.29c-1.13,0.89-3.1,2.3-4,1.33
								c-0.89-0.95,0.55-2.49,1.87-3.39c1.32-0.9,3.32-0.92,4.07-0.03C101.47,321.1,99.92,321.4,98.79,322.29z M107.8,315.74
								c-1.53,0.95-0.46-2.04-0.46-2.04c0.41-0.57,1.48-2.14,2.42-1.79C110.7,312.26,109.33,314.79,107.8,315.74z"/></g></g></g><g><path fill="#163687" d="M128.61,331.16c0.05,0,0.09-0.02,0.13-0.05c0.09-0.07,0.1-0.2,0.02-0.28
						c-3.21-3.79-7.15-5.54-10.97-7.23c-1.18-0.52-2.4-1.06-3.55-1.64c-4.79-2.43-9.79-5-9.79-5c-0.1-0.05-0.22-0.01-0.27,0.09
						c-0.05,0.1-0.01,0.22,0.09,0.27c0,0,5,2.57,9.79,5c1.16,0.59,2.38,1.13,3.56,1.65c3.77,1.67,7.68,3.4,10.82,7.12
						C128.5,331.13,128.56,331.16,128.61,331.16z"/></g></g></g><path fill="#163687" d="M109.11,399.22H92.59c-2.6,0-4.7-2.11-4.7-4.7V377.9h25.93v16.61
			C113.82,397.11,111.71,399.22,109.11,399.22z"/></g><g><g><g><path fill="#89B2F9" stroke="#89B2F9" stroke-miterlimit="10" stroke-width=".814" d="M130.32,123.56
					c16.92,8.17,16.47,30.63,13.98,48.27H93.1c-2.96-13.11-0.91-29.46,7.21-40.45c4.69-6.35,12.34-10.06,20.06-10.06
					C123.75,121.31,127.16,122.03,130.32,123.56z"/><path fill="#FFF" stroke="#89B2F9" stroke-miterlimit="10" stroke-width=".814" d="M309.77,197.86
					c-7.57,33.76-14.61,68.27-18.57,102.67c-3.76,32.68-7.75,87.56-8.01,97.22H117.75c-0.03-0.32-0.05-0.65-0.06-0.97
					c-0.83-16.05,3.45-88.66,8.37-120.02c4.97-31.69,10.78-62.99,16.52-94.51c0.56-3.12,1.17-6.66,1.72-10.4
					c2.5-17.65,2.95-40.11-13.97-48.28c-3.17-1.51-6.58-2.24-9.97-2.24H290.6c3.45-0.02,6.91,0.7,10.12,2.24
					c4.98,2.41,8.7,6.49,11.08,11.42C320.8,153.63,314.05,178.77,309.77,197.86z"/><g><polygon fill="#D0E0F4" points="287.63 200.53 167.99 200.53 168.75 196.48 288.39 196.48"/><polygon fill="#89B2F9" points="280.66 237.45 161.03 237.45 161.79 233.41 281.43 233.41"/><polygon fill="#D0E0F4" points="284.15 218.99 164.51 218.99 165.27 214.94 284.91 214.94"/><polygon fill="#D0E0F4" points="277.18 255.92 157.54 255.92 158.31 251.87 277.95 251.87"/><polygon fill="#D0E0F4" points="270.22 292.84 150.58 292.84 151.34 288.8 270.98 288.8"/><polygon fill="#89B2F9" points="273.7 274.38 154.06 274.38 154.83 270.33 274.46 270.33"/><polygon fill="#89B2F9" points="196.33 319.12 147.14 319.12 147.9 315.08 197.1 315.08"/><polygon fill="#D0E0F4" points="189.37 356.05 144.87 356.05 145.64 352 190.13 352"/><polygon fill="#D0E0F4" points="192.85 337.59 146.01 337.59 146.77 333.54 193.61 333.54"/><polygon fill="#D0E0F4" points="265.88 319.12 215.2 319.12 215.99 315.08 266.66 315.08"/><polygon fill="#D0E0F4" points="258.7 356.05 208.03 356.05 208.81 352 259.49 352"/><polygon fill="#89B2F9" points="262.29 337.59 211.61 337.59 212.4 333.54 263.08 333.54"/></g><g><text fill="#DD4E6A" font-family="'Poppins-Bold'" font-size="28.069" transform="matrix(.9917 0 -.1287 .9917 191.771 168.19)">NEWS</text></g></g></g></g><g><g><path fill="#163687" d="M446.81,399.28L446.81,399.28c-1.19,0.31-2.39-0.46-2.6-1.66l-10.9-52.96l7-3.51l8.06,55.92
				C448.46,398.09,447.8,399.02,446.81,399.28z"/><path fill="#163687" d="M397.19,398.11l0.93-53.25l-7.32,0.95l1.86,52.16c0.03,0.57,0.48,1.03,1.05,1.07l2.27,0.16
				C396.62,399.26,397.17,398.76,397.19,398.11z"/><path fill="#163687" d="M285.32,342.78l-5.82,53.91c-0.12,0.69,0.42,1.32,1.12,1.32h1.27c0.52,0,0.98-0.36,1.1-0.87l8.07-52.77
				L285.32,342.78z"/><path fill="#163687" d="M342.48,334.72l1.11,62.12c0.02,0.68,1.13,1.2,2.35,1.1l0,0c1-0.08,1.75-0.55,1.77-1.1l1.12-61.8"/><path fill="#EDA93B" d="M312.35,290.72l-54.11,0.42l10.18,47.53l47.95-4.24c0,0,2.39-27.5,1.49-34.8
				C316.75,290.67,312.35,290.72,312.35,290.72z"/><path fill="#163687" d="M312.35,290.72l-54.11,0.42l10.18,47.53l47.95-4.24c0,0,2.39-27.5,1.49-34.8
				C316.75,290.67,312.35,290.72,312.35,290.72z" opacity=".2"/><path fill="#EDA93B" d="M303.86,319.47c0,0,13.79-61.85,32.04-67.37c18.25-5.52,122.68,2.33,122.96,2.53
				c10.74,8.05-17.23,67.54-17.23,67.54L303.86,319.47z"/><path fill="#163687" d="M457.77,254.64c6.15,0,9.42,10.24,6.24,31.42c-1.59,10.59-9.43,35.68-9.43,35.68l-12.85,0.17
				c0,0,3.67-37.28,6.79-48.16C453.88,255.05,457.77,254.64,457.77,254.64z"/><polygon fill="#EDA93B" points="272.04 323.61 304.18 318.36 426.35 320.11 410.12 344.62 314.05 353.85 283.5 349.39 269.17 333.8"/><polygon fill="#163687" points="272.04 323.61 304.18 318.36 426.35 320.11 410.12 344.62 314.05 353.85 283.5 349.39 269.17 333.8" opacity=".2"/><line x1="272.04" x2="304.18" y1="323.61" y2="318.36" fill="none" stroke="#163687" stroke-miterlimit="10" stroke-width=".339"/><path fill="#163687" d="M459.29,298.36l-34.09-3.57l-25.3,62.09l35.96-4.3c7.46-1.08,13.76-6.09,16.48-13.12l11.91-30.74
				C466.01,304.48,463.7,299.65,459.29,298.36z"/><path fill="#EDA93B" d="M304.08,341.22c-8.91-0.09-20.26-1.38-26.95-5.83s-8.17-44.24-18.88-44.24
				c-10.72,0-4.67,33.42,0.42,46.15c5.09,12.73,11.67,21.32,31.83,21.96c19.43,0.61,105.09,1.91,111.56-3.18
				c13.31-10.48,19.26-21.38,25.89-33.95c8.27-15.7,5.21-25.85-2.75-27.34c-8.03-1.5-22.13,39.33-30.99,44.73
				C390.51,341.78,311.04,341.29,304.08,341.22z"/><path fill="none" stroke="#163687" stroke-miterlimit="10" stroke-width=".339" d="M425.2,294.79
				c-8.03-1.5-22.13,39.33-30.99,44.73"/></g><g><g><g><g><path fill="#163687" d="M412.42,218.6c2,3.74,4.34,7.35,5.66,11.38c1.32,4.06,1.47,8.76-0.82,12.37
							c-2.63,4.14-8,5.93-12.88,5.43s-9.36-2.92-13.43-5.65c-4.95-3.32-9.53-7.19-13.64-11.5c-1.71-1.8-3.87-3.74-4.82-6.05
							c-1.03-2.5-1.7-5.44-2.55-8.04c-3.33-10.25-5.4-21.41,0.63-31.1c2.93-4.7,9.61-6.12,14.8-6.26c7.45-0.2,13.48,1.72,16.67,8.86
							c1.89,4.24,2.68,8.75,3.76,13.23c1.45,6,3.66,11.82,6.57,17.26C412.39,218.55,412.41,218.57,412.42,218.6z"/></g><path fill="#F2B1AF" d="M400.57,227.53l-1.85,4.36c0,0-4.7,7.1-4.84,7.08s-17.68-4.22-17.68-4.22l4.63-8.8l0.66-14.39
						l15.24-4.23l0.15-0.05c0,0,0.1,7.08,1.44,12.61c0.32,1.31,1.36,5.08,1.36,5.08L400.57,227.53z"/><path fill="#F2B1AF" d="M396.82,194.98c0,0,1.19,27.98-11.75,30.34c-5.76,1.05-10.57-6.31-12.66-14.16
						c-2.45-9.23-1.65-19.3-1.65-19.3l17.83-10L396.82,194.98z"/><path fill="none" stroke="#163687" stroke-miterlimit="10" stroke-width=".339" d="M392.06,220.1
						c-1.68,2.69-3.94,4.66-6.98,5.22c-0.71,0.13-1.41,0.13-2.08,0.02"/><ellipse cx="375.62" cy="207.15" fill="#163687" rx="1.06" ry="1.28" transform="rotate(-26.824 375.671 207.145)"/><path fill="#163687" d="M398.8,202.08c-1.55-3.65-5.94-4.4-9.57-4.83c-7.24-0.85-9.84-6.75-9.84-6.75s-1.33,11.88-9.19,10.97
						c0,0-3.3-20.34,12.87-20.77C402.76,180.18,398.8,202.08,398.8,202.08z"/><g><g><path fill="none" stroke="#163687" stroke-miterlimit="10" stroke-width=".339" d="M380.61,210.91l-0.07,1.53
								c-0.03,0.67,0.56,1.2,1.22,1.09l0.31-0.05"/><path fill="#163687" d="M383.6,201.88c0,0,2.8-1.35,5.1,0.03L383.6,201.88z"/><path fill="#163687" d="M376.88,203.16c0,0-2.4-0.56-4.44,1.53L376.88,203.16z"/></g></g><path fill="#F2B1AF" d="M397.05,200.78c0,0,4.94-0.82,4.56,3.25c-0.38,4.06-5.59,6.87-5.59,6.87L397.05,200.78z"/><path fill="#163687" d="M398.56,202.9c0,0,4.19-0.69-0.75,3.97L398.56,202.9z"/><path fill="#163687" d="M399.33,199.63c0,0-0.58,0.32-1.4,1.68c-0.83,1.36-1.77,7.82-2.2,7.79c-0.43-0.03,0.01-9.24-6.32-13.54
						c-6.33-4.31,3.55-4.82,3.55-4.82s5.21,3.68,5.24,4.11S399.33,199.63,399.33,199.63z"/><path fill="#163687" d="M375.47,205.9c0,0-1.66-0.03-2.49,1.56c0,0,1.19-0.8,2.11-0.84L375.47,205.9z"/><ellipse cx="385.65" cy="205.95" fill="#163687" rx="1.28" ry="1.05" transform="rotate(-85.164 385.671 205.953)"/><path fill="#FFF" d="M380.04,218.29c0,0,2.75,2.44,6.01-0.87L380.04,218.29z"/><path fill="#163687" d="M385.31,204.73c0,0,1.53-0.67,2.9,0.49c0,0-1.4-0.29-2.27,0.04L385.31,204.73z"/></g></g><g><path fill="#F2B1AF" d="M363.48,263.02c0,0-0.55,33.8-7.83,32.72c-15.22-2.25-19.5-47.14-19.5-47.14l9.21-6.25l6.33,19.98
					L363.48,263.02z"/><path fill="#4B6FDD" d="M359.84,229.81c0,0-4.6,3.85-6.14,12.28c-1.53,8.43-2,20.25-2,20.25s8.68,0.89,13.15,0.64
					c4.47-0.26,7.79-20.3,7.79-20.3L359.84,229.81z"/><path fill="#F2B1AF" d="M413.91,228.57c-1.57,2.39-11.17,16.09-25.22,16.88c-13.31,0.75-20.82-13.35-22.6-17.16
					c4.75-1.08,11.08-2.33,14.75-2.33c0,0,2.36,9.12,8.3,8.07c5.94-1.06,10.59-8.72,10.59-8.72S407.5,226.14,413.91,228.57z"/><path fill="#DD4E6A" d="M403.33,225.76c0,0-0.36,14.26-0.36,19.36s0.8-0.26,0.8-0.26s0.45-17.99,0.54-18.7
					C404.39,225.47,403.33,225.76,403.33,225.76z"/><path fill="#DD4E6A" d="M373.55,226.6c0,0,0.5,14.26,0.5,19.36c0,5.11-1.09-0.26-1.09-0.26s-0.6-17.79-0.72-18.5
					S373.55,226.6,373.55,226.6z"/><path fill="#4B6FDD" d="M419.03,231.09c0,0-1.46,37.31-2.41,46.12c-0.96,8.8-5.37,44.43-11.49,46.92c0,0-9.79-10.6-26.06-14.43
					c-16.28-3.83-27.37-7.01-27.37-7.01s3.83-6.61,5.18-9.19c1.34-2.59,0.96-6.51,2.68-8.72c1.72-2.2,0.86-8.42,0.19-11.58
					c-0.67-3.16-2.3-11.02-0.38-17.72c1.91-6.7,0.47-25.67,0.47-25.67s2.57-1.31,6.26-1.52c1.78,3.81,8.98,14.81,22.29,14.07
					c14.05-0.79,23.95-11.39,25.52-13.78C417.13,228.95,417.54,230.11,419.03,231.09z"/><path fill="none" stroke="#163687" stroke-miterlimit="10" stroke-width=".339" d="M364.53,230.38c0,0,6.01,15.39,22.22,15.07
					s28.72-13.59,28.72-13.59"/><path fill="none" stroke="#163687" stroke-miterlimit="10" stroke-width=".339" d="M360.35,236.01c0,0,0.92,12.76-1,19.46
					c-0.53,1.86-0.79,3.81-0.87,5.72"/><path fill="#F2B1AF" d="M429.03,263.02c0,0,6.19,32.25,2.23,38.51c-2.56,4.06-45.7,3.65-45.7,3.65l-0.55-7.98l29.88-6.58
					l-2.81-23.42L429.03,263.02z"/><g><g><path fill="#F2B1AF" d="M385.72,297.17c0,0-3.13-0.47-5.27-1.1s-4.49-1.15-5.83-0.54c-1.34,0.61-9.18,5.75-7.37,7.32
							c0,0-1.47,1.79-0.18,2.7c0,0-0.28,0.79,0.56,1.43c0.85,0.64,3.57-3.23,5.21-3.74c1.64-0.51,4.17-0.98,4.17-0.98
							s-3.17,2.23-3.85,2.66c-0.68,0.43-2.38,2.23-2,2.78s2.91-1.91,4.35-2.54s2.96-1.5,3.97-0.94c1.01,0.56,2.63,1.89,4.39,1.46
							c1.76-0.43,3.2-1.12,3.2-1.12L385.72,297.17z"/></g><path fill="none" stroke="#163687" stroke-miterlimit="10" stroke-width=".172" d="M367.07,305.56c0,0,3.4-3.56,4.98-4.15
						s4.75-1.19,4.75-1.19"/><path fill="none" stroke="#163687" stroke-miterlimit="10" stroke-width=".172" d="M367.26,302.86c0,0,2.92-2.79,4.35-3.45
						s4.33-1.37,4.33-1.37"/></g><path fill="#4B6FDD" d="M419.03,231.1c0,0,5.51,2.83,9.47,18.95c2.9,11.82,3.34,18.3,3.34,18.3s-12.92,5.04-19.44,3.69
					c-6.51-1.34-4.4-30.83-4.4-30.83L419.03,231.1z"/><path fill="none" stroke="#163687" stroke-miterlimit="10" stroke-width=".339" d="M351.7,262.33c0,0,1.15,3.67,3.27,8.1
					c1.14,2.38,3.62,4.95,4,8.69"/></g><g><path fill="#F2B1AF" d="M310.14,324.77c0,0,15.23,7.63,18,8.81c2.78,1.18,9.58,2.62,12.64,4.05c3.06,1.44,9.67,2.67,14.46,2.1
					c4.79-0.57,5.3-1.4,4.37-3c-0.93-1.59-8.59-6-11.08-6s-8.91-4.79-8.91-4.79l-18.98-11.2l-11.09,2.36L310.14,324.77z"/><path fill="#163687" d="M351.7,302.68c0,0-71.12-21.07-79.16-15.83s-8.3,16.34-2.81,20.81c5.49,4.47,39.12,21.07,39.12,21.07
					s4.55-13.92,15.78-11.62l12.67,8.05l27.41-19.86L351.7,302.68z"/><path fill="none" stroke="#D0E0F4" stroke-miterlimit="10" stroke-width=".339" d="M324.63,317.11c0,0-8.65-4.95-12.48-8.11
					c-3.83-3.16-15.03-12.54-23.65-15.51"/></g><g><polygon fill="#163687" points="296.29 260.09 311.1 304.91 369.57 310.53 354.51 264.82"/><polygon fill="#89B2F9" points="294.37 260.09 309.18 304.91 367.66 310.53 352.59 264.82"/><polygon fill="#163687" points="367.66 310.53 399.32 311.93 399.32 309.63 364.72 308.1"/></g><path fill="#F2B1AF" d="M283.57,318.23c-2.97,0.1-4.17,4.46-3.79,7.24c0.38,2.78,5.65,5.23,9.58,5.75
				c3.93,0.51,4.31,2.2,9.58,2.87c5.27,0.67,9.19,4.4,15.32,3.83c6.13-0.57,17.14-2.49,17.14-2.49l-9.45-13.34l-9.36,4.59
				c0,0-2.11-0.63-6.76-1.2c-4.64-0.57-7.99-2.24-12.62-4.64C288.57,318.43,283.57,318.23,283.57,318.23z"/><path fill="#163687" d="M405.13,324.13c0,0-9,16.34-26.75,15.58s-26.68-6.13-26.68-6.13s-17.75,3.7-20.81,3.7
				c-3.06,0-12.77-7.66-8.94-15.19c0,0,34.17-21.32,41.15-22.73c6.98-1.4,19.95,9.63,19.95,9.63s10.08,3.87,14.59,7.84
				C402.14,320.8,405.13,324.13,405.13,324.13z"/><line x1="383.05" x2="393.57" y1="308.99" y2="320.68" fill="none" stroke="#163687" stroke-miterlimit="10" stroke-width=".339"/><path fill="none" stroke="#D0E0F4" stroke-miterlimit="10" stroke-width=".339" d="M351.7,333.58c0,0,13.92-2.81,18.39-8.81"/><line x1="321.95" x2="312.58" y1="322.09" y2="326.67" fill="none" stroke="#163687" stroke-miterlimit="10" stroke-width=".203"/><line x1="353.12" x2="327.72" y1="303.82" y2="318.75" fill="none" stroke="#D0E0F4" stroke-miterlimit="10" stroke-width=".339"/><line x1="412.41" x2="410.65" y1="272.04" y2="256.41" fill="none" stroke="#163687" stroke-miterlimit="10" stroke-width=".339"/><g><g><path fill="#F2B1AF" d="M345.36,242.35c0,0,0.28-3.47,0.97-4.78s0.76-4.78,1.66-5.62s3.67-4.16,2.29-5.41s-4.92,3.95-6.86,4.23
						s-5.96-0.76-6.93,0.21c-0.97,0.97-3.67,5.96-3.54,8.87c0.14,2.91,0.55,5.82,1.8,7c1.25,1.18,1.66,5.13,1.87,5.06
						s9.08-3.26,9.08-3.88S345.36,242.35,345.36,242.35z"/></g><g><g><path fill="#163687" d="M349.08,223.8l-0.44,4.72l-0.44,4.65l-0.54,5.77l0,0c-0.03,0.29-0.24,0.53-0.51,0.61
							c-1,0.3-3.07,0.5-5.46,0.48c-2.4-0.02-4.47-0.25-5.46-0.57c-0.28-0.09-0.47-0.33-0.5-0.62l-0.45-5.79l-0.36-4.66l-0.37-4.72
							L349.08,223.8z"/><g><path fill="#DD4E6A" d="M333.94,223.95L333.94,223.95l0.43-0.65l0.33,0.15c1.29-0.51,3.99-0.85,7.12-0.83
								c3.13,0.02,5.82,0.41,7.11,0.94l0.33-0.14l0.42,0.66l0,0c0.03,0.06,0.06,0.12,0.06,0.18c-0.01,0.87-3.56,1.55-7.94,1.51
								c-4.38-0.03-7.92-0.77-7.91-1.64C333.88,224.07,333.91,224.01,333.94,223.95z"/><ellipse cx="341.82" cy="223.29" fill="#163687" rx="1.12" ry="7.48" transform="matrix(.008 -1 1 .008 115.8 563.307)"/></g><g><path fill="#DD4E6A" d="M337.06,223.01L337.06,223.01l0.26-0.31l0.2,0.07c0.78-0.24,2.41-0.4,4.31-0.38
								c1.89,0.02,3.52,0.2,4.3,0.45l0.2-0.07l0.25,0.31l0,0c0.02,0.03,0.03,0.06,0.03,0.09c0,0.41-2.15,0.73-4.8,0.71
								c-2.65-0.02-4.79-0.37-4.79-0.78C337.02,223.07,337.04,223.04,337.06,223.01z"/><ellipse cx="341.82" cy="222.81" fill="#163687" rx=".7" ry="4.53" transform="matrix(.008 -1 1 .008 116.282 562.837)"/></g><path fill="#DD4E6A" d="M348.64,228.52l-0.44,4.65c-1.44,0.39-3.8,0.63-6.47,0.61c-2.67-0.02-5.03-0.3-6.47-0.72l-0.36-4.66
							c1.37,0.48,3.93,0.82,6.86,0.85C344.7,229.28,347.26,228.98,348.64,228.52z"/></g><g><path fill="#F2B1AF" d="M334.3,228.8c0.33-0.13,2.6,0,3.88,0.83c1.28,0.83,3.12,1.35,2.81,2.5c-0.31,1.14-3.05,0.94-3.05,0.94
							s1.46,0.49,2.98,0.66c1.53,0.17,3.5,0.42,3.5,1.91c0,1.49-3.74,1.18-4.85,1.18s-4.85-0.14-4.85-0.14s4.33,1.21,5.48,1.35
							c1.14,0.14,5.1,0,5.13,0.97s-1.11,1.77-3.12,1.8c-2.01,0.03-4.33-0.07-4.33-0.07s4.26,0.52,4.26,1.46
							c0,0.94-1.39,1.11-3.02,1.21s-3.61,0.9-4.85,0.38s-2.63-2.3-2.43-3.48c0,0-0.59-3.09,0.69-4.3c0,0,0.34-3.19,1.48-3.74
							C334.02,232.25,332.78,229.39,334.3,228.8z"/><path fill="none" stroke="#163687" stroke-miterlimit="10" stroke-width=".203" d="M341,232.13
							c-0.31,1.14-3.05,0.94-3.05,0.94s1.46,0.49,2.98,0.66c1.53,0.17,3.5,0.42,3.5,1.91c0,1.49-3.74,1.18-4.85,1.18
							s-4.85-0.14-4.85-0.14s4.33,1.21,5.48,1.35c1.14,0.14,5.1,0,5.13,0.97s-1.11,1.77-3.12,1.8c-2.01,0.03-4.33-0.07-4.33-0.07
							s4.26,0.52,4.26,1.46c0,0.94-1.39,1.11-3.02,1.21s-3.61,0.9-4.85,0.38"/><path fill="none" stroke="#163687" stroke-miterlimit="10" stroke-width=".203" d="M337.95,233.06c0,0-1.96-0.18-2.61-0.39
							c-0.65-0.21-1.32-0.42-1.32-0.42"/><path fill="none" stroke="#163687" stroke-miterlimit="10" stroke-width=".203" d="M337.88,240.72c0,0-1.69,0.06-2.98-0.13
							c-1.29-0.18-3.05-0.3-3.05-0.3"/></g></g></g><path fill="none" stroke="#163687" stroke-miterlimit="10" stroke-width=".339" d="M414.9,290.61c0,0,5.9-1.3,9.48,0"/></g></g><g><g><path fill="#89B2F9" d="M387.86,170.85h-46.19c-2.4,0-4.34-1.94-4.34-4.34v-29.03c0-2.4,1.94-4.34,4.34-4.34h46.19
				c2.4,0,4.34,1.94,4.34,4.34v29.03C392.2,168.9,390.25,170.85,387.86,170.85z"/><g><path fill="none" stroke="#FFF" stroke-miterlimit="10" stroke-width="1.384" d="M379.82,162.56l-30.11,0
					c-1.13,0-2.04-0.91-2.04-2.04v-17.05c0-1.13,0.91-2.04,2.04-2.04h30.11c1.13,0,2.04,0.91,2.04,2.04v17.05
					C381.86,161.64,380.95,162.56,379.82,162.56z"/><polyline fill="none" stroke="#FFF" stroke-miterlimit="10" stroke-width="1.384" points="378.16 143.92 364.65 154.23 351.37 143.92"/><line x1="361.87" x2="353.78" y1="152.13" y2="158.38" fill="none" stroke="#FFF" stroke-miterlimit="10" stroke-width="1.384"/><line x1="375.75" x2="367.56" y1="158.38" y2="152.02" fill="none" stroke="#FFF" stroke-miterlimit="10" stroke-width="1.384"/></g></g><g><circle cx="389.64" cy="135.44" r="7.54" fill="#DD4E6A"/><g><path fill="#FFF" d="M389.25,133.4h-0.98v-1.57h2.74v7.21h-1.76V133.4z"/></g></g></g><g><g><path fill="#D0E0F4" d="M474.76,190.67h-37.16c-2.05,0-3.71,1.66-3.71,3.7v22.32c0,2.05,1.67,3.7,3.71,3.7h4.5
				c0.18,2.96-0.3,6.01-2.29,8.13c0,0,8.55-2.26,12.69-8.13h22.27c2.05,0,3.7-1.66,3.7-3.7v-22.32
				C478.46,192.33,476.8,190.67,474.76,190.67z M448.02,209.26c-1.92,0-3.49-1.56-3.49-3.49c0-1.92,1.57-3.48,3.49-3.48
				c1.92,0,3.48,1.56,3.48,3.48C451.5,207.7,449.94,209.26,448.02,209.26z M464.33,209.26c-1.92,0-3.49-1.56-3.49-3.49
				c0-1.92,1.57-3.48,3.49-3.48c1.92,0,3.48,1.56,3.48,3.48C467.81,207.7,466.25,209.26,464.33,209.26z"/></g><g><path fill="#EDA93B" d="M459.8,170.36h-37.16c-2.05,0-3.71,1.66-3.71,3.7v22.32c0,2.05,1.67,3.7,3.71,3.7h4.5
				c0.18,2.96-0.3,6.01-2.29,8.13c0,0,8.55-2.26,12.69-8.13h22.27c2.05,0,3.7-1.66,3.7-3.7v-22.32
				C463.5,172.02,461.84,170.36,459.8,170.36z M433.06,188.95c-1.92,0-3.49-1.56-3.49-3.49c0-1.92,1.57-3.48,3.49-3.48
				c1.92,0,3.48,1.56,3.48,3.48C436.54,187.39,434.98,188.95,433.06,188.95z M449.37,188.95c-1.92,0-3.49-1.56-3.49-3.49
				c0-1.92,1.57-3.48,3.49-3.48c1.92,0,3.48,1.56,3.48,3.48C452.85,187.39,451.29,188.95,449.37,188.95z"/></g></g><g><circle cx="128.93" cy="255.92" r="36.66" fill="#FFF" stroke="#4B6FDD" stroke-miterlimit="10" stroke-width="3.254"/><g><g><circle cx="126.13" cy="236.46" r="4.18" fill="#EDA93B"/><path fill="#EDA93B" d="M149.65,266.7l-3.55-4.26c-1.09-1.3-1.77-2.89-1.98-4.57l-1.05-8.47c-1.03-8.34-8.64-14.27-16.98-13.24
					l0,0c-8.34,1.03-14.27,8.64-13.24,16.98l1.05,8.47c0.21,1.68-0.07,3.39-0.81,4.92l-2.4,5L149.65,266.7z"/><ellipse cx="130.17" cy="269.11" fill="#EDA93B" rx="19.64" ry="4.47" transform="rotate(-7.068 130.175 269.147)"/><path fill="#163687" d="M148.02,266.9c0.22,1.78-7.59,4.22-17.44,5.44c-9.86,1.22-18.02,0.76-18.25-1.02
					c-0.18-1.5,5.26-3.45,12.83-4.76c1.47-0.25,3.01-0.49,4.61-0.68c1.74-0.22,3.44-0.38,5.04-0.49
					C142.27,264.86,147.83,265.43,148.02,266.9z"/><path fill="#DD4E6A" d="M134.81,265.38v0.05c0,2.7-2.19,4.89-4.89,4.89c-2.31,0-4.25-1.61-4.76-3.77
					c1.47-0.25,3.01-0.49,4.61-0.68C131.52,265.66,133.21,265.5,134.81,265.38z"/></g><g><circle cx="140.84" cy="246.86" r="6.73" fill="#DD4E6A"/></g><g><path fill="#FFF" d="M140.43,244.9h-0.81v-1.3h2.27v5.97h-1.46V244.9z"/></g></g></g><rect width="418.97" height="3.45" x="30.11" y="397.44" fill="#163687"/></g></svg>