<svg id="&#x421;&#x43B;&#x43E;&#x439;_1" enable-background="new 0 0 300 300" viewBox="0 0 300 300" xmlns="http://www.w3.org/2000/svg"><g><path d="m40.708 68.732c3.771 1.388 7.856 1.222 11.507-.463 3.648-1.686 6.421-4.692 7.808-8.464s1.223-7.859-.462-11.507c-1.687-3.649-4.693-6.422-8.465-7.809-1.693-.623-3.451-.933-5.203-.933-2.151 0-4.293.467-6.304 1.396-3.648 1.686-6.421 4.692-7.808 8.464s-1.223 7.859.462 11.507c1.687 3.648 4.693 6.421 8.465 7.809z" fill="#ffdd45"/><path d="m67.861 99.002c3.906-3.731 8.249-7.03 12.99-9.952-3.01-1.658-6.517-2.545-10.307-2.545-.074 0-.147.001-.221.001-6.42.057-12.832 2.6-18.054 7.16s-8.606 10.57-9.528 16.924c-.903 6.223.677 12.03 4.45 16.35.389.445.808.849 1.23 1.249 4.778-11.716 11.194-21.31 19.44-29.187z" fill="#8b6ded"/><path d="m260.411 40.952c-2.01-.929-4.155-1.396-6.304-1.396-1.752 0-3.51.31-5.203.933-3.772 1.387-6.778 4.161-8.465 7.809-1.685 3.648-1.85 7.734-.462 11.507 1.387 3.772 4.161 6.778 7.808 8.464 3.648 1.687 7.737 1.851 11.507.463 3.772-1.387 6.778-4.161 8.465-7.809 1.685-3.648 1.85-7.734.462-11.507-1.387-3.772-4.16-6.778-7.808-8.464z" fill="#ffdd45"/><path d="m262.32 36.818c-4.752-2.197-10.079-2.409-14.988-.603-4.914 1.807-8.828 5.42-11.025 10.172s-2.412 10.076-.603 14.989c1.807 4.914 5.419 8.829 10.173 11.026 2.618 1.21 5.41 1.819 8.21 1.819 1.475 0 2.95-.187 4.407-.526.563 8.158-1.461 14.482-4.9 19.392-.895-.986-1.834-1.948-2.867-2.85-10.964-9.574-26.041-10.831-36.04-3.753-16.955-9.037-37.963-13.601-62.776-13.601-27.578 0-49.559 4.489-66.589 13.6-4.206-2.996-9.39-4.588-15.04-4.529-7.506.067-14.966 3.009-21.006 8.284-1.027.897-1.968 1.859-2.869 2.849-3.439-4.909-5.463-11.233-4.9-19.39 1.456.339 2.931.526 4.407.526 2.8 0 5.593-.609 8.21-1.819 4.754-2.197 8.366-6.112 10.173-11.026 1.808-4.914 1.593-10.237-.603-14.989-2.197-4.752-6.111-8.365-11.025-10.172-4.914-1.808-10.236-1.594-14.988.603-4.754 2.197-8.366 6.112-10.173 11.026-1.808 4.914-1.593 10.237.603 14.989 1.881 4.069 5.028 7.292 8.976 9.272-.93 9.665 1.232 17.991 6.35 24.691-2.731 3.999-4.525 8.484-5.201 13.139-1.097 7.559.866 14.662 5.526 20 .901 1.032 1.899 1.934 2.939 2.77-3.689 10.356-6.227 22.26-7.703 35.993-2.707 25.169 3.7 47.199 18.53 63.709 19.152 21.323 51.79 32.593 94.384 32.593 43.095 0 75.995-11.424 95.141-33.036 14.646-16.532 20.791-38.42 17.771-63.297-1.697-13.978-4.96-26.515-9.734-37.558.388-.385.787-.756 1.152-1.173v-.001c7.799-8.933 7.548-22.48.311-33.123 5.127-6.703 7.293-15.035 6.362-24.707 3.948-1.98 7.095-5.204 8.976-9.272 2.197-4.752 2.412-10.076.603-14.989-1.808-4.916-5.42-8.831-10.174-11.028zm-230.54 12.598c1.387-3.772 4.161-6.778 7.808-8.464 2.011-.929 4.153-1.396 6.304-1.396 1.752 0 3.51.31 5.203.933 3.772 1.387 6.778 4.161 8.465 7.809 1.685 3.648 1.85 7.734.462 11.507-1.387 3.772-4.161 6.778-7.808 8.464-3.651 1.685-7.736 1.851-11.507.463-3.772-1.387-6.778-4.161-8.465-7.809-1.685-3.648-1.849-7.735-.462-11.507zm221.261 77.227c-4.715-9.655-10.675-18.067-17.869-25.17-4.79-4.728-10.127-8.874-15.997-12.436 3.075-1.683 6.609-2.528 10.285-2.528 6.209 0 12.818 2.395 18.273 7.158 10.564 9.225 12.889 23.926 5.308 32.976zm-9.397 102.303c-18.258 20.608-49.978 31.501-91.733 31.501-41.266 0-72.732-10.749-90.997-31.083-13.941-15.521-19.954-36.331-17.39-60.179 6.915-64.31 39.33-91.749 108.386-91.749 64.528 0 100.997 30.88 108.391 91.78 2.86 23.547-2.9 44.201-16.657 59.73zm-196.453-102.006c-3.772-4.32-5.352-10.127-4.45-16.35.922-6.354 4.306-12.363 9.528-16.924s11.634-7.103 18.054-7.16c.074-.001.147-.001.221-.001 3.791 0 7.297.886 10.307 2.545-4.741 2.922-9.084 6.221-12.99 9.952-8.247 7.877-14.663 17.471-19.44 29.188-.422-.4-.841-.805-1.23-1.25zm220.566-66.018c-1.687 3.649-4.693 6.422-8.465 7.809-3.769 1.388-7.859 1.224-11.507-.463-3.648-1.686-6.421-4.692-7.808-8.464s-1.223-7.859.462-11.507c1.687-3.649 4.693-6.422 8.465-7.809 1.693-.623 3.451-.933 5.203-.933 2.149 0 4.294.467 6.304 1.396 3.648 1.686 6.421 4.692 7.808 8.464 1.388 3.773 1.224 7.86-.462 11.507z" fill="#1a1861"/><path d="m247.732 93.667c-5.455-4.763-12.064-7.158-18.273-7.158-3.676 0-7.21.844-10.285 2.528 5.87 3.562 11.208 7.708 15.997 12.436 7.194 7.102 13.154 15.515 17.869 25.17 7.582-9.05 5.257-23.751-5.308-32.976z" fill="#8b6ded"/><path d="m151.911 77.436c-69.056 0-101.472 27.439-108.386 91.749-2.564 23.849 3.449 44.659 17.39 60.179 18.264 20.334 49.731 31.083 90.997 31.083 41.755 0 73.475-10.893 91.733-31.501 13.757-15.529 19.517-36.182 16.658-59.729-7.395-60.901-43.864-91.781-108.392-91.781zm42.97 155.125c-12.838 1.971-27.442 2.772-41.616 2.772-16.826 0-33.045-1.128-45.006-2.766-28.489-3.904-48.385-27.905-48.385-58.369 0-30.885 20.849-55.983 48.496-58.381 23.104-2.003 64.636-1.653 86.338-.001 27.662 2.106 48.521 27.205 48.521 58.383.001 29.993-19.88 53.993-48.348 58.362z" fill="#8b6ded"/><path d="m238.677 174.198c0-28.772-19.051-51.919-44.315-53.843-11.061-.842-27.875-1.338-44.611-1.338-15.171 0-30.275.408-40.986 1.337-25.277 2.192-44.337 25.341-44.337 53.844 0 28.125 18.278 50.272 44.448 53.857 21.722 2.975 57.683 4.244 85.314.006 26.193-4.021 44.487-26.17 44.487-53.863zm-130.709 6.565c-9.399 0-17.046-7.647-17.046-17.046 0-.812.07-1.643.219-2.615.141-.917.824-1.656 1.728-1.869l26.612-6.271c.898-.212 1.841.142 2.378.897 2.063 2.903 3.154 6.312 3.154 9.858.001 9.399-7.646 17.046-17.045 17.046zm70.35 27.359c-.852 1.012-2.099 1.593-3.42 1.593h-45.263c-1.322 0-2.569-.58-3.42-1.593-.827-.982-1.178-2.263-.96-3.514 1.891-10.934 14.009-19.83 27.011-19.83 13.004 0 25.121 8.896 27.014 19.83.217 1.251-.135 2.532-.962 3.514zm-.226-44.466c0-3.488 1.054-6.848 3.049-9.716.534-.766 1.482-1.129 2.391-.916l26.726 6.299c.91.214 1.596.963 1.731 1.888.129.892.193 1.692.193 2.445 0 9.399-7.647 17.046-17.046 17.046s-17.044-7.647-17.044-17.046z" fill="#fff"/><path d="m194.709 115.815c-21.702-1.652-63.234-2.002-86.338.001-27.647 2.398-48.496 27.496-48.496 58.381 0 30.464 19.896 54.465 48.385 58.369 11.96 1.638 28.179 2.766 45.006 2.766 14.173 0 28.778-.801 41.616-2.772 28.468-4.369 48.349-28.369 48.349-58.363-.001-31.177-20.86-56.275-48.522-58.382zm-85.832 112.24c-26.171-3.585-44.448-25.732-44.448-53.857 0-28.504 19.06-51.652 44.337-53.844 10.711-.929 25.815-1.337 40.986-1.337 16.736 0 33.551.497 44.611 1.338 25.263 1.923 44.315 25.071 44.315 53.843 0 27.693-18.294 49.842-44.487 53.863-27.631 4.238-63.592 2.969-85.314-.006z" fill="#1a1861"/><path d="m174.752 205.162c-1.469-7.657-10.405-15.829-22.486-15.829-12.095 0-21.038 8.193-22.49 15.858z" fill="#8debe3"/><path d="m152.266 184.779c-13.002 0-25.12 8.896-27.011 19.83-.218 1.25.133 2.532.96 3.514.851 1.012 2.097 1.593 3.42 1.593h45.263c1.321 0 2.567-.58 3.42-1.593.827-.983 1.178-2.263.962-3.514-1.893-10.934-14.01-19.83-27.014-19.83zm0 4.554c12.08 0 21.017 8.172 22.486 15.829l-44.976.029c1.453-7.665 10.395-15.858 22.49-15.858z" fill="#1a1861"/><path d="m120.46 163.717c0-2.095-.52-4.126-1.518-5.95l-23.458 5.529c-.006.143-.009.284-.009.422 0 6.888 5.604 12.492 12.492 12.492s12.493-5.605 12.493-12.493z" fill="#8debe3"/><path d="m119.482 152.962-26.612 6.271c-.904.213-1.587.952-1.728 1.869-.15.972-.219 1.802-.219 2.615 0 9.399 7.647 17.046 17.046 17.046s17.046-7.647 17.046-17.046c0-3.546-1.091-6.955-3.154-9.858-.538-.755-1.481-1.109-2.379-.897zm-24.006 10.755c0-.138.003-.279.009-.422l23.458-5.529c.998 1.825 1.518 3.855 1.518 5.95 0 6.888-5.604 12.492-12.492 12.492s-12.493-5.603-12.493-12.491z" fill="#1a1861"/><path d="m195.136 176.148c6.888 0 12.492-5.604 12.492-12.492 0-.091-.001-.183-.004-.276l-23.534-5.547c-.949 1.79-1.445 3.776-1.445 5.822 0 6.889 5.603 12.493 12.491 12.493z" fill="#8debe3"/><path d="m212.182 163.656c0-.753-.064-1.553-.193-2.445-.135-.925-.821-1.674-1.731-1.888l-26.726-6.299c-.909-.213-1.857.15-2.391.916-1.995 2.868-3.049 6.228-3.049 9.716 0 9.399 7.645 17.046 17.044 17.046s17.046-7.647 17.046-17.046zm-4.558-.276c.003.093.004.185.004.276 0 6.888-5.604 12.492-12.492 12.492s-12.491-5.604-12.491-12.492c0-2.046.497-4.032 1.445-5.822z" fill="#1a1861"/></g></svg>