<svg xmlns="http://www.w3.org/2000/svg" enable-background="new 0 0 3000 3000" viewBox="0 0 3000 3000"><path fill="#F2EEE7" d="M638.749,2531.091c-219.068,39.534,228.072,174.013,728.227,163.885
	c500.343,9.465,1053.7-125.677,1051.387-172.88c1.097-44.621-349.505-11.149-745.877-12.743
	C1275.626,2516.794,832.996,2489.169,638.749,2531.091z"/><path fill="#E8BDAC" d="M1751.782,2374.143c1.67,5.181,12.09,76.199,17.477,97.827c-6.158,13.423-60.532,24.719-69.331,15.164
				c-5.653-17.538-21.177-103.103-21.177-103.103L1751.782,2374.143z"/><path fill="#424A77" d="M1684.393,2560.239c8.159,3.629,183.264,0,200.501,0c17.237,0,10.582-61.995-42.641-63.202
				l-62.904-50.735c-2.812-12.419,11.783-17.253,8.376-22.832c-6.098-9.988-29.763-19.737-46.397-8.552
				c-7.732,5.198-21.271,16.787-22.272,27.638c-16.995,0.38-40.231,1.249-41.318,10.633
				C1676.225,2466.193,1676.225,2556.61,1684.393,2560.239z"/><path fill="#2C3860" d="M1679.787,2544.516c0-0.132,77.262,3.564,120.465,3.327c4.825-0.026,8.734-12.399,51.979-13.003
				c29.939-0.859,40.079,8.625,41.129,9.677c1.966,1.965,5.745,20.6-2.722,22.094c-8.468,1.495-202.964,3.323-206.247,0
				C1677.889,2560.031,1679.787,2544.516,1679.787,2544.516z"/><path fill="#37416C" d="M1758.483,2524.557c2.116-6.048,42.036-32.358,83.77-27.52c0,0-16.373-9.167-35.463-9.508
				c-4.13-0.074-47.438-40.252-54.495-37.937c-5.47,1.796,34.54,42.871,31.3,44.043
				C1754.098,2504.295,1758.483,2524.557,1758.483,2524.557z"/><path fill="#2C3860" d="M1777.544,2477.916c-0.359-0.648-5.498,1.616-13.85,4.853c-4.172,1.569-9.185,3.467-14.755,4.697
					c-2.74,0.591-5.774,1.006-8.213,0.52c-1.197-0.286-1.946-0.743-2.311-1.446c-0.428-0.662-0.568-2.038-0.376-3.335
					c0.42-5.247,7.082-7.438,12.496-8.196c5.618-0.809,10.94-0.677,15.362-0.463c4.434,0.254,8.036,0.648,10.506,0.952
					c2.526,0.298,3.705,0.509,3.89,0.389c0.591-1.025-4.943-3.562-14.002-5.003c-4.564-0.695-10.081-1.252-16.36-0.636
					c-3.13,0.327-6.492,0.984-9.872,2.64c-1.667,0.877-3.341,2.047-4.705,3.704c-1.385,1.649-2.219,3.83-2.48,5.944
					c-0.251,2.088-0.226,4.323,1.062,6.608c1.285,2.312,3.792,3.482,5.743,3.836c4.017,0.661,7.323-0.099,10.373-0.846
					c6.063-1.631,11.031-3.953,15.138-6C1773.353,2481.948,1777.888,2478.52,1777.544,2477.916z"/><path fill="#2C3860" d="M1780.198,2474.575c0.617,0.427,4.108-3.856,10.244-10.109c3.081-3.066,6.852-6.741,11.493-9.644
					c2.287-1.398,4.928-2.596,7.28-2.558c1.17,0.012,2.22,0.312,3.197,0.933c0.959,0.638,1.888,1.722,2.494,2.738
					c0.593,1.048,0.694,1.91,0.422,2.87c-0.276,0.97-1.032,2.03-1.963,2.989c-1.886,1.95-4.426,3.513-6.868,4.855
					c-4.963,2.667-9.866,4.525-13.977,6.011c-8.308,2.963-13.514,4.201-13.535,4.57c-0.054,1.084,5.844,1.09,14.585-1.039
					c4.394-1.084,9.584-2.616,15.124-5.274c2.75-1.373,5.639-2.942,8.296-5.531c1.296-1.306,2.613-2.89,3.307-5.112
					c0.741-2.213,0.317-4.955-0.816-6.831c-1.118-1.888-2.445-3.391-4.246-4.593c-1.816-1.167-4.027-1.739-6.05-1.69
					c-4.11,0.12-7.229,1.919-9.847,3.626c-5.195,3.6-8.779,7.72-11.646,11.229
					C1782.059,2469.13,1779.628,2474.196,1780.198,2474.575z"/><path fill="#424A77" d="M1676.565,1173.645l95.76,1221.114l-115.085,20.948l-328.557-1169.651
			C1328.683,1246.056,1593.961,1134.361,1676.565,1173.645z"/><path fill="#37416C" d="M1571.719,1921.5c0.069,24.673,46.932,366.299,110.612,489.661l-25.085,4.549l-328.531-1169.674
			c0,0,265.265-111.646,347.828-72.363l14.833,184.927c-68.641,55.617-184.853,181.096-180.924,230.027
			c5.513,68.229-14.129,176.292,15.368,201.86c29.429,25.568,82.978-27.636,83.115,0c0.069,27.636-87.25,33.839-47.691,48.311
			c39.489,14.474,103.446-35.147,101.448-14.472C1660.692,1845.002,1571.581,1892.554,1571.719,1921.5z"/><path fill="#E8BDAC" d="M1073.532,2370.626c-0.803,5.383-22.992,73.645-27.766,95.417c-11.477,9.294-65.214-4.721-68.857-17.189
				c2.72-18.224,26.792-101.788,26.792-101.788L1073.532,2370.626z"/><path fill="#424A77" d="M930.538,2507.466c5.7,6.874,164.217,81.353,179.663,89.005c15.445,7.652,37.003-50.854-10.154-75.562
				l-33.845-73.386c2.993-12.376,18.217-10.229,17.641-16.74c-1.031-11.657-17.91-30.898-37.779-28.259
				c-9.236,1.225-26.511,5.6-32.226,14.879c-15.398-7.204-36.604-16.74-41.743-8.813
				C964.966,2419.568,924.829,2500.588,930.538,2507.466z"/><path fill="#2C3860" d="M932.621,2491.332c0.059-0.118,25.474,39.122,135.851,73.042c4.613,1.417,24.19-1.605,41.099,5.307
				c12.787,3.609,13.954,15.05,14.429,16.459c0.889,2.633-3.997,21.009-12.247,18.589s-183.345-87.12-184.812-91.556
				C924.034,2504.392,932.621,2491.332,932.621,2491.332z"/><path fill="#37416C" d="M1034.475,2521.95c4.582-4.48,47.587-10.336,82.835,12.526c0,0-6.157-15.482-23.113-24.262
				c-3.667-1.899-24.638-57.127-31.99-58.185c-5.698-0.819,11.919,53.748,8.495,53.359
				C1039.541,2501.847,1034.475,2521.95,1034.475,2521.95z"/><path fill="#2C3860" d="M1113.702,2471.164c-1.109-1.853-2.836-3.346-4.671-4.2c-3.737-1.717-7.33-1.489-10.433-1.123
				c-6.254,0.92-11.294,3.021-15.421,4.892c-4.8,2.266-8.265,4.373-10.28,5.865c-1.782-1.88-4.463-4.236-7.986-6.74
				c-3.781-2.648-8.478-5.597-14.378-7.833c-2.949-1.095-6.254-2-10.018-2.016c-1.884,0.046-3.903,0.351-5.86,1.231
				c-1.973,0.864-3.689,2.447-4.862,4.225c-1.152,1.759-2.121,3.773-1.981,6.393c0.124,2.642,1.853,4.803,3.442,5.987
				c3.306,2.375,6.606,3.161,9.671,3.846c6.157,1.23,11.639,1.354,16.228,1.343c6.063-0.085,10.51-0.575,12.851-1.099
				c2.061,1.203,6.304,2.795,12.148,4.109c4.418,0.979,9.75,1.91,15.894,1.988c3.074-0.01,6.359-0.133,9.89-1.274
				c1.742-0.594,3.624-1.429,5.232-3.112c1.647-1.655,2.484-4.3,2.302-6.483C1115.304,2474.976,1114.782,2473.04,1113.702,2471.164z
				 M1109.367,2480.125c-0.677,0.746-1.826,1.36-3.085,1.807c-2.556,0.91-5.525,1.183-8.31,1.302
				c-5.63,0.185-10.848-0.325-15.192-0.819c-5.431-0.641-9.491-1.344-11.842-1.711c-1.928-0.436-6.794-0.73-13.631-1.349
				c-4.435-0.447-9.768-0.971-15.306-2.341c-2.718-0.687-5.622-1.662-7.59-3.18c-0.946-0.788-1.415-1.53-1.429-2.321
				c-0.09-0.783,0.396-2.079,1.143-3.155c2.706-4.515,9.648-3.521,14.837-1.797c5.393,1.769,10.104,4.249,13.97,6.404
				c3.508,1.996,6.244,3.732,8.293,5.07c-0.25,0.285-0.4,0.518-0.338,0.626c0.094,0.171,0.522,0.135,1.227-0.054
				c1.98,1.296,2.91,1.975,3.121,1.951c0.399-0.267-0.03-1.224-1.136-2.597c2.35-0.833,5.884-2.221,10.456-3.812
				c4.121-1.38,9.131-2.999,14.579-3.539c2.67-0.238,5.568-0.138,7.66,0.939c1.043,0.53,1.85,1.265,2.451,2.255
				c0.575,0.997,0.928,2.38,1.019,3.56C1110.33,2478.567,1110.038,2479.385,1109.367,2480.125z"/><path fill="#424A77" d="M1285.997,1231.784c0,0-90.216,106.427-87.575,184.52c2.641,78.092-221.513,957.839-221.513,957.839
			l102.76,23.766l526.398-1171.997L1285.997,1231.784z"/><path fill="#37416C" d="M1386.293,1715.229c3.238-106.478,24.915-322.397-68.812-318.883
			c-54.721,2.068-100.16,63.238-136.067,125.471c13.508-53.756,17.459-91.839,16.976-105.485
			c-2.617-78.153,87.594-184.562,87.594-184.562l304.422-5.858L1386.293,1715.229z"/><path fill="#2C3860" d="M1608.901,1207.639l-12.82-14.428c0,0-214.507,509.131-205.203,515.333
			C1390.878,1708.544,1621.721,1222.067,1608.901,1207.639z"/><path fill="#424A77" d="M1434.272,485.697c-8.245-13.655-21.162-30.814-23.928-63.45c-4.775-56.295-74.763-73.213-105.765-68.003
		c-94.513,15.882-112.47,86.398-128.218,115.226c-15.748,28.827-97.427,14.675-134.615,64.672
		c-37.16,50.051,47.175,61.462-33.584,127.416c-80.813,65.977-110.847,114.174-24.062,200.784
		c46.871,46.725,114.404,65.117,182.281,38.258c57.75-22.834,115.859-78.368,161.656-177.039
		c41.661-89.615,138.073-64.247,135.623-148.547C1462.082,521.246,1448.746,509.785,1434.272,485.697z"/><path fill="#EEBB48" d="M1417.554,658.109c0,0,41.066-12.94,55.949-4.49c14.884,8.449,241.724,174.253,251.729,193.594
		c10.004,19.34-107.275,99.506-107.275,99.506L1417.554,658.109z"/><path fill="#EEBB48" d="M1417.554,658.109c0,0-181.968,45.595-190.946,51.655c-4.673,3.154,14.081,381.413,14.556,401.782
		c3.201,137.197-25.909,158.665-10.272,188.72c37.448,71.979,148.204,4.873,180.678-8.995
		c32.475-13.868,312.868,10.543,284.683-48.687c-10.866-22.834-54.948-174.39-74.816-222.745
		c-3.591-8.738-3.313-119.908-10.611-126.177C1518.477,814.326,1462.279,657.529,1417.554,658.109z"/><g opacity=".25"><path fill="#F15A29" d="M1560.287,715.914c-2.136,1.172-4.272,2.412-6.478,3.584c-14.336,7.857-30.53,15.576-48.794,19.573
				c-18.124,3.997-39.145,4.411-58.373-5.307c-18.47-9.58-32.874-27.291-34.941-48.311c-1.103-9.717,1.585-19.366,5.306-27.222
				c0.345-0.069,0.552-0.138,0.552-0.138s8.477-2.688,19.09-4.755c-6.272,10.062-11.234,20.055-9.855,30.668
				c1.378,14.404,12.473,28.67,26.946,36.044c14.405,7.374,32.115,7.581,48.105,4.204c16.196-3.377,31.22-10.062,45.349-17.367
				c0.138-0.069,0.344-0.138,0.482-0.276C1551.81,709.642,1556.015,712.743,1560.287,715.914z"/><path fill="#F15A29" d="M1652.981,1276.629c-1.998,0.413-3.996,0.758-6.064,1.034c-5.1-12.681-11.853-27.843-22.881-43.005
				c-5.789-7.857-12.75-15.575-21.433-22.192c-8.683-6.478-18.952-12.13-30.393-15.506c-11.371-3.308-24.052-4.342-36.182-1.034
				c-11.922,3.239-24.741,10.613-25.016,22.053c-0.414,6.065,0.62,13.577,2.067,20.675c1.448,7.237,3.584,14.611,5.651,22.33
				c2.137,7.719,4.274,15.782,5.583,24.328v0.069c-4.755,0.069-9.442,0.138-14.059,0.207c-1.034-6.961-2.826-13.99-4.618-21.089
				c-3.859-15.438-8.477-30.668-7.374-47.829c0.413-4.341,1.861-9.235,4.411-13.094c2.481-3.928,5.651-7.03,8.959-9.58
				c3.377-2.481,6.892-4.48,10.544-5.927l5.376-2.136l5.513-1.585c14.817-3.583,29.635-1.929,42.384,2.205
				c25.707,8.408,44.316,25.844,55.686,43.143C1642.506,1246.719,1648.64,1263.19,1652.981,1276.629z"/><path fill="#F15A29" d="M1638.854,1068.497c-2.274,1.447-4.618,2.688-7.098,3.791c-7.099,3.032-14.957,4.48-22.398,4.549
				c-15.094,0.138-28.602-4.135-41.351-8.615c-12.819-4.617-24.949-10.269-36.665-15.713c-23.432-10.958-46.313-21.847-69.676-24.19
				c-23.294-2.757-45.968,5.031-64.025,18.815c-18.263,13.577-31.564,32.46-40.8,52.722c-18.883,40.73-21.088,85.044-31.426,125.637
				c-5.1,20.262-12.198,39.903-23.363,56.582c-11.027,16.747-25.223,29.773-39.559,40.386c-1.861,1.378-3.791,2.688-5.652,3.997
				c-3.584-1.723-6.961-3.859-10.13-6.409c3.032-2.068,6.134-4.204,9.166-6.34c13.508-10.338,26.396-22.743,36.113-38.18
				c9.924-15.3,16.333-33.563,21.021-53.067c4.686-19.573,7.511-40.524,11.578-62.301c3.929-21.709,9.511-44.314,19.298-66.23
				c9.648-21.778,24.259-43.074,44.797-58.58c10.199-7.788,21.846-14.128,34.597-18.194c12.679-3.997,26.463-5.307,39.834-3.928
				c27.085,2.757,51.275,14.473,74.707,25.293c11.716,5.444,23.432,10.889,35.424,15.162c11.923,4.204,24.189,7.857,35.906,7.65
				c9.097,0.069,17.437-2.757,24.535-7.926C1635.408,1058.228,1637.062,1063.259,1638.854,1068.497z"/><path fill="#F15A29" d="M1715.145,836.382c-6.202,5.513-12.679,11.647-19.227,18.401c-5.444,5.651-10.958,11.785-16.471,18.332
				s-10.682,13.715-16.677,21.296c-5.928,7.512-12.475,15.438-21.227,22.192c-8.546,6.823-20.4,11.992-32.874,11.647
				c-12.406-0.276-23.431-4.686-33.7-8.408c-10.132-3.653-20.469-6.547-31.358-8.339c-21.572-3.584-44.934-2.826-66.369,4.893
				c-10.682,3.859-20.469,9.511-28.738,16.609c-8.408,6.892-16.54,17.367-30.392,22.329c-6.892,2.412-14.474,2.412-21.158,0.758
				c-6.616-1.792-12.613-4.962-17.643-8.959c-5.031-3.997-9.235-8.89-12.474-14.266c-3.171-5.307-5.376-10.889-6.961-16.471
				c-3.171-11.165-3.859-22.054-4.273-32.253c-0.276-10.131-0.414-20.262,1.102-30.324c1.31-10.062,5.1-19.504,8.753-27.429
				c3.653-7.995,6.617-15.162,8.408-22.536c3.722-14.68,3.515-28.808,1.517-40.799c-1.861-12.061-5.651-22.123-9.442-29.91
				c-7.719-15.644-14.954-22.743-13.99-23.639c0.482-0.62,9.305,5.031,19.297,20.744c4.824,7.788,9.717,18.194,12.681,31.151
				c2.964,12.819,4.066,28.325,0.62,44.865c-1.585,8.339-4.824,16.885-8.132,24.81c-3.308,8.132-6.134,15.782-7.03,24.466
				c-1.034,8.684-0.758,18.125-0.138,27.981c0.552,9.786,1.516,19.642,4.273,28.808c2.826,9.304,7.512,17.574,14.955,23.156
				c7.306,5.789,16.747,8.477,24.741,5.513c8.34-2.757,15.713-11.302,25.224-19.642c9.717-8.477,21.227-15.024,33.494-19.504
				c24.673-8.89,50.586-9.373,74.224-5.307c11.854,1.999,23.364,5.444,33.978,9.511c10.406,3.928,19.985,7.65,28.876,7.995
				c8.822,0.276,17.092-2.895,24.329-8.27c7.305-5.376,13.576-12.336,19.503-19.435c5.858-7.03,11.579-14.404,17.573-21.02
				c5.927-6.616,11.923-12.75,17.781-18.332c6.685-6.341,13.231-11.992,19.573-17.092
				C1710.528,832.247,1713.009,834.452,1715.145,836.382z"/></g><path fill="#F15A29" d="M1696.252,1242.59c-10.888-22.812-54.927-174.431-74.845-222.742
		c-3.583-8.752-3.307-119.916-10.613-126.189c-18.401-15.782-35.355-34.665-51-54.72c-62.371,4.962-124.465,12.956-150.585,21.916
		c-60.165,20.675,9.579,212.955,8.339,228.669c-1.24,15.713-65.955,5.996-106.272-14.68
		c-40.316-20.606-60.165-204.617-60.165-204.617h-20.606c4.411,106.96,10.407,229.909,10.682,241.35
		c3.171,137.146-25.913,158.649-10.269,188.697c37.423,71.95,148.173,4.893,180.634-9.028
		C1444.013,1277.395,1724.441,1301.792,1696.252,1242.59z M1368.135,1270.709c-7.788,11.923-58.373,17.092-45.485,19.642
		c12.888,2.619,33.563,2.619,12.405,10.889c-21.159,8.27-41.42,15.507-54.791,7.719c-13.438-7.719,6.617-13.715-8.821-19.779
		c-15.438-5.996-28.946-9.648-23.226-13.301c5.721-3.584,5.238-13.094,12.406-9.786
		C1284.676,1277.326,1375.922,1258.856,1368.135,1270.709z" opacity=".2"/><path fill="#E8BDAC" d="M1111.636,975.069c0,0-27.354,155.699-25.849,162.379c12.192,54.119,60.316,60.332,81.174,72.721
		c20.858,12.389,75.356-43.368,75.356-43.368l29.066-194.072L1111.636,975.069z"/><path fill="#E2AA94" d="M1271.415,972.763l-17.626,117.607c-53.156-5.771-119.895-37.585-152.604-54.659
		c5.545-32.733,10.448-60.67,10.448-60.67L1271.415,972.763z"/><path fill="#EEBB48" d="M1229.73,709.147c0,0-44.245,9.451-51.368,23.063c-7.122,13.611-105.073,258.042-103.219,277.5
		c1.854,19.458,189.204,21.582,189.204,21.582s24.115-152.213,16.015-202.294C1275.168,796.888,1229.73,709.147,1229.73,709.147z"/><path fill="#E3AF41" d="M1280.247,898.161c-4.516,61.245-15.899,133.131-15.899,133.131s-187.323-2.103-189.178-21.59
		c-0.31-3.527,2.66-14.538,7.856-30.313c41.758,27.963,99.662,27.096,138.946,9.218
		C1246.593,977.408,1266.884,934.537,1280.247,898.161z"/><path fill="#D8A339" d="M1280.247,898.161c0,0,4.145,128.491-7.919,138.235c-12.063,9.744-158.681,2.784-188.839-19.951
		c0,0,145.048,24.957,170.28,6.032C1266.76,1012.732,1280.247,898.161,1280.247,898.161z"/><g opacity=".25"><path fill="#F15A29" d="M1228.449,785.727c0,7.65-1.723,16.747-7.858,24.121c-6.133,7.512-15.299,10.682-22.604,13.025
			c-7.512,2.343-14.196,4.342-17.988,8.684c-4.136,4.066-6.409,10.269-7.167,17.85c-0.896,7.581-0.689,15.989-0.965,24.948
			c-0.413,8.959-0.827,18.952-5.927,28.877c-1.24,2.481-2.619,4.893-4.548,6.961c-1.654,2.205-3.722,4.273-5.928,5.927
			c-4.341,3.308-9.097,5.513-13.715,7.167c-9.235,3.101-18.125,4.549-27.154,5.1c-4.617,0.276-9.235,0.276-13.715,0
			c1.793-4.824,3.653-9.786,5.513-14.817c2.343,0,4.824-0.138,7.168-0.276c7.719-0.551,15.85-2.068,23.087-4.549
			c3.515-1.24,6.823-2.894,9.373-4.893c1.378-0.965,2.481-2.137,3.446-3.446c1.103-1.172,1.93-2.619,2.688-4.135
			c3.239-6.065,3.998-14.197,4.342-22.467c0.344-8.339,0.138-17.092,1.24-26.258c0.964-8.959,4.272-19.366,11.923-26.602
			c3.515-3.79,8.201-6.134,12.337-7.857c4.203-1.723,8.201-2.826,11.853-3.859c7.305-2.068,13.025-4.273,16.402-8.201
			c3.515-3.928,5.169-9.58,5.376-15.506c0.482-12.061-3.791-24.052-7.649-34.597c-4.619-11.716-10.132-21.571-15.507-29.704
			c2.549-1.172,5.306-2.343,8.063-3.377c5.996,7.788,12.13,17.298,17.505,28.808c2.48,5.513,4.824,11.371,6.892,17.712
			C1226.933,770.91,1228.379,777.94,1228.449,785.727z"/></g><g opacity=".25"><path fill="#F15A29" d="M1306.945,796.685c-3.446,12.474-8.753,24.604-15.024,36.32c-12.405,23.57-28.532,45.693-41.005,70.089
			c-6.204,12.13-11.579,25.017-13.853,38.112c-2.413,13.094-0.208,25.982,5.513,38.87c5.582,12.888,13.646,25.155,20.813,38.318
			c7.374,12.957,13.302,27.774,15.369,42.729c4.686,30.048-2.205,58.58-11.303,83.391c-8.546,22.674-18.883,43.005-29.91,61.612
			c1.172-9.924,2.136-21.02,2.826-33.632c4.962-10.475,9.648-21.433,13.715-32.805c8.27-23.708,13.991-50.103,9.717-76.223
			c-1.93-13.094-6.892-25.293-13.921-37.698c-6.823-12.405-15.161-24.948-21.502-39.559c-3.169-7.305-5.72-15.093-6.892-23.225
			c-1.31-8.201-0.897-16.54,0.413-24.328c2.826-15.713,8.89-29.566,15.506-42.522c13.509-25.775,29.91-47.691,41.971-69.883
			c6.134-11.027,11.165-22.123,14.473-33.287c3.377-11.234,4.893-22.398,4.618-33.218c-0.551-21.847-7.443-41.902-16.334-58.58
			c-1.31-2.412-2.619-4.686-3.997-6.961c3.515-0.965,7.099-1.93,10.752-2.895c0.964,1.516,1.86,3.032,2.756,4.549
			c10.131,17.436,18.401,38.939,19.642,63.404C1311.907,771.392,1310.46,784.211,1306.945,796.685z"/></g><g><path fill="#E8BDAC" d="M1294.351,686.554c-1.781-1.036-23.841-121.148-23.841-121.148l74.116,22.593l32.034,78.112l20.653-2.422
			c0,0,42.152,53.473-32.11,78.898c-58.287,19.955-100.032-45.914-100.032-45.914L1294.351,686.554z"/><path fill="#E2AA94" d="M1302.331,632.048c25.001,34.15,58.942,31.232,72.023,28.561l-29.711-72.639l-60.908-18.509
			C1281.724,582.649,1282.738,605.189,1302.331,632.048z"/><path fill="#E8BDAC" d="M1243.601,503.69c21.805,7.269,9.903-39.094,9.903-39.094c38.673,22.027,85.517-19.598,85.517-19.598
			c17.962,12.296,35.788,10.757,44.261,1.417c11.231,33.991,10.266,65.668,16.984,125.692c5.675,50.698-57.125,52.956-60.165,53.342
			c0,0-55.125,13.131-79.792-66.078c-11.953-3.182-24.976-6.937-38.606-32.771C1208.727,502.006,1232.615,500.033,1243.601,503.69z"/><path fill="#424A77" d="M1367.442,546.064c2.145-6.851-7.883-30.112-9.243-29.102c-1.365,1.003,4.349,24.213,3.323,27.435
					c-0.819,2.34-3.442,4.107-7.795,5.255c-1.631,0.434-2.624,2.105-2.183,3.754c0.436,1.642,2.112,2.616,3.754,2.188
					c6.453-1.705,10.501-4.798,12.031-9.192C1367.371,546.292,1367.408,546.177,1367.442,546.064z"/><path fill="#424A77" d="M1333.289,489.455c0,0-31.227,1.971-34.698-0.732c-3.474-2.703,5.509-10.256,19.592-8.354
				C1332.262,482.273,1336.83,488.944,1333.289,489.455z"/><path fill="#424A77" d="M1393.041,485.994c0,0-31.228,1.971-34.698-0.732c-3.474-2.703,5.508-10.256,19.591-8.354
				C1392.014,478.811,1396.582,485.482,1393.041,485.994z"/><path fill="#424A77" d="M1370.419,587.873c-0.752,0.956-1.932,1.961-3.319,2.833c-1.677,1.052-3.664,1.875-5.757,2.38
				c-2.447,0.594-5.094,0.731-7.668,0.393c-2.554-0.354-5.069-1.189-7.27-2.409c-1.891-1.042-3.592-2.365-4.919-3.818
				c-1.112-1.213-1.982-2.496-2.451-3.611c-0.882-2.077-0.265-3.078,0.408-3.553c0.098-0.07,0.194-0.128,0.292-0.177
				c1.207-0.613,2.402,0.227,4.011,1.356c0.515,0.362,1.112,0.782,1.802,1.23c2.017,1.327,5.24,3.021,9.139,3.551
				c3.903,0.524,7.459-0.256,9.766-1.006c0.769-0.243,1.454-0.489,2.045-0.699c2.003-0.718,3.449-1.236,4.466-0.002
				C1371.486,584.976,1371.817,586.104,1370.419,587.873z"/><path fill="#424A77" d="M1234.056,514.361c0.018-0.285,0.511-0.54,1.425-0.677c0.91-0.139,2.242-0.12,3.855,0.193
				c1.611,0.31,3.494,0.957,5.409,2.043c1.915,1.084,3.84,2.634,5.477,4.624c1.619,2.003,2.75,4.203,3.426,6.294
				c0.679,2.096,0.934,4.07,0.912,5.71c-0.018,1.644-0.267,2.95-0.585,3.815c-0.319,0.867-0.668,1.299-0.95,1.26
				c-0.615-0.086-0.76-1.985-1.444-4.747c-0.432-1.797-1.849-4.099-3.032-6.301c-2.416,1.453-7.454,2.506-8.145,1.531
				c-0.745-1.052,3.449-4.666,5.067-6.002c-2.341-2.344-4.933-4.381-7.056-5.375
				C1235.844,515.505,1234.015,514.981,1234.056,514.361z"/><path fill="#424A77" d="M1331.543,517.439c0.478,6.27-2.209,11.587-6.001,11.877c-3.792,0.289-7.253-4.56-7.731-10.83
			c-0.478-6.27,2.209-11.588,6.001-11.877C1327.604,506.32,1331.065,511.168,1331.543,517.439z"/><path fill="#424A77" d="M1388.758,513.079c0.478,6.27-2.209,11.587-6.001,11.876c-3.792,0.289-7.253-4.56-7.731-10.83
			c-0.478-6.27,2.21-11.587,6.001-11.876C1384.818,501.96,1388.28,506.809,1388.758,513.079z"/></g><g><path fill="#F15A29" d="M1516.285,1230.706c147.898-5.252,735.677,36.252,776.978-10.936
				c41.303-47.188,87.072-361.313,11.133-445.143c-75.938-83.831-732.665-48.161-842.679-11.19
				C1412.075,790.042,1417.021,1234.231,1516.285,1230.706z"/></g><path fill="#E34921" d="M2017.904,1031.266c-32.942,0-62.026,24.604-61.75,56.099c-1.24,31.427,24.811,58.029,59.132,59.545
		c34.252,1.585,61.888-23.156,63.266-55.961C2079.792,1059.59,2052.225,1032.85,2017.904,1031.266z M2147.262,731.404
		c-32.115,68.918-149.206,80.221-174.018,245.899c0,2.826,89.111,4.962,89.111,7.788c4.135-115.506,157.753-110.612,201.447-232.667
		C2234.995,742.913,2194.678,736.09,2147.262,731.404z"/><g><path fill="#E8BDAC" d="M1658.022,718.808c0,0-12.34-20.043-31.969,4.744c-19.626,24.792-5.901,40.915,3.844,37.766
					c9.745-3.15,16.232-4.445,20.35-21.358c0,0,3.198,14.797,14.651,12.895c11.452-1.906,16.999-12.03,16.999-12.03
					s0.123,13.73,5.768,15.542c5.644,1.812,19.409-4.052,24.265-18.338c0,0,4.974,14.602,20.198,4.452
					c15.225-10.15,9.768-12.559,9.768-12.559l21.368-0.853c0,0-10.343-27.247-42.249-15.527c0,0-14.538-16.508-29.71,4.375
					C1691.305,717.917,1673.594,693.453,1658.022,718.808z"/><path fill="#DB967B" d="M1658.1,719.083c0.801,0.602-1.875,5.065-3.917,10.95c-2.142,5.871-2.775,10.934-3.651,10.988
				c-0.97,0.116-1.842-5.644,0.508-12.102C1653.315,722.428,1657.468,718.534,1658.1,719.083z"/><path fill="#DB967B" d="M1691.268,717.216c0.366,0.322-0.219,1.616-1.054,3.689c-0.844,2.077-1.934,4.985-3.109,8.243
				c-2.351,6.515-4.296,11.888-5.207,11.677c-0.884-0.195-0.369-6.036,2.072-12.813c1.218-3.38,2.733-6.332,4.192-8.269
				C1689.623,717.792,1690.947,716.925,1691.268,717.216z"/><path fill="#DB967B" d="M1721.015,713.542c0.339,0.378-0.489,1.629-1.502,3.719c-1.005,2.112-2.153,5.139-3.167,8.632
				c-2.053,6.977-3.188,12.921-4.129,12.838c-0.89-0.051-1.247-6.349,0.932-13.788c1.075-3.707,2.71-6.932,4.377-8.951
				C1719.222,713.965,1720.754,713.227,1721.015,713.542z"/></g><g><rect width="30.264" height="74.791" x="1616.041" y="1061.498" fill="#D8CCBA" transform="rotate(7.068 1631.714 1099.423)"/><path fill="#E8BDAC" d="M1558.702,1159.254c0,0,72.622-44.273,78.22-43.989c5.599,0.285,8.367,9.418,5.205,14.202
					c-3.162,4.784-26.083,42.061-29.003,42.28C1610.204,1171.968,1573.768,1187.21,1558.702,1159.254z"/><path fill="#F2EEE7" d="M1631.295,1097.911c-16.464-2.043-31.468,9.647-33.511,26.112l-15.803,135.761
					c-2.044,16.464,9.648,31.468,26.111,33.51c16.464,2.043,31.468-9.648,33.511-26.112l15.803-135.761
					C1659.45,1114.957,1647.759,1099.955,1631.295,1097.911z"/><path fill="#F2EEE7" d="M1679.297,886.048c3.024,1.352,20.635,11.763,21.265,14.132
				c0.631,2.369-84.601,135.373-92.675,131.767c-8.074-3.607-20.56-15.254-20.56-15.254L1679.297,886.048z" opacity=".2"/><path fill="#F2EEE7" d="M1703.858,909.705c-2.852,2.154-63.433,95.898-58.415,96.597
				c5.017,0.698,5.017,0.698,5.017,0.698s61.557-84.751,60.128-86.781C1709.159,918.189,1703.858,909.705,1703.858,909.705z" opacity=".2"/><g><path fill="#F2EEE7" d="M1662.503,846.478c-63.516-7.881-121.364,37.23-129.247,100.746
					c-7.877,63.477,37.192,121.36,100.708,129.242c63.477,7.877,121.364-37.23,129.242-100.707
					C1771.088,912.242,1725.98,854.355,1662.503,846.478z M1637.1,1051.184c-49.552-6.149-84.745-51.314-78.6-100.827
					c6.148-49.553,51.313-84.745,100.866-78.597c49.553,6.15,84.706,51.309,78.557,100.862
					C1731.78,1022.135,1686.654,1057.333,1637.1,1051.184z"/></g><path fill="#E8BDAC" d="M1159.573,1097.68c0,0,420.14,57.252,433.079,61.39c4.736,7.463-26.921,78.69-26.921,78.69
			s-356.655,18.663-404.349,4.824c-43.607-12.654-75.405-63.881-75.405-96.906C1085.977,1095.282,1159.573,1097.68,1159.573,1097.68
			z"/><path fill="#E2AA94" d="M1184.56,1122.027c-5.132-21.144,68.149-21.738,66.511-12c-1.637,9.738-22.41,44.187-24.868,33.678
			c-2.458-10.509,5.237-26.088,5.237-26.088S1188.275,1137.332,1184.56,1122.027z"/><g><path fill="#E8BDAC" d="M1666.091,1248.816c6.132-11.554,0.387-14.498,0.387-14.498s11.278-3.928,11.061-12.906
					c-0.217-8.978-10.074-11.406-10.074-11.406s11.686-2.88,11.467-13.082c-0.219-10.202-11.506-14.294-11.506-14.294
					s12.09-6.912,1.811-18.908c-9.965-11.629-87.748-13.269-99.006-2.719c-14.732-0.575-35.014-0.563-35.014-0.563l0.109,76.73
					l95.654,16.893C1630.981,1254.064,1661.098,1258.222,1666.091,1248.816z"/><path fill="#DB967B" d="M1591.332,1155.073c-0.001-0.74,21.451-2.729,31.803-2.744c10.352-0.015,26.214,3.524,26.216,4.265
					c0.001,0.74-11.755,0.346-22.106,0.361C1616.893,1156.969,1591.333,1155.812,1591.332,1155.073z"/><path fill="#DB967B" d="M1659.254,1182.642c-0.001-0.74,2.239-1.343,5.003-1.347c2.764-0.004,5.006,0.592,5.007,1.332
					c0.001,0.74-2.239,1.343-5.003,1.347C1661.497,1183.979,1659.255,1183.382,1659.254,1182.642z"/><path fill="#DB967B" d="M1657.658,1210.02c-0.001-0.741,2.605-1.344,5.821-1.348c3.215-0.005,5.824,0.591,5.824,1.332
					c0.001,0.74-2.605,1.343-5.821,1.348C1660.267,1211.356,1657.659,1210.76,1657.658,1210.02z"/><path fill="#DB967B" d="M1656.67,1233.107c0.082-0.736,2.573-1.061,5.563-0.727c2.991,0.334,5.349,1.201,5.266,1.937
					c-0.082,0.736-2.573,1.061-5.564,0.727C1658.945,1234.709,1656.588,1233.842,1656.67,1233.107z"/></g></g><g><path fill="#EEBB48" d="M1907.306,847.533c2.997-27.38-25.248-42.2-19.588,6.406l-23.733,5.398
				c-9.435-36.717,9.032-56.568,31.005-58.366c25.591-2.036,40.373,22.211,38.162,46.147c-2.641,29.648-35.723,36.851-30.291,62.904
				c-0.102-0.648-19.349,3.711-19.451,3.063C1879.555,873.827,1905.148,865.479,1907.306,847.533z M1885.772,938.624
				c1.447,7.081,8.474,11.622,15.877,10.123c7.405-1.498,11.947-8.525,10.449-15.93c-1.448-7.079-8.799-11.57-16.203-10.072
				C1888.865,924.517,1884,931.595,1885.772,938.624z"/><path fill="#EEBB48" d="M2181.195,952.251c15.154-12.31,8.299-33.854-13.067-6.531l-14.654-9.104
				c13.539-23.212,32.739-24.016,44.712-13.975c13.916,11.725,9.285,31.314-3.755,42.279c-16.104,13.631-36.37,0.778-46.614,16.618
				c0.271-0.377-11.603-7.77-11.332-8.147C2154.102,951.679,2171.164,960.224,2181.195,952.251z M2124.95,987.444
				c-2.799,4.291-1.518,10.081,2.961,13.015c4.48,2.934,10.27,1.654,13.205-2.826c2.798-4.29,1.33-10.217-3.149-13.151
				C2133.539,981.873,2127.559,983.017,2124.95,987.444z"/><path fill="#EEBB48" d="M2128.385,693.558c43.212-117.419-65.061-213.698-93.367,6.772l-110.54-2.208
			c-1.354-172.197,101.804-239.467,200.638-223.317c115.043,19.067,153.633,142.153,117.658,245.246
			c-44.126,127.801-197.856,123.304-202.457,244.105c0.26-2.971-89.362-4.844-89.102-7.814
			C1977.241,779.062,2099.208,770.305,2128.385,693.558z M1933.641,1071.515c-1.38,32.804,24.621,60.515,58.903,62.025
			c34.282,1.51,62.003-24.491,63.513-58.772c1.375-32.799-26.108-60.65-60.39-62.16
			C1962.732,1012.721,1933.533,1038.587,1933.641,1071.515z"/></g><path fill="#F15A29" d="M1253.531,701.027c0,0,15.543-8.482,20.996-7.6c5.453,0.881,33.624,50.243,85.829,41.456
		c52.205-8.787,31.53-72.79,31.53-72.79l16.023-2.933c0,0,31.096,69.521-33.556,92.522
		C1309.702,774.683,1253.531,701.027,1253.531,701.027z"/><g><path fill="#F2EEE7" d="M1829.004,1506.757c55.943-1.987,278.27,13.713,293.892-4.136c15.623-17.849,32.935-136.667,4.211-168.376
			c-28.724-31.709-281.684-2.279-281.684-2.279l-54.231-25.81l16.329,46.074C1807.521,1352.23,1791.457,1508.091,1829.004,1506.757z
			"/><circle cx="1910.583" cy="1420.764" r="18.19" fill="#E5DDD1"/><circle cx="1974.767" cy="1420.764" r="18.19" fill="#E5DDD1"/><circle cx="2038.95" cy="1420.764" r="18.19" fill="#E5DDD1"/><g><path fill="#F2EEE7" d="M1141.379,410.747c-58.682,2.084-291.893-14.383-308.28,4.339
			c-16.388,18.723-34.547,143.357-4.417,176.619c30.129,33.261,295.474,2.39,295.474,2.39l56.887,27.074l-17.129-48.329
			C1163.914,572.84,1180.764,409.349,1141.379,410.747z"/><path fill="#E5DDD1" d="M1036.725,500.95c0,10.538,8.543,19.081,19.081,19.081c10.537,0,19.081-8.543,19.081-19.081
				c0-10.538-8.543-19.081-19.081-19.081C1045.268,481.869,1036.725,490.412,1036.725,500.95z"/><path fill="#E5DDD1" d="M969.4,500.95c0,10.538,8.543,19.081,19.081,19.081c10.537,0,19.081-8.543,19.081-19.081
				c0-10.538-8.543-19.081-19.081-19.081C977.943,481.869,969.4,490.412,969.4,500.95z"/><path fill="#E5DDD1" d="M902.075,500.95c0,10.538,8.542,19.081,19.081,19.081c10.537,0,19.08-8.543,19.08-19.081
				c0-10.538-8.542-19.081-19.08-19.081C910.617,481.869,902.075,490.412,902.075,500.95z"/></g><g><path fill="#F2EEE7" d="M1574.087,308.931c55.4,1.968,275.573-13.579,291.045,4.096c15.471,17.675,32.615,135.342,4.17,166.744
			c-28.446,31.402-278.955,2.257-278.955,2.257l-53.706,25.56l16.172-45.628C1552.812,461.961,1536.903,307.61,1574.087,308.931z"/><path fill="#E5DDD1" d="M1672.889,394.09c0,9.948-8.065,18.014-18.015,18.014c-9.948,0-18.014-8.065-18.014-18.014
				c0-9.949,8.066-18.014,18.014-18.014C1664.825,376.076,1672.889,384.141,1672.889,394.09z"/><path fill="#E5DDD1" d="M1736.451,394.09c0,9.948-8.066,18.014-18.014,18.014c-9.948,0-18.014-8.065-18.014-18.014
				c0-9.949,8.065-18.014,18.014-18.014C1728.385,376.076,1736.451,384.141,1736.451,394.09z"/><path fill="#E5DDD1" d="M1800.012,394.09c0,9.948-8.066,18.014-18.014,18.014c-9.949,0-18.014-8.065-18.014-18.014
				c0-9.949,8.065-18.014,18.014-18.014C1791.947,376.076,1800.012,384.141,1800.012,394.09z"/></g></g><g><path fill="#F2EEE7" d="M1323.787,1487.646c-17.107,41.647-33.151,80.705-48.212,117.407c-0.766,1.861-3.151,2.956-5.329,2.461
					c-67.002-15.275-132.292-35.859-195.951-61.777c-2.057-0.841-3.382-3.105-2.941-5.069
					c8.702-38.707,17.969-79.901,27.843-123.829c0.286-1.27,1.081-2.289,2.128-2.882c0,0,0,0,0.015-0.008
					c0.924-0.53,2.026-0.733,3.145-0.496c74.045,16.125,147.01,39.129,216.914,68.387c1.009,0.42,1.768,1.185,2.216,2.083
					c0.108,0.189,0.188,0.38,0.245,0.565c0.012,0.042,0.019,0.059,0.019,0.059
					C1324.211,1485.521,1324.199,1486.621,1323.787,1487.646z"/><path fill="#D8CCBA" d="M1323.972,1484.497c-0.433-1.187-1.387-2.216-2.574-2.656c1.134,0.503,1.971,1.488,2.35,2.657
				c-19.899,11.093-41.475,19.348-63.737,24.094c-13.329,2.948-25.912,4.202-37.763,3.9c-7.092-6.607-15.058-11.88-24.128-14.945
				c-10.091-2.924-21.127-2.928-32.514-0.868c-28.242-16.64-49.61-45.544-64.168-82.682c0.905-0.54,1.998-0.742,3.045-0.542
				c-1.088-0.277-2.29-0.105-3.274,0.457l0.028,0.075c5.859,16.105,12.81,32.225,22.601,46.353
				c10.281,15.885,22.908,28.287,37.176,37.278c-29.516,6.685-60.836,26.298-83.868,44.366c33.4-22.573,83.69-50.701,119.625-40.153
				c19.154,6.337,33.608,23.447,45.336,41.223c11.87,18.403,21.629,38.835,29.629,60.278c-6.639-22.396-15.686-43.544-27.21-62.54
				c-5.627-9.109-11.941-17.885-19.203-25.3c11.5-0.014,23.316-1.487,35.24-4.402c22.425-5.33,43.958-14.236,63.372-26.452
				l0.074-0.049L1323.972,1484.497z"/><path fill="#F2EEE7" d="M791.639,1011.931c28.285-38.473,56.048-74.764,83.027-108.994c1.371-1.724,3.904-2.289,5.643-1.247
				c53.71,31.79,103.552,63.199,156.939,92.38c1.722,0.943,3.012,2.917,2.88,4.41c-2.742,29.534-3.309,59.451-0.882,88.971
				c0.074,0.846-0.443,1.559-1.332,1.992c-0.004,0.008,0,0.001-0.014,0.006c-0.782,0.383-1.849,0.575-3.049,0.456
				c-79.589-7.607-164.835-29.229-241.537-71.706c-1.103-0.613-1.855-1.512-2.205-2.501c-0.088-0.213-0.146-0.415-0.178-0.613
				c-0.006-0.039-0.01-0.066-0.01-0.063C790.72,1013.982,790.954,1012.877,791.639,1011.931z"/><path fill="#D8CCBA" d="M790.801,1015.054c0.276,1.269,1.207,2.475,2.513,3.142c-1.236-0.717-2.034-1.859-2.251-3.102
			c25.465-7.291,50.705-11.562,74.729-12.623c14.408-0.735,27.327-0.063,39.174,1.827c6.591,7.086,14.46,12.808,23.504,16.489
			c10.059,3.679,21.049,4.676,31.928,3.96c27.863,16.752,52.021,40.677,77.387,64.674c-0.766,0.401-1.814,0.57-2.934,0.483
			c1.183,0.139,2.358-0.028,3.19-0.436c-0.016-0.016-0.034-0.032-0.05-0.049c-10.501-10.431-21.112-21.841-33.085-32.854
			c-12.78-12.347-26.02-23.304-40.141-32.198c28.141-3.115,53.931-16.23,70.559-27.659c-23.801,13.354-68.922,33.347-105.466,20.418
			c-19.002-7.694-32.487-25.56-40.662-44.93c-8.349-19.935-12.238-42.564-11.718-66.558c-2.073,24.646,0.97,47.872,8.966,68.326
			c3.919,9.83,9.074,19.194,15.693,27.121c-11.502-1.6-23.677-2.009-36.584-1.101c-24.222,1.55-49.551,6.422-74.681,14.936
			c-0.032,0.012-0.064,0.023-0.096,0.035C790.784,1014.987,790.792,1015.02,790.801,1015.054z"/><g><path fill="#E5DDD1" d="M1029.012,1449.455c-0.482,1.303-6.019,0.845-15.467-2.141
			c-9.452-2.943-22.613-8.985-37.367-19.022c-3.788-2.385-7.34-5.411-11.249-8.338c-3.799-3.048-7.58-6.436-11.478-9.965
			c-7.565-7.284-15.318-15.481-22.501-24.899c-14.493-18.716-27.24-41.854-35.846-67.899c-8.358-26.043-11.95-52.011-12.212-75.452
			c-0.312-23.478,2.358-44.443,6.097-61.603c3.728-17.179,8.229-30.647,12.13-39.629c3.892-8.991,6.935-13.594,8.298-13.147
			c3.111,0.992-2.032,21.691-5.451,55.127c-1.704,16.701-2.673,36.629-1.332,58.522c1.294,21.877,5.212,45.686,12.857,69.544
			c7.846,23.704,18.925,45.06,31.373,62.833c12.461,17.784,25.997,32.156,38.561,42.893
			C1010.533,1437.94,1030.295,1446.245,1029.012,1449.455z" opacity=".5"/><path fill="#E5DDD1" d="M885.122,1112.869c1.822,21.405-29.357,47.959-33.411,37.971
			C847.656,1140.851,884.729,1108.256,885.122,1112.869z"/><path fill="#E5DDD1" d="M918.057,1193.255c-5.51-6.112-1.781,50.109,4.308,46.422
			C928.454,1235.989,924.963,1200.915,918.057,1193.255z"/></g></g></svg>