<?xml version="1.0" encoding="utf-8"?>
<!-- Generator: Adobe Illustrator 27.5.0, SVG Export Plug-In . SVG Version: 6.00 Build 0)  -->
<svg version="1.1" xmlns="http://www.w3.org/2000/svg" xmlns:xlink="http://www.w3.org/1999/xlink" x="0px" y="0px"
	 viewBox="0 0 500 500" style="enable-background:new 0 0 500 500;" xml:space="preserve">
<g id="Character">
	<g id="Character_00000176756148218828181290000000682057224972032644_">
		<g id="Legs_00000155106788514254609420000010665406408992333184_">
			<path style="fill:#00826F;" d="M325.389,385.385H137.778c-10.734,26.839-20.658,67.891-26.281,90.956h243.475
				C348.974,449.751,333.578,408.038,325.389,385.385z"/>
			<g>
				<g>
					<g>
						<path style="fill:#303030;" d="M234.919,384.841c1.314,13.61,2.63,27.239,2.868,40.919c0.11,6.294,0.383,12.841-2.417,18.653
							c-1.235,2.565-2.576,5.031-3.371,7.78c-0.609,2.107-0.958,4.281-1.135,6.464c-0.212,2.609-0.178,5.231-0.137,7.845
							c0.051,3.266,0.107,6.53,0.04,9.796c-0.027,1.288,1.973,1.287,2,0c0.109-5.321-0.242-10.654-0.006-15.971
							c0.095-2.143,0.335-4.271,0.838-6.359c0.627-2.601,1.694-4.958,2.898-7.337c1.429-2.822,2.475-5.665,2.909-8.811
							c0.437-3.173,0.438-6.378,0.413-9.574c-0.052-6.795-0.386-13.585-0.87-20.362c-0.549-7.692-1.289-15.368-2.03-23.043
							c-0.052-0.537-0.423-1-1-1C235.419,383.841,234.867,384.3,234.919,384.841L234.919,384.841z"/>
					</g>
				</g>
				<g>
					<g>
						<path style="fill:#303030;" d="M242.046,384.841c1.314,13.61,2.63,27.239,2.868,40.919c0.11,6.294,0.383,12.841-2.417,18.653
							c-1.235,2.565-2.576,5.031-3.371,7.78c-0.609,2.107-0.958,4.281-1.135,6.464c-0.211,2.609-0.178,5.231-0.137,7.845
							c0.051,3.266,0.107,6.53,0.04,9.796c-0.027,1.288,1.973,1.287,2,0c0.109-5.321-0.242-10.654-0.006-15.971
							c0.095-2.143,0.335-4.271,0.838-6.359c0.627-2.601,1.694-4.958,2.898-7.337c1.429-2.822,2.475-5.665,2.909-8.811
							c0.437-3.173,0.438-6.378,0.413-9.574c-0.052-6.795-0.386-13.585-0.87-20.362c-0.549-7.692-1.289-15.368-2.03-23.043
							c-0.052-0.537-0.423-1-1-1C242.546,383.841,241.994,384.3,242.046,384.841L242.046,384.841z"/>
					</g>
				</g>
				<g>
					<g>
						<path style="fill:#303030;" d="M151.796,383.54c-4.663,11.353-8.386,23.07-11.49,34.939
							c-3.114,11.903-5.616,23.956-7.885,36.046c-1.272,6.78-2.471,13.573-3.664,20.367c-0.093,0.531,0.143,1.077,0.698,1.23
							c0.483,0.133,1.136-0.164,1.23-0.698c2.127-12.124,4.276-24.247,6.826-36.29c2.543-12.014,5.486-23.955,9.199-35.665
							c2.079-6.556,4.402-13.034,7.014-19.397c0.205-0.5-0.222-1.099-0.698-1.23C152.452,382.684,152.002,383.038,151.796,383.54
							L151.796,383.54z"/>
					</g>
				</g>
				<g>
					<g>
						<path style="fill:#303030;" d="M168.837,385.838c-2.524,11.911-5.287,23.771-8.292,35.57
							c-1.383,5.433-2.658,10.948-4.55,16.233c-1.707,4.767-4.113,9.436-7.933,12.854c-3.838,3.434-9.149,5.658-14.329,4.507
							c-1.254-0.279-1.79,1.649-0.532,1.929c4.907,1.091,9.96-0.377,14.011-3.226c4.347-3.057,7.355-7.472,9.438-12.306
							c2.229-5.172,3.557-10.676,4.964-16.112c1.566-6.053,3.069-12.122,4.508-18.207c1.629-6.885,3.175-13.789,4.642-20.711
							C171.032,385.115,169.104,384.578,168.837,385.838L168.837,385.838z"/>
					</g>
				</g>
				<g>
					<g>
						<path style="fill:#303030;" d="M307.609,385.703c5.391,8.775,9.077,18.417,12.743,28.001
							c1.853,4.844,3.715,9.688,5.798,14.439c2.03,4.632,4.189,9.369,7.072,13.543c3.1,4.49,7.794,8.435,13.552,8.253
							c1.284-0.041,1.289-2.041,0-2c-4.861,0.154-8.894-3.142-11.577-6.908c-2.877-4.038-5.004-8.677-7.009-13.193
							c-4.08-9.19-7.259-18.746-11.197-27.995c-2.218-5.21-4.688-10.32-7.654-15.15
							C308.663,383.599,306.932,384.603,307.609,385.703L307.609,385.703z"/>
					</g>
				</g>
			</g>
		</g>
		<g id="Head_00000135680697069940575600000003989667603223729085_">
			<g>
				<g>
					<path style="fill:#303030;" d="M171.549,48.368c0.018,0.436,0.058,0.872,0.12,1.308c0.374,2.637,1.515,5.097,2.705,7.481
						c-3.561,2.989-5.484,7.82-4.95,12.439c0.533,4.618,3.506,8.884,7.655,10.983c5.212,2.637,9.791-0.318,14.362-2.929
						c5.11-2.919,9.875-6.441,14.155-10.479c0.813-0.767,1.637-1.572,2.674-1.991c1.053-0.427,2.224-0.415,3.361-0.432
						c4.601-0.069,9.192-0.723,13.631-1.932c3.404-0.927,7.243-1.953,7.27-6.264c0.013-2.071-0.61-4.793-2.01-6.353
						c-0.815-0.908-1.83-1.665-2.905-2.234c-0.265-0.141-2.874-1.006-2.878-1.031c-0.939-6.03-4.803-12.892-10.285-15.952
						c-5.402-3.015-11.915-3.442-17.957-2.807c-6.097,0.641-12.296,2.115-17.252,5.723
						C174.645,37.248,171.315,42.743,171.549,48.368z"/>
					<g>
						<g>
							<path style="fill:#303030;" d="M186.121,32.807c3.268-2.783,7.098-4.815,11.25-5.911c3.663-0.967,7.469-1.201,11.241-0.956
								c3.311,0.215,6.658,1.807,9.238,3.83c2.621,2.055,4.799,4.816,5.931,7.968c1.307,3.64,1.125,7.563-0.647,11.016
								c-0.46,0.895,0.466,1.842,1.368,1.368c2.338-1.228,5.117-0.997,7.21,0.627c2.08,1.614,3.105,4.297,2.588,6.879
								c-0.252,1.257,1.676,1.795,1.929,0.532c0.669-3.344-0.522-6.798-3.224-8.92c-2.766-2.173-6.404-2.477-9.513-0.844
								c0.456,0.456,0.912,0.912,1.368,1.368c1.764-3.436,2.253-7.324,1.302-11.077c-0.91-3.592-3.027-6.85-5.741-9.344
								c-2.771-2.547-6.236-4.42-9.944-5.142c-1.943-0.378-3.96-0.395-5.932-0.329c-2.083,0.07-4.169,0.311-6.209,0.742
								c-5.058,1.068-9.701,3.435-13.629,6.781C183.726,32.228,185.146,33.637,186.121,32.807L186.121,32.807z"/>
						</g>
					</g>
					<g>
						<g>
							<path style="fill:#303030;" d="M231.375,34.533c0.834,3.09,0.944,6.468-1.102,9.119c-1.537,1.991-3.82,3.217-6.001,4.377
								c-1.137,0.605-0.127,2.332,1.009,1.727c1.935-1.03,3.876-2.119,5.463-3.654c1.838-1.779,2.933-4.069,3.169-6.615
								c0.171-1.84-0.132-3.712-0.61-5.486C232.969,32.76,231.039,33.287,231.375,34.533L231.375,34.533z"/>
						</g>
					</g>
				</g>
				<path style="fill:#303030;" d="M280.152,101.688c4.776,31.322-11.525,62.162-44.026,67.118
					c-32.501,4.956-63.809-23.556-68.585-54.878c-4.218-27.659,19.07-51.735,51.572-56.691
					C251.613,52.281,288.668,63.116,280.152,101.688z"/>
			</g>
			<path style="fill:#AD6163;" d="M289.186,124.209c-2.739-5.97-9.557-8.627-15.013-6.926c-5.452,1.701-9.504,6.932-11.679,12.871
				l5.21,14.426c6.87,2.506,13.57,0.894,17.879-3.052C289.886,137.579,291.893,130.112,289.186,124.209"/>
			<path style="fill:#D48983;" d="M283.424,114.559c-1.986-8.705-5.692-16.51-10.453-23.088l0.001,0.004
				c-11.318-13.319-27.175-27.849-79.888-9.372c5.766,18.546-7.26,44.291-7.26,44.291c2.92,4.504,5.279,9.344,7.007,14.384
				c-3.85-5.021-9.277-8.806-14.988-8.805c-5.711,0.001-11.428,4.57-12.266,11.086c-0.825,6.442,3.316,12.971,8.605,15.457
				c5.188,2.433,11.895,2.015,17.638-2.192c3.304,5.693,9.435,11.092,17.725,14.427l-2.904,26.385l-17.243,5.787
				c14.379,19.78,62.349,24.725,79.761-0.959l-16.75-4.176l-3.034-23.873C260.796,171.632,293.315,157.905,283.424,114.559z"/>
			<path style="fill:#303030;" d="M224.984,173.99c0,0,9.489,2.876,24.402-0.075l0.842,6.842
				C250.228,180.757,236.197,182.561,224.984,173.99"/>
			<g>
				<path style="fill:none;stroke:#303030;stroke-width:2;stroke-linecap:round;stroke-linejoin:round;stroke-miterlimit:10;" d="
					M171.98,143.045c1.294-1.203,4.62-2.279,8.116-1.46c3.493,0.824,6.559,3.706,7.835,7.376"/>
				<path style="fill:none;stroke:#303030;stroke-width:2;stroke-linecap:round;stroke-linejoin:round;stroke-miterlimit:10;" d="
					M178.132,146.911c0.954-0.876,4.375-3.176,8.019-1.248"/>
			</g>
			<g>
				<path style="fill:none;stroke:#303030;stroke-width:2;stroke-linecap:round;stroke-linejoin:round;stroke-miterlimit:10;" d="
					M232.661,100.593c0.758,4.97,2.65,10.901,9.317,19.633c0.774,1.016,1.605,2.031,1.994,3.246
					c0.589,1.821,0.094,3.854-0.898,5.491c-0.989,1.636-2.428,2.943-3.872,4.205"/>
				<g>
					<path style="fill:none;stroke:#303030;stroke-width:2;stroke-linecap:round;stroke-linejoin:round;stroke-miterlimit:10;" d="
						M220.944,99.639c-9.016-0.934-16.906,2.652-21.265,7.35"/>
					<g>
						<path style="fill:#AD6163;" d="M228.257,121.356c-0.705-5.23-4.18-9.805-10.221-11.338
							c-4.562-1.158-13.463,0.594-14.993,8.416C208.008,125.138,218.375,128.315,228.257,121.356z"/>
						<path style="fill:#FFFFFF;" d="M227.889,121.61c-2.682-5.83-17.713-10.483-24.113-2.257
							C207.395,126.363,220.998,128.221,227.889,121.61z"/>
						<path style="fill:#303030;" d="M223.262,124.538c-2.404,2.05-6.107,1.685-8.27-0.817c-2.163-2.502-1.967-6.192,0.437-8.242
							c2.404-2.051,6.107-1.685,8.27,0.816C225.863,118.797,225.667,122.488,223.262,124.538z"/>
						<polygon style="fill:#FFFFFF;" points="215.114,115.166 219.346,120.009 213.101,117.776 						"/>
						<g>
							
								<path style="fill:none;stroke:#303030;stroke-width:2;stroke-linecap:round;stroke-linejoin:round;stroke-miterlimit:10;" d="
								M204.135,118.696c4.841-6.243,18.116-6.528,23.521,2.444"/>
						</g>
						<path style="fill:none;stroke:#303030;stroke-width:2;stroke-linecap:round;stroke-linejoin:round;stroke-miterlimit:10;" d="
							M199.452,115.875c0.717,1.773,2.459,2.952,4.297,3.021"/>
					</g>
				</g>
				<g>
					<g>
						<path style="fill:#AD6163;" d="M249.525,118.4c-0.846-4.723,1.196-10.362,6.525-13.594c4.024-2.441,12.438-3.362,16.189,3.671
							C269.45,116.34,261.01,122.166,249.525,118.4z"/>
						<path style="fill:#FFFFFF;" d="M272.129,109.402c-5.129-3.857-20.01-1.029-21.735,9.25
							C256.907,123.102,269.205,118.492,272.129,109.402z"/>
						<path style="fill:#303030;" d="M269.928,115.136c-1.673,2.681-5.313,3.45-8.13,1.718c-2.817-1.732-3.745-5.309-2.071-7.99
							c1.673-2.681,5.313-3.45,8.13-1.718C270.674,108.878,271.601,112.455,269.928,115.136z"/>
						<polygon style="fill:#FFFFFF;" points="259.331,108.661 264.827,112 258.199,111.757 						"/>
						<g>
							
								<path style="fill:none;stroke:#303030;stroke-width:2;stroke-linecap:round;stroke-linejoin:round;stroke-miterlimit:10;" d="
								M271.413,108.791c-7.096-5.077-18.676,0.745-21.233,8.972"/>
						</g>
						<path style="fill:none;stroke:#303030;stroke-width:2;stroke-linecap:round;stroke-linejoin:round;stroke-miterlimit:10;" d="
							M274.924,104.979c-0.167,1.905-1.488,3.542-3.225,4.146"/>
					</g>
					<path style="fill:none;stroke:#303030;stroke-width:2;stroke-linecap:round;stroke-linejoin:round;stroke-miterlimit:10;" d="
						M249.038,96.626c6.468-2.805,13.634-3.315,20.12,0.045"/>
				</g>
			</g>
			<path style="fill:#F55571;" d="M196.796,157.562c0.54,3.543-1.893,6.852-5.436,7.392c-3.539,0.54-6.848-1.894-7.389-5.437
				c-0.54-3.543,1.894-6.848,5.433-7.388C192.947,151.589,196.255,154.019,196.796,157.562"/>
			<g>
				<g>
					<path style="fill:#303030;" d="M222.99,140.539c5.475,4.536,13.177,5.985,20.072,4.553c1.804-0.375,3.535-1.013,5.186-1.825
						c1.155-0.568,0.143-2.293-1.009-1.727c-3.598,1.768-7.546,2.273-11.517,1.962c-4.075-0.319-8.15-1.755-11.317-4.378
						C223.42,138.309,221.998,139.717,222.99,140.539L222.99,140.539z"/>
				</g>
			</g>
		</g>
		<path id="Arm_00000093899479593814062440000017441405374100954752_" style="fill:#F55571;" d="M302.045,208.473
			c23.371,6.195,34.137,19.62,42.933,40.629c8.796,21.009,18.791,50.595,21.19,71.385c2.399,20.79-3.499,36.835-18.739,38.759
			c-15.567,1.965-42.937-59.817-42.937-59.817L302.045,208.473z"/>
		<path id="Arm_00000121243445115859545140000008495177794169389443_" style="fill:#F55571;" d="M164.763,204.78
			c-32.065,3.693-45.6,17.176-52.051,42.189c-5.688,22.054-15.603,60.915-17.73,81.734c-2.257,22.097-0.205,41.797,29.754,45.08
			c15.597,1.709,39.409-76.483,39.409-76.483L164.763,204.78z"/>
		
			<path id="Chest" style="fill:#FFFFFF;stroke:#303030;stroke-width:2;stroke-linecap:round;stroke-linejoin:round;stroke-miterlimit:10;" d="
			M199.679,199.471l-34.921,6.087c-22.872,54.587-26.469,92.009-9.993,113.594l-3.131,29.405
			c-2.928,10.505-12.703,29.269-16.793,44.565c0,0,25.488,13.166,96.17,13.166s96.184-15.92,96.184-15.92
			c-1.998-7.619-8.474-22.875-14.225-44.664l-5.822-26.553c17.324-16.132,19.378-51.515-5.103-110.679l-42.947-9.018
			C255.831,219.524,203.042,216.897,199.679,199.471z"/>
		<g id="Necklace">
			<path style="fill:none;stroke:#00826F;stroke-width:2;stroke-linecap:round;stroke-linejoin:round;stroke-miterlimit:10;" d="
				M205.131,197.641c-2.334,24.576,9.525,47.873,26.856,47.873c17.331,0,24.223-26.069,21.425-48.303"/>
			<path style="fill:none;stroke:#00826F;stroke-width:2;stroke-linecap:round;stroke-linejoin:round;stroke-miterlimit:10;" d="
				M203.749,198.105c-4.297,32.349,7.303,56.225,27.246,56.225s28.662-22.591,24.471-55.781"/>
		</g>
		<g id="Arm_00000160908803178639273610000011606798010520704646_">
			<g>
				<path style="fill:#D48983;" d="M314.523,316.97c1.944,3.59-2.347,6.534-2.347,6.534s1.293,2.653,1.913,4.663
					c0.658,2.134,0.365,4.232-1.051,5.99c1.263,3.346,2.492,5.823-2.281,9.536c1.006,3.443,1.348,5.519-4.117,9.347
					c-5.466,3.828-8.277,6.507-12.449,5.582c-4.172-0.925-6.299-1.886-7.64-3.879c-1.341-1.993-1.166-3.089-1.166-3.089
					c-5.269,3.55-12.167,10.61-17.664,11.769c-10.008,2.11-14.88-2.502-22.017-3.56c-5.252-0.779-34.081,3.79-51.032,6.661
					c-10.899,1.846-34.042,7.029-48.755,4.597c-15.509-2.564-33.927-11.237-33.184-24.258c0.825-14.446,13.653-24.491,23.966-27.943
					c13.344-1.741,33.002,0.245,58.729,3.025c26.575,2.872,47.226,4.184,50.96,3.95c3.735-0.234,14.485-1.053,24.624-7.614
					c7.924-5.127,12.905-9.109,19.225-13.294c2.782-1.842,7.845-2.935,11.107-1.309c2.77,1.381,5.466,3.582,8.054,6.466
					C310.728,311.622,313.269,314.653,314.523,316.97z"/>
				<path style="fill:none;stroke:#303030;stroke-width:2;stroke-linecap:round;stroke-linejoin:round;stroke-miterlimit:10;" d="
					M314.523,316.97c1.944,3.59-2.347,6.534-2.347,6.534s1.293,2.653,1.913,4.663c0.658,2.134,0.365,4.232-1.051,5.99
					c1.263,3.346,2.492,5.823-2.281,9.536c1.006,3.443,1.348,5.519-4.117,9.347c-5.466,3.828-8.277,6.507-12.449,5.582
					c-4.172-0.925-6.299-1.886-7.64-3.879c-1.341-1.993-1.166-3.089-1.166-3.089c-5.269,3.55-12.167,10.61-17.664,11.769
					c-10.008,2.11-14.88-2.502-22.017-3.56c-5.252-0.779-34.081,3.79-51.032,6.661c-10.899,1.846-34.042,7.029-48.755,4.597
					c-15.509-2.564-33.927-11.237-33.184-24.258c0.825-14.446,13.653-24.491,23.966-27.943c13.344-1.741,33.002,0.245,58.729,3.025
					c26.575,2.872,47.226,4.184,50.96,3.95c3.735-0.234,14.485-1.053,24.624-7.614c7.924-5.127,12.905-9.109,19.225-13.294
					c2.782-1.842,7.845-2.935,11.107-1.309c2.77,1.381,5.466,3.582,8.054,6.466C310.728,311.622,313.269,314.653,314.523,316.97z"/>
				<g>
					<g>
						<path style="fill:#303030;" d="M314.007,333.898c-3.006-5.601-6.729-10.691-10.638-15.686c-0.333-0.426-1.065-0.349-1.414,0
							c-0.42,0.42-0.334,0.987,0,1.414c3.804,4.86,7.402,9.833,10.326,15.281C312.889,336.042,314.617,335.033,314.007,333.898
							L314.007,333.898z"/>
					</g>
				</g>
				<g>
					<g>
						<path style="fill:#303030;" d="M300.465,329.41c3.936,4.382,6.861,9.515,9.429,14.787c0.564,1.157,2.289,0.144,1.727-1.009
							c-2.645-5.431-5.688-10.679-9.741-15.192C301.017,327.036,299.606,328.454,300.465,329.41L300.465,329.41z"/>
					</g>
				</g>
				<g>
					<g>
						<path style="fill:#303030;" d="M300.321,348.276c-0.744-1.562-1.71-3.543-3.501-4.084c-1.533-0.463-3.116,0.338-4.309,1.248
							c-1.077,0.821-2.072,1.744-3.154,2.56c-1.408,1.062-2.912,1.978-4.477,2.789c-1.143,0.593-0.133,2.319,1.009,1.727
							c2.555-1.325,4.811-2.992,7.012-4.831c0.818-0.683,1.864-1.659,3.007-1.624c0.63,0.019,1.045,0.474,1.404,0.95
							c0.524,0.695,0.909,1.492,1.281,2.275C299.147,350.448,300.871,349.434,300.321,348.276L300.321,348.276z"/>
					</g>
				</g>
				<g>
					<g>
						<path style="fill:#303030;" d="M295.526,349.63c-0.212-1.326-0.943-2.608-1.967-3.475c-0.206-0.175-0.429-0.293-0.707-0.293
							c-0.245,0-0.538,0.109-0.707,0.293c-0.342,0.372-0.426,1.053,0,1.414c0.27,0.229,0.513,0.483,0.73,0.762
							c-0.052-0.067-0.104-0.135-0.156-0.202c0.263,0.345,0.481,0.72,0.652,1.119c-0.034-0.08-0.067-0.159-0.101-0.239
							c0.154,0.371,0.264,0.756,0.328,1.153c0.037,0.232,0.266,0.484,0.46,0.598c0.214,0.125,0.53,0.179,0.771,0.101
							c0.242-0.078,0.475-0.228,0.598-0.46C295.558,350.148,295.571,349.91,295.526,349.63L295.526,349.63z"/>
					</g>
				</g>
			</g>
			<g>
				<path style="fill:#F55571;" d="M151.815,318.334c-11.781,3.998-28.36,26.026-21.686,41.104
					c6.671,15.07,27.286,12.273,27.308,12.274c-8.772,10.342-20.558,6.043-23.969,4.746c-3.287-1.25-7.018,0.11-13.124-2.205
					c-6.515-2.47-11.573-9.584-12.041-18.316c-0.486-9.076,3.023-23.977,14.985-32.461c5.391-3.824,13.39-9.017,19.477-9.478
					C145.546,311.891,151.22,311.208,151.815,318.334z"/>
				<path style="fill:none;stroke:#303030;stroke-width:2;stroke-linecap:round;stroke-linejoin:round;stroke-miterlimit:10;" d="
					M108.303,355.938c0.468,8.732,5.525,15.846,12.041,18.316c6.105,2.315,9.837,0.955,13.124,2.205
					c3.411,1.297,15.198,5.596,23.969-4.746c-0.022-0.001-20.637,2.796-27.308-12.274c-6.674-15.078,9.904-37.106,21.686-41.104
					c1.027-4.012-5.549-5.074-9.05-4.336"/>
				<g>
					<g>
						<path style="fill:#303030;" d="M118.468,342.341c1.098-6.497,3.933-12.637,8.281-17.6c3.585-4.092,8.187-7.548,13.416-9.203
							c1.175-0.372,2.512-0.683,3.64-0.805c0.609-0.066,1.221-0.1,1.834-0.096c0.296,0.002,0.592,0.013,0.887,0.033
							c0.274,0.019,0.634,0.057,0.757,0.075c0.891,0.129,1.794-0.924,0.973-1.671c-3.811-3.471-9.008-4.789-14.047-5.029
							c-4.738-0.225-9.648,0.414-14.156,1.901c-1.73,0.571-3.491,1.261-4.93,2.403c-0.423,0.336-0.351,1.063,0,1.414
							c0.418,0.418,0.99,0.337,1.414,0c0.182-0.144-0.185,0.129,0.013-0.008c0.059-0.041,0.117-0.083,0.176-0.124
							c0.127-0.087,0.257-0.169,0.389-0.249c0.298-0.18,0.607-0.343,0.919-0.497c0.728-0.357,1.28-0.573,2.102-0.86
							c1.924-0.67,3.916-1.144,5.924-1.482c4.602-0.774,9.503-0.847,14.029,0.399c2.475,0.682,4.842,1.805,6.752,3.544
							c0.324-0.557,0.649-1.114,0.973-1.671c-5.096-0.736-10.256,1.095-14.546,3.753c-5.391,3.341-9.836,8.216-12.821,13.799
							c-1.91,3.573-3.233,7.446-3.907,11.44c-0.09,0.532,0.141,1.077,0.699,1.23C117.717,343.171,118.377,342.876,118.468,342.341
							L118.468,342.341z"/>
					</g>
				</g>
			</g>
			<g>
				<g>
					<path style="fill:#303030;" d="M303.98,313.763c2.968,2.967,5.042,6.764,7.333,10.245c0.704,1.071,2.437,0.07,1.727-1.01
						c-2.383-3.623-4.556-7.563-7.645-10.65C304.483,311.438,303.068,312.852,303.98,313.763L303.98,313.763z"/>
				</g>
			</g>
		</g>
		<g id="Arm_00000071544905714468430570000006085407686729787038_">
			<g>
				<path style="fill:#D48983;" d="M276.676,139.501c-2.081,2.387-1.034,5.265-0.038,7.311c0.715,1.469,3.313,5.32,4.757,7.613
					c0,0,1.767,7.285,2.17,10.313c0.166,1.248-1.759,9.519-1.759,9.519s-9.632-1.244-13.231-1.139
					c-3.599,0.105-5.619,1.51-6.645,4.021c-3.539,0.513-6.302,0.636-7.242,6.61c-3.5,0.785-5.483,1.49-6.189,8.125
					c-0.706,6.635-1.69,10.392,1.137,13.596c2.827,3.204,4.698,4.601,7.091,4.81c2.393,0.209,3.267-0.474,3.267-0.474
					c0.632,4.356-2.261,17.135-0.292,22.396c3.81,10.182,6.516,7.979,12.305,16.303c3.031,4.359,13.171,31.66,18.859,47.885
					c3.657,10.432,11.09,33.129,20.336,44.829c9.747,12.333,29.198,23.305,40.235,16.354c12.244-7.711,10.316-32.307,8.349-43.003
					c-1.968-10.695-14.971-24.783-30.942-42.954c-17.504-19.915-28.046-34.765-29.648-38.147
					c-1.602-3.382-5.191-11.498-4.326-25.662c0.865-14.164,1.242-32.669,1.406-38.252c0.163-5.583-1.004-9.617-3.449-15.934
					c-2.445-6.317-3.2-6.268-7.918-11.004C280.194,137.879,278.196,137.757,276.676,139.501z"/>
				<path style="fill:none;stroke:#303030;stroke-width:2;stroke-linecap:round;stroke-linejoin:round;stroke-miterlimit:10;" d="
					M359.788,314.569c-1.968-10.695-14.971-24.783-30.942-42.954c-17.504-19.915-28.046-34.765-29.648-38.147
					c-1.602-3.382-5.191-11.498-4.326-25.662c0.865-14.164,1.242-32.669,1.406-38.252c0.163-5.583-1.004-9.617-3.449-15.934
					c-2.445-6.317-3.2-6.268-7.918-11.004c-4.718-4.737-6.715-4.859-8.235-3.115c-2.081,2.387-1.034,5.265-0.038,7.311
					c0.715,1.469,3.313,5.32,4.757,7.613c0,0,1.767,7.285,2.17,10.313c0.166,1.248-1.759,9.519-1.759,9.519
					s-9.632-1.244-13.231-1.139c-3.599,0.105-5.619,1.51-6.645,4.021c-3.539,0.513-6.302,0.636-7.242,6.61
					c-3.5,0.785-5.483,1.49-6.189,8.125c-0.706,6.635-1.69,10.392,1.137,13.596c2.827,3.204,4.698,4.601,7.091,4.81
					c2.393,0.209,3.267-0.474,3.267-0.474c0.632,4.356-2.261,17.135-0.292,22.396c3.81,10.182,6.516,7.979,12.305,16.303
					c3.031,4.359,13.171,31.66,18.859,47.885c3.657,10.432,11.09,33.129,20.336,44.829c9.747,12.333,29.198,23.305,40.235,16.354"/>
				<g>
					<g>
						<path style="fill:#303030;" d="M261.665,178.165c6.181-0.076,12.265,0.67,18.356,1.647c0.533,0.085,1.076-0.137,1.23-0.698
							c0.131-0.476-0.162-1.144-0.698-1.23c-6.266-1.005-12.53-1.797-18.888-1.719C260.379,176.181,260.375,178.181,261.665,178.165
							L261.665,178.165z"/>
					</g>
				</g>
				<g>
					<g>
						<path style="fill:#303030;" d="M272.71,183.921c-5.913-1.364-11.986-1.485-18.021-1.173c-1.281,0.066-1.288,2.067,0,2
							c5.856-0.303,11.751-0.222,17.49,1.101C273.431,186.139,273.966,184.211,272.71,183.921L272.71,183.921z"/>
					</g>
				</g>
				<g>
					<g>
						<path style="fill:#303030;" d="M255.702,197.1c0.945-0.057,1.924-0.119,2.858,0.071c0.528,0.107,0.986,0.26,1.256,0.752
							c0.477,0.868,0.273,2.028,0.098,2.954c-0.565,2.973-0.999,5.89-0.918,8.929c0.034,1.285,2.034,1.29,2,0
							c-0.049-1.839,0.029-3.68,0.314-5.499c0.215-1.373,0.564-2.728,0.724-4.109c0.155-1.344,0.011-2.814-0.912-3.872
							c-1.28-1.466-3.666-1.332-5.419-1.226C254.423,195.178,254.414,197.178,255.702,197.1L255.702,197.1z"/>
					</g>
				</g>
				<g>
					<g>
						<path style="fill:#303030;" d="M257.361,201.888c0.328-0.118,0.665-0.201,1.01-0.251c-0.089,0.012-0.177,0.024-0.266,0.036
							c0.448-0.059,0.897-0.061,1.346-0.006c-0.089-0.012-0.177-0.024-0.266-0.036c0.386,0.053,0.762,0.147,1.127,0.285
							c0.23,0.087,0.566,0.019,0.771-0.101c0.207-0.121,0.405-0.359,0.46-0.598c0.13-0.569-0.173-1.032-0.698-1.23
							c-1.265-0.478-2.742-0.485-4.014-0.028c-0.249,0.089-0.461,0.225-0.598,0.46c-0.125,0.214-0.179,0.53-0.101,0.771
							C256.287,201.673,256.834,202.078,257.361,201.888L257.361,201.888z"/>
					</g>
				</g>
			</g>
			<g>
				<path style="fill:#F55571;" d="M360.538,319.519c0.067,11.979-16.226,30.746-33.344,27.859
					c-17.118-2.887-25.205-22.047-25.205-22.047s-2.944,8.234,1.776,13.798c4.721,5.564,8.472,6.275,10.642,13.406
					c2.887,9.487,11.801,12.344,21.18,12.374c15.118,0.049,25.505-7.393,29.349-19.18
					C368.03,336.241,366.659,328.165,360.538,319.519z"/>
				<path style="fill:none;stroke:#303030;stroke-width:2;stroke-linecap:round;stroke-linejoin:round;stroke-miterlimit:10;" d="
					M360.538,319.519c0.067,11.979-16.226,30.746-33.344,27.859c-17.118-2.887-25.205-22.047-25.205-22.047
					s-2.944,8.234,1.776,13.798c4.721,5.564,8.472,6.275,10.642,13.406c2.887,9.487,11.801,12.344,21.18,12.374
					c15.118,0.049,25.505-7.393,29.349-19.18"/>
				<g>
					<g>
						<path style="fill:#303030;" d="M359.771,319.704c1.463,6.02,1.2,12.388-0.975,18.206c-1.943,5.197-5.493,9.871-10.234,12.807
							c-2.641,1.635-5.622,2.723-8.708,3.11c-0.536,0.067-1,0.412-1,1c0,0.488,0.46,1.068,1,1c6-0.751,11.459-3.704,15.451-8.243
							c4.158-4.728,6.576-10.75,7.225-16.985c0.398-3.821,0.077-7.699-0.829-11.427
							C361.396,317.922,359.467,318.452,359.771,319.704L359.771,319.704z"/>
					</g>
				</g>
			</g>
		</g>
	</g>
</g>
<g id="Line">
	
		<line id="Line_00000017489073234001348240000006114240688547197574_" style="fill:#FFFFFF;stroke:#303030;stroke-width:2;stroke-linecap:round;stroke-linejoin:round;stroke-miterlimit:10;" x1="88.405" y1="476.342" x2="425.897" y2="476.342"/>
</g>
<g id="Speech_Bubble">
	<g id="Speech_Bubble_00000013194617754512779320000010508656138051644032_">
		
			<path id="Speech_Bubble_00000183930501412086564270000017246897353919501984_" style="fill:#FFFFFF;stroke:#303030;stroke-width:2;stroke-linecap:round;stroke-linejoin:round;stroke-miterlimit:10;" d="
			M314.503,156.799c5.749-1.48,15.311-7.221,16.536-14.437l0.004,0.003c-0.009-0.043-0.014-0.08-0.023-0.123
			c-9.442-10.366-15.247-24.103-15.247-39.23c0-32.223,26.122-58.345,58.345-58.345c32.223,0,58.345,26.122,58.345,58.345
			c0,32.223-26.122,58.345-58.345,58.345c-9.611,0-18.655-2.366-26.649-6.482c-7.176,4.436-14.674,6.341-23.146,6.165
			C314.497,160.835,311.581,157.551,314.503,156.799z"/>
		<path style="fill:#FF95FB;" d="M375.074,124.398c-3.191,0-5.845,1.077-7.96,3.228c-2.115,2.155-3.173,4.824-3.173,8.017
			c0,3.189,1.058,5.863,3.173,8.013c2.115,2.155,4.77,3.228,7.96,3.228c3.191,0,5.827-1.073,7.905-3.228
			c2.076-2.151,3.118-4.825,3.118-8.013c0-3.193-1.042-5.863-3.118-8.017C380.902,125.475,378.265,124.398,375.074,124.398z
			 M395.171,70.77c-2.115-3.523-5.066-6.342-8.851-8.458c-3.786-2.115-8.127-3.173-13.026-3.173c-6.012,0-11.153,1.388-15.419,4.172
			c-1.498,0.977-2.87,2.043-4.117,3.197c-3.667,3.398-3.7,9.195-0.116,12.68l0,0c3.051,2.966,7.794,3.306,11.237,0.806l0.509-0.37
			c2.153-1.561,4.49-2.34,7.015-2.34c1.484,0,2.764,0.26,3.841,0.779c1.075,0.519,1.929,1.282,2.56,2.285
			c0.631,0.999,0.948,2.206,0.948,3.617c0,1.337-0.316,2.524-0.948,3.562c-0.631,1.038-1.541,1.836-2.727,2.394
			c-1.187,0.555-2.562,0.834-4.119,0.834h-5.568l0.848,17.431c0.177,3.633,2.686,6.888,6.255,7.592
			c4.856,0.958,9.18-2.595,9.419-7.284l0.222-4.356c1.83-0.707,3.584-1.557,5.244-2.582c3.008-1.856,5.418-4.345,7.237-7.463
			c1.819-3.114,2.729-6.975,2.729-11.576C398.344,78.213,397.286,74.297,395.171,70.77z"/>
	</g>
</g>
</svg>
