<svg height="512" viewBox="0 0 64 64" width="512" xmlns="http://www.w3.org/2000/svg"><path d="m48 64h-32a15.9982 15.9982 0 0 1 -16-16v-32a15.9982 15.9982 0 0 1 16-16h32a15.9982 15.9982 0 0 1 16 16v32a15.9982 15.9982 0 0 1 -16 16" fill="#785afa" fill-rule="evenodd"/><path d="m30 18h18a9.0006 9.0006 0 0 0 .92-17.954c-.31-.017-.61-.046-.92-.046h-32a15.9982 15.9982 0 0 0 -16 16v32a30 30 0 0 1 30-30" fill="#9678ff" fill-rule="evenodd"/><path d="m48 32a16 16 0 1 0 16 16v-32a15.9982 15.9982 0 0 1 -16 16" fill="#5f41e1" fill-rule="evenodd"/><g fill="#fff"><path d="m50 35.367c-1.15 9.277-7.94 9.86-9.19 10.262a38.1165 38.1165 0 0 1 -11.7.996s-4.64 4.744-6.08 6.198a.7872.7872 0 0 1 -.67.274c-.25-.061-.32-.356-.32-.788.01-.616.04-6.79.04-6.79-9.06-2.515-8.53-11.972-8.43-16.925s1.03-9.009 3.8-11.737c4.96-4.497 15.19-3.825 15.19-3.825 8.64.037 12.78 2.638 13.74 3.51 3.18 2.728 4.81 9.257 3.62 18.823zm-1.24-21.139c-1.13-1.046-5.72-4.374-15.93-4.419 0 0-12.04-.727-17.91 4.658-3.27 3.268-4.42 8.05-4.54 13.979s-1.09 17.041 9.62 20.054v4.597c0 1.175.35 2.903 2.04 2.903.69 0 1.67-.264 3.04-1.656l4.55-4.387a43.9308 43.9308 0 0 0 12.37-1.106c1.48-.48 9.85-1.552 11.21-12.662 1.4-11.452-.68-18.696-4.45-21.961z"/><path d="m32 18a10.9972 10.9972 0 0 1 11 11 1.0292 1.0292 0 0 1 -.29.707 1.002 1.002 0 0 1 -1.71-.707 9.0067 9.0067 0 0 0 -9-9h-.09a1.0016 1.0016 0 0 1 -1-1 .9862.9862 0 0 1 .29-.707 1.0008 1.0008 0 0 1 .71-.293z" fill-rule="evenodd"/><path d="m32 22a6.9991 6.9991 0 0 1 7 7 1.002 1.002 0 0 1 -1.71.707 1.0292 1.0292 0 0 1 -.29-.707 5.0012 5.0012 0 0 0 -5-5h-.09a1.0008 1.0008 0 0 1 -.71-.293.9862.9862 0 0 1 -.29-.707 1.0016 1.0016 0 0 1 1-1z" fill-rule="evenodd"/><path d="m42.57 38.881a1.5375 1.5375 0 0 0 -.21-1.903 25.0975 25.0975 0 0 0 -3.96-2.859 1.7566 1.7566 0 0 0 -2.23.31l-.81 1.009c-1.02 1.26-4.14-.629-5.62-2.176-1.55-1.489-3.44-4.605-2.18-5.627l1.01-.801a1.7635 1.7635 0 0 0 .31-2.235 24.1167 24.1167 0 0 0 -2.86-3.959 1.5328 1.5328 0 0 0 -1.9-.213 8.9962 8.9962 0 0 0 -2.08 1.688 2.6411 2.6411 0 0 0 -.71 2.715 29.626 29.626 0 0 0 6.42 10.423 29.7242 29.7242 0 0 0 10.42 6.416 2.6391 2.6391 0 0 0 2.72-.705 12.3976 12.3976 0 0 0 1.68-2.083z"/></g></svg>